<svg width="30" height="30" viewBox="0 0 30 30" fill="none" xmlns="http://www.w3.org/2000/svg">
<path d="M15 0C12.0333 0 9.13319 0.879734 6.66645 2.52796C4.19972 4.17618 2.27713 6.51886 1.14181 9.25975C0.00649941 12.0006 -0.290551 15.0166 0.288227 17.9264C0.867006 20.8361 2.29562 23.5088 4.3934 25.6066C6.49119 27.7044 9.16394 29.133 12.0737 29.7118C14.9834 30.2906 17.9994 29.9935 20.7403 28.8582C23.4811 27.7229 25.8238 25.8003 27.472 23.3335C29.1203 20.8668 30 17.9667 30 15C30 11.0218 28.4196 7.20644 25.6066 4.3934C22.7936 1.58035 18.9783 0 15 0ZM15.643 9.214C17.0065 9.21559 18.3137 9.75795 19.2779 10.7221C20.2421 11.6863 20.7844 12.9935 20.786 14.357H19.5C19.4989 13.3344 19.0922 12.354 18.3691 11.6309C17.646 10.9078 16.6656 10.5011 15.643 10.5V9.214ZM19.808 24C19.769 24 15.908 23.934 10.943 19.057C6.06601 14.094 6.00001 10.231 6.00001 10.192C6.00001 9.711 9 6 9.663 6C9.89301 6 10.072 6.156 10.268 6.39C10.74 6.952 12.827 10.246 12.731 10.795C12.685 11.053 12.466 11.249 11.838 11.776C11.5286 12.0193 11.239 12.2868 10.972 12.576C11.0999 13.1052 11.2898 13.6174 11.538 14.102C12.4625 16.0029 13.9986 17.5383 15.9 18.462C16.3846 18.7102 16.8968 18.9001 17.426 19.028C17.7152 18.761 17.9827 18.4714 18.226 18.162C18.753 17.534 18.949 17.315 19.207 17.269C19.756 17.169 23.05 19.26 23.612 19.732C23.846 19.932 24.002 20.107 24.002 20.337C24 21 20.289 24 19.808 24ZM22.714 14.357C22.7119 12.4823 21.9662 10.685 20.6406 9.35938C19.315 8.03377 17.5177 7.28812 15.643 7.286V6C17.8586 6.00265 19.9827 6.88396 21.5494 8.45063C23.116 10.0173 23.9974 12.1414 24 14.357H22.714Z" fill="#FFC955"/>
</svg>
