<svg width="30" height="30" viewBox="0 0 30 30" fill="none" xmlns="http://www.w3.org/2000/svg">
<path fill-rule="evenodd" clip-rule="evenodd" d="M15 0C23.2843 0 30 6.71572 30 15C30 23.2843 23.2843 30 15 30C6.71572 30 0 23.2843 0 15C0 6.71572 6.71572 0 15 0ZM24.5215 20.8149V9.66668L18.9471 15.2408L24.5215 20.8149ZM6.66937 21.042H23.331L18.2387 15.9497L16.2979 17.8903C16.2038 17.9841 16.0763 18.0368 15.9434 18.0367H14.0567C13.9909 18.0368 13.9257 18.0239 13.8649 17.9988C13.804 17.9736 13.7487 17.9368 13.7021 17.8903L11.7614 15.9497L6.66914 21.042H6.66937ZM5.47852 9.66633V20.8152L11.0529 15.2408L5.47852 9.66633ZM23.8129 8.95799H6.1875L14.2643 17.0348H15.736L23.8129 8.95799Z" fill="#FFC955"/>
</svg>
