<svg width="17" height="13" viewBox="0 0 17 13" fill="none" xmlns="http://www.w3.org/2000/svg">
<path d="M15.8364 5.94547L11.04 0.549634C10.9108 0.409221 10.7377 0.331525 10.558 0.333281C10.3784 0.335037 10.2065 0.416105 10.0795 0.559024C9.95245 0.701943 9.88039 0.895277 9.87883 1.09739C9.87727 1.2995 9.94633 1.49421 10.0711 1.63959L13.6979 5.71961L1.64808 5.71961C1.46636 5.71961 1.29208 5.80083 1.16358 5.94538C1.03508 6.08994 0.962891 6.28601 0.962891 6.49045C0.962891 6.69488 1.03508 6.89095 1.16358 7.03551C1.29208 7.18007 1.46636 7.26128 1.64808 7.26128L13.6979 7.26128L10.0711 11.3413C10.0057 11.4124 9.9535 11.4975 9.91759 11.5915C9.88168 11.6856 9.86278 11.7867 9.86199 11.8891C9.8612 11.9914 9.87854 12.0929 9.91299 12.1876C9.94744 12.2824 9.99832 12.3684 10.0627 12.4408C10.127 12.5132 10.2035 12.5704 10.2877 12.6092C10.3719 12.6479 10.4621 12.6674 10.5531 12.6666C10.6441 12.6657 10.734 12.6444 10.8176 12.604C10.9012 12.5636 10.9768 12.5049 11.04 12.4313L15.8364 7.03542C15.9648 6.89087 16.037 6.69484 16.037 6.49045C16.037 6.28605 15.9648 6.09002 15.8364 5.94547Z" fill="white"/>
</svg>
