<svg width="21" height="20" viewBox="0 0 21 20" fill="none" xmlns="http://www.w3.org/2000/svg">
<path d="M4.9753 4.662H5.26659C5.70926 4.662 6.0681 4.30303 6.0681 3.86048V1.64864V0.821309C6.0681 0.378757 5.70926 0.0198364 5.26659 0.0198364H4.9753C4.53266 0.0198364 4.17383 0.378757 4.17383 0.821309V1.64869V3.86048C4.17383 4.30303 4.53266 4.662 4.9753 4.662Z" fill="white"/>
<path d="M15.2559 4.64216H15.5472C15.9898 4.64216 16.3487 4.28324 16.3487 3.84065V1.43875V0.801431C16.3487 0.35892 15.9898 0 15.5472 0H15.2559C14.8132 0 14.4543 0.35892 14.4543 0.801431V1.43875V3.8406C14.4544 4.28324 14.8133 4.64216 15.2559 4.64216Z" fill="white"/>
<path d="M19.0572 1.64868H17.0001V4.05054C17.0001 4.85176 16.3483 5.29368 15.5472 5.29368H15.2559C14.4547 5.29368 13.8029 4.64184 13.8029 3.84062V1.64868H6.71965V3.86048C6.71965 4.6617 6.06785 5.31354 5.26663 5.31354H4.97534C4.17417 5.31354 3.52237 4.6617 3.52237 3.86048V1.64868H1.30301C0.584542 1.64868 0 2.23322 0 2.95174V18.697C0 19.4155 0.584542 20 1.30301 20H19.0572C19.7756 20 20.3601 19.4155 20.3601 18.697V2.95174C20.3602 2.23327 19.7756 1.64868 19.0572 1.64868ZM19.0572 18.697H1.30305L1.30301 6.80657H19.0574L19.0581 18.6969C19.058 18.6969 19.0578 18.697 19.0572 18.697Z" fill="white"/>
<path d="M10.8527 10.7949H13.1924C13.2851 10.7949 13.3603 10.7197 13.3603 10.627V8.60104C13.3603 8.5083 13.2851 8.43311 13.1924 8.43311H10.8527C10.76 8.43311 10.6848 8.5083 10.6848 8.60104V10.627C10.6848 10.7197 10.76 10.7949 10.8527 10.7949Z" fill="white"/>
<path d="M14.6711 10.7949H17.0107C17.1035 10.7949 17.1787 10.7197 17.1787 10.627V8.60104C17.1787 8.5083 17.1035 8.43311 17.0107 8.43311H14.6711C14.5784 8.43311 14.5032 8.5083 14.5032 8.60104V10.627C14.5032 10.7197 14.5784 10.7949 14.6711 10.7949Z" fill="white"/>
<path d="M3.21652 14.1117H5.55611C5.64886 14.1117 5.72405 14.0365 5.72405 13.9437V11.9178C5.72405 11.825 5.64886 11.7498 5.55611 11.7498H3.21652C3.12378 11.7498 3.04858 11.825 3.04858 11.9178V13.9437C3.04858 14.0365 3.12378 14.1117 3.21652 14.1117Z" fill="white"/>
<path d="M7.03463 14.1117H9.37423C9.46697 14.1117 9.54217 14.0365 9.54217 13.9437V11.9178C9.54217 11.825 9.46697 11.7498 9.37423 11.7498H7.03463C6.94189 11.7498 6.8667 11.825 6.8667 11.9178V13.9437C6.8667 14.0365 6.94189 14.1117 7.03463 14.1117Z" fill="white"/>
<path d="M10.8528 14.1117H13.1923C13.2851 14.1117 13.3603 14.0365 13.3603 13.9437V11.9178C13.3603 11.825 13.2851 11.7498 13.1923 11.7498H10.8528C10.76 11.7498 10.6848 11.825 10.6848 11.9178V13.9437C10.6848 14.0365 10.76 14.1117 10.8528 14.1117Z" fill="white"/>
<path d="M14.6711 14.1117H17.0107C17.1035 14.1117 17.1787 14.0365 17.1787 13.9437V11.9178C17.1787 11.825 17.1035 11.7498 17.0107 11.7498H14.6711C14.5784 11.7498 14.5032 11.825 14.5032 11.9178V13.9437C14.5032 14.0365 14.5784 14.1117 14.6711 14.1117Z" fill="white"/>
<path d="M5.55607 15.0665H3.21652C3.12378 15.0665 3.04858 15.1417 3.04858 15.2345V17.2604C3.04858 17.3532 3.12378 17.4284 3.21652 17.4284H5.55611C5.64886 17.4284 5.72405 17.3532 5.72405 17.2604V15.2345C5.72401 15.1417 5.64882 15.0665 5.55607 15.0665Z" fill="white"/>
<path d="M9.37423 15.0665H7.03463C6.94189 15.0665 6.8667 15.1417 6.8667 15.2345V17.2604C6.8667 17.3532 6.94189 17.4284 7.03463 17.4284H9.37423C9.46697 17.4284 9.54217 17.3532 9.54217 17.2604V15.2345C9.54217 15.1417 9.46697 15.0665 9.37423 15.0665Z" fill="white"/>
<path d="M13.1924 15.0665H10.8528C10.76 15.0665 10.6848 15.1417 10.6848 15.2345V17.2604C10.6848 17.3532 10.76 17.4284 10.8528 17.4284H13.1924C13.2851 17.4284 13.3603 17.3532 13.3603 17.2604V15.2345C13.3603 15.1417 13.2851 15.0665 13.1924 15.0665Z" fill="white"/>
<path d="M17.0107 15.0665H14.6711C14.5784 15.0665 14.5032 15.1417 14.5032 15.2345V17.2604C14.5032 17.3532 14.5784 17.4284 14.6711 17.4284H17.0107C17.1035 17.4284 17.1787 17.3532 17.1787 17.2604V15.2345C17.1787 15.1417 17.1035 15.0665 17.0107 15.0665Z" fill="white"/>
</svg>
