<svg width="24" height="14" viewBox="0 0 24 14" fill="none" xmlns="http://www.w3.org/2000/svg">
<path d="M12.058 4.94063C12.9676 4.94063 13.7049 4.57195 13.7049 4.11716C13.7049 3.66238 12.9676 3.2937 12.058 3.2937C11.1485 3.2937 10.4111 3.66238 10.4111 4.11716C10.4111 4.57195 11.1485 4.94063 12.058 4.94063Z" fill="#303030"/>
<path fill-rule="evenodd" clip-rule="evenodd" d="M12.0581 9.88129C11.9139 9.88138 11.7709 9.85571 11.6357 9.80554L5.88232 7.68022V11.4269C5.88282 11.5979 5.98905 11.7508 6.14914 11.811L11.9132 13.9733C12.006 14.009 12.1087 14.009 12.2014 13.9733L17.9655 11.811C18.1267 11.7512 18.2337 11.5975 18.234 11.4256V7.67896L12.4806 9.8055C12.3454 9.85571 12.2023 9.88138 12.0581 9.88129Z" fill="#303030"/>
<path fill-rule="evenodd" clip-rule="evenodd" d="M23.3144 4.13366L12.1938 0.0247225C12.1063 -0.00824085 12.0097 -0.00824085 11.9221 0.0247225L0.801521 4.13366C0.637785 4.19639 0.529663 4.3536 0.529663 4.52895C0.529663 4.70431 0.637785 4.86147 0.801521 4.9242L11.9221 9.03318C12.0097 9.0661 12.1063 9.0661 12.1938 9.03318L18.5508 6.68639L13.1491 5.59531C12.797 5.71086 12.4285 5.76787 12.058 5.76413C10.6746 5.76413 9.58766 5.03953 9.58766 4.11727C9.58766 3.19502 10.6746 2.47041 12.058 2.47041C12.8544 2.42997 13.6311 2.72574 14.1989 3.28562L21.7705 4.8131C22.0459 4.8693 22.2941 5.01737 22.4745 5.23307L23.3144 4.92429C23.4781 4.86156 23.5862 4.7044 23.5862 4.52904C23.5863 4.3536 23.4782 4.19639 23.3144 4.13366Z" fill="#303030"/>
<path fill-rule="evenodd" clip-rule="evenodd" d="M21.5279 9.88129C22.21 9.88129 22.7631 10.4343 22.7631 11.1165V12.7634C22.7631 12.9907 22.5788 13.1751 22.3513 13.1751H20.7045C20.4771 13.1751 20.2927 12.9908 20.2927 12.7634V11.1164C20.2927 10.4343 20.8457 9.88129 21.5279 9.88129Z" fill="#303030"/>
<path fill-rule="evenodd" clip-rule="evenodd" d="M21.9393 6.02351V9.09906C21.6676 9.04417 21.3877 9.04417 21.1159 9.09906V6.36112L14.1866 4.9654C14.3827 4.75249 14.5016 4.47991 14.5243 4.19135L21.61 5.62003C21.8017 5.65916 21.9393 5.82785 21.9393 6.02351Z" fill="#303030"/>
</svg>
