<svg width="24" height="14" viewBox="0 0 24 14" fill="none" xmlns="http://www.w3.org/2000/svg">
<path d="M12.2345 4.94057C13.1441 4.94057 13.8814 4.57189 13.8814 4.1171C13.8814 3.66232 13.1441 3.29364 12.2345 3.29364C11.325 3.29364 10.5876 3.66232 10.5876 4.1171C10.5876 4.57189 11.325 4.94057 12.2345 4.94057Z" fill="#FFC955"/>
<path fill-rule="evenodd" clip-rule="evenodd" d="M12.2347 9.88123C12.0905 9.88132 11.9474 9.85565 11.8122 9.80548L6.05884 7.68015V11.4268C6.05933 11.5978 6.16556 11.7507 6.32565 11.8109L12.0897 13.9733C12.1825 14.0089 12.2852 14.0089 12.3779 13.9733L18.142 11.8109C18.3032 11.7511 18.4102 11.5975 18.4105 11.4256V7.67889L12.6571 9.80544C12.5219 9.85565 12.3788 9.88132 12.2347 9.88123Z" fill="#FFC955"/>
<path fill-rule="evenodd" clip-rule="evenodd" d="M23.4908 4.13366L12.3702 0.0247225C12.2826 -0.00824085 12.1861 -0.00824085 12.0985 0.0247225L0.977913 4.13366C0.814176 4.19639 0.706055 4.3536 0.706055 4.52895C0.706055 4.70431 0.814176 4.86147 0.977913 4.9242L12.0985 9.03318C12.1861 9.0661 12.2826 9.0661 12.3702 9.03318L18.7272 6.68639L13.3254 5.59531C12.9734 5.71086 12.6048 5.76787 12.2344 5.76413C10.851 5.76413 9.76405 5.03953 9.76405 4.11727C9.76405 3.19502 10.851 2.47041 12.2344 2.47041C13.0308 2.42997 13.8075 2.72574 14.3753 3.28562L21.9469 4.8131C22.2223 4.8693 22.4705 5.01737 22.6509 5.23307L23.4908 4.92429C23.6545 4.86156 23.7626 4.7044 23.7626 4.52904C23.7627 4.3536 23.6546 4.19639 23.4908 4.13366Z" fill="#FFC955"/>
<path fill-rule="evenodd" clip-rule="evenodd" d="M21.7044 9.88129C22.3865 9.88129 22.9396 10.4343 22.9396 11.1165V12.7634C22.9396 12.9907 22.7553 13.1751 22.5279 13.1751H20.881C20.6536 13.1751 20.4692 12.9908 20.4692 12.7634V11.1164C20.4692 10.4343 21.0222 9.88129 21.7044 9.88129Z" fill="#FFC955"/>
<path fill-rule="evenodd" clip-rule="evenodd" d="M22.1157 6.02351V9.09906C21.844 9.04417 21.5641 9.04417 21.2923 9.09906V6.36112L14.363 4.9654C14.5591 4.75249 14.678 4.47991 14.7006 4.19135L21.7864 5.62003C21.9781 5.65916 22.1157 5.82785 22.1157 6.02351Z" fill="#FFC955"/>
</svg>
