<svg width="14" height="14" viewBox="0 0 14 14" fill="none" xmlns="http://www.w3.org/2000/svg">
<path d="M6.875 0C5.51526 0 4.18605 0.385227 3.05546 1.10697C1.92487 1.82871 1.04368 2.85455 0.523331 4.05476C0.00297885 5.25497 -0.133169 6.57564 0.132104 7.84978C0.397378 9.12392 1.05216 10.2943 2.01364 11.2129C2.97513 12.1315 4.20014 12.7571 5.53376 13.0105C6.86738 13.2639 8.24971 13.1339 9.50595 12.6367C10.7622 12.1396 11.8359 11.2977 12.5914 10.2175C13.3468 9.13738 13.75 7.86746 13.75 6.56836C13.7479 4.82695 13.0228 3.15746 11.734 1.9261C10.4451 0.694736 8.69771 0.00205439 6.875 0ZM6.875 11.9425C5.76248 11.9425 4.67495 11.6273 3.74992 11.0368C2.82489 10.4463 2.10392 9.60693 1.67818 8.62494C1.25244 7.64295 1.14104 6.5624 1.35809 5.51992C1.57513 4.47745 2.11086 3.51987 2.89753 2.76829C3.6842 2.0167 4.68648 1.50487 5.77762 1.29751C6.86876 1.09015 7.99976 1.19657 9.0276 1.60333C10.0554 2.01008 10.9339 2.69889 11.552 3.58266C12.1701 4.46643 12.5 5.50546 12.5 6.56836C12.4982 7.99313 11.905 9.35905 10.8505 10.3665C9.79597 11.374 8.36629 11.9407 6.875 11.9425Z" fill="white"/>
<path d="M7.5 6.32114V2.98561C7.5 2.82725 7.43415 2.67536 7.31694 2.56338C7.19973 2.4514 7.04076 2.38849 6.875 2.38849C6.70924 2.38849 6.55027 2.4514 6.43306 2.56338C6.31585 2.67536 6.25 2.82725 6.25 2.98561V6.56835C6.25004 6.72671 6.31591 6.87856 6.43313 6.99052L8.30813 8.78189C8.426 8.89066 8.58388 8.95085 8.74775 8.94949C8.91162 8.94813 9.06838 8.88533 9.18426 8.77462C9.30014 8.6639 9.36587 8.51414 9.3673 8.35757C9.36872 8.20101 9.30572 8.05018 9.19187 7.93756L7.5 6.32114Z" fill="white"/>
</svg>
