<svg width="36" height="36" viewBox="0 0 36 36" fill="none" xmlns="http://www.w3.org/2000/svg">
<path d="M26.895 19.0576L23.5915 18.3959C23.4342 17.9188 23.2409 17.4529 23.0135 17.0031L23.3682 16.4711L20.3601 16.476C20.2133 16.8433 20.2348 17.2612 20.4466 17.6066C20.8611 18.2831 21.1653 19.0167 21.3506 19.7849C21.4658 20.2657 21.8506 20.6362 22.3351 20.7329L25.3771 21.3413V21.7997L22.3351 22.4082C21.8506 22.5048 21.4658 22.8753 21.3506 23.3561C21.1653 24.1243 20.8611 24.8579 20.4466 25.5344C20.1883 25.9557 20.1982 26.4898 20.4727 26.9012L22.1944 29.4835L21.8704 29.8069L19.2881 28.0858C18.8767 27.8095 18.3414 27.8008 17.9213 28.0598C17.2448 28.4749 16.5112 28.7784 15.7417 28.9631C15.2609 29.0796 14.8911 29.4637 14.7944 29.9482L14.186 32.9902H13.7288L13.1204 29.9482C13.0237 29.4637 12.6538 29.0796 12.1731 28.9631C11.4036 28.7784 10.67 28.4749 9.99285 28.0598C9.57093 27.8008 9.03749 27.8132 8.6261 28.0858L6.04441 29.8069L5.72038 29.4835L7.44213 26.9012C7.71659 26.4898 7.7265 25.9557 7.46815 25.5344C7.05366 24.8579 6.74946 24.1243 6.56421 23.3561C6.44898 22.8753 6.06423 22.5048 5.57974 22.4082L2.53771 21.7997V21.3413L5.57974 20.7329C6.06423 20.6362 6.44898 20.2657 6.56421 19.7849C6.74884 19.0179 7.05305 18.2844 7.46877 17.6066C7.7265 17.184 7.71659 16.6512 7.44213 16.2398L7.15171 15.8043C7.13181 15.7856 7.10826 15.7721 7.08898 15.7529C6.82915 15.4937 6.6381 15.1818 6.51194 14.8447L5.72038 13.6575L6.04441 13.3341L6.34427 13.534V10.5384C5.88162 10.3547 5.34934 10.4406 4.98558 10.8038L3.19072 12.5981C2.76323 13.0256 2.69632 13.6959 3.03212 14.199L4.90132 17.0031C4.67394 17.4529 4.48064 17.9188 4.32327 18.3959L1.01979 19.0576C0.426875 19.1765 0 19.697 0 20.3017V22.8394C0 23.4441 0.426875 23.9645 1.01979 24.0834L4.32327 24.7451C4.48064 25.2222 4.67394 25.6881 4.90132 26.1379L3.03212 28.942C2.69632 29.4451 2.76323 30.1155 3.19072 30.5429L4.98558 32.3372C5.4137 32.7659 6.08468 32.8341 6.58652 32.4958L9.39002 30.6272C9.83982 30.854 10.3057 31.0473 10.784 31.2046L11.4445 34.5081C11.5628 35.1004 12.0839 35.5279 12.6885 35.5279H15.2263C15.8309 35.5279 16.352 35.1004 16.4703 34.5081L17.1308 31.2046C17.6091 31.0473 18.075 30.854 18.5248 30.6272L21.3283 32.4958C21.8326 32.8328 22.5011 32.7647 22.9292 32.3372L24.7241 30.5429C25.1516 30.1155 25.2185 29.4451 24.8827 28.942L23.0135 26.1379C23.2409 25.6881 23.4342 25.2222 23.5915 24.7451L26.895 24.0834C27.4879 23.9645 27.9148 23.4441 27.9148 22.8394V20.3017C27.9148 19.697 27.4879 19.1765 26.895 19.0576Z" fill="#BF0400"/>
<path d="M11.4267 15.2225H11.4217C9.32202 15.2225 7.61328 13.515 7.61328 11.416V3.80656C7.61328 1.7075 9.32078 0 11.4198 0H31.7215C33.8206 0 35.5281 1.7075 35.5281 3.80656V11.3813C35.5281 13.4779 33.8231 15.1866 31.7271 15.1878L11.4267 15.2225ZM11.4198 2.53771C10.7204 2.53771 10.151 3.10646 10.151 3.80656V11.416C10.151 12.1148 10.7204 12.6836 11.4205 12.6848L31.724 12.6501C32.4229 12.6501 32.9904 12.0801 32.9904 11.3813V3.80656C32.9904 3.10646 32.421 2.53771 31.7215 2.53771H11.4198Z" fill="#BF0400"/>
<path d="M16.4941 11.4197C16.2525 11.4197 16.0077 11.3503 15.7915 11.2066L11.985 8.66886C11.6318 8.43343 11.4199 8.03691 11.4199 7.61313C11.4199 7.18935 11.6318 6.79284 11.985 6.55741L15.7915 4.0197C16.3745 3.63061 17.1614 3.78798 17.5511 4.37161C17.9395 4.95523 17.7822 5.74207 17.1992 6.13115L14.9762 7.61313L17.1992 9.09511C17.7822 9.4842 17.9395 10.271 17.5511 10.8547C17.3063 11.2214 16.9042 11.4197 16.4941 11.4197Z" fill="#BF0400"/>
<path d="M26.647 11.4197C26.2369 11.4197 25.8348 11.2214 25.5901 10.8547C25.2016 10.271 25.359 9.4842 25.942 9.09511L28.1649 7.61313L25.942 6.13115C25.359 5.74207 25.2016 4.95523 25.5901 4.37161C25.9779 3.78798 26.766 3.63061 27.3496 4.0197L31.1562 6.55741C31.5093 6.79284 31.7212 7.18935 31.7212 7.61313C31.7212 8.03691 31.5093 8.43343 31.1562 8.66886L27.3496 11.2066C27.1334 11.3503 26.8887 11.4197 26.647 11.4197Z" fill="#BF0400"/>
<path d="M13.9582 26.646C11.1597 26.646 8.88281 24.3697 8.88281 21.5705C8.88281 18.7714 11.1597 16.4951 13.9582 16.4951C16.7568 16.4951 19.0336 18.7714 19.0336 21.5705C19.0336 24.3697 16.7568 26.646 13.9582 26.646ZM13.9582 19.0328C12.5586 19.0328 11.4205 20.1716 11.4205 21.5705C11.4205 22.9695 12.5586 24.1082 13.9582 24.1082C15.3578 24.1082 16.4959 22.9695 16.4959 21.5705C16.4959 20.1716 15.3578 19.0328 13.9582 19.0328Z" fill="#BF0400"/>
<path d="M20.3013 11.4196C20.1111 11.4196 19.9172 11.3763 19.735 11.2858C19.108 10.9723 18.854 10.2103 19.1675 9.58328L21.7052 4.50786C22.0181 3.88087 22.7783 3.62933 23.4078 3.94034C24.0348 4.25384 24.2888 5.0159 23.9753 5.64289L21.4376 10.7183C21.2151 11.1631 20.7672 11.4196 20.3013 11.4196Z" fill="#BF0400"/>
</svg>
