<svg width="13" height="14" viewBox="0 0 13 14" fill="none" xmlns="http://www.w3.org/2000/svg">
<path d="M4.28128 13.941C4.33628 13.9752 4.53003 14.0717 4.72453 13.9052L12.4466 7.31211C12.5369 7.23487 12.5886 7.12112 12.5886 6.99987C12.5886 6.87862 12.5369 6.76487 12.4466 6.68763L4.72453 0.0944982C4.64053 0.0227496 4.55678 0 4.48428 0C4.38878 0 4.31253 0.0394992 4.28128 0.0587489C4.16004 0.133247 4.04954 0.289995 4.10229 0.506241L5.63601 6.78162C5.67101 6.92437 5.67101 7.07537 5.63601 7.21812L4.10229 13.4935C4.04954 13.7097 4.16004 13.8665 4.28128 13.941Z" fill="white"/>
<path d="M2.08893 8.49979C2.91734 8.49979 3.5889 7.82823 3.5889 6.99982C3.5889 6.17141 2.91734 5.49985 2.08893 5.49985C1.26052 5.49985 0.588959 6.17141 0.588959 6.99982C0.588959 7.82823 1.26052 8.49979 2.08893 8.49979Z" fill="white"/>
</svg>
