<svg width="28" height="28" viewBox="0 0 28 28" fill="none" xmlns="http://www.w3.org/2000/svg">
<path opacity="0.2" fill-rule="evenodd" clip-rule="evenodd" d="M1.18989 22.1945L14.5626 21.2239L20.8176 21.569L26.9431 24.9769C27.0078 25.02 26.9 25.0631 26.7059 25.0847L10.8743 27.5867C10.6802 27.6083 10.4429 27.6083 10.3782 27.5651L0.952635 22.3023C0.866359 22.2592 0.974204 22.216 1.18989 22.1945Z" fill="#393939"/>
<path fill-rule="evenodd" clip-rule="evenodd" d="M10.896 0L23.3628 2.58826L28.0001 7.204V24.6532C28.0001 24.8473 27.8491 24.9768 27.6334 24.9983L10.896 27.6082C10.7018 27.6297 10.5293 27.4572 10.5293 27.2631V0.366671C10.5293 0.172551 10.6803 0 10.896 0Z" fill="url(#paint0_linear_1_599)"/>
<path opacity="0.2" fill-rule="evenodd" clip-rule="evenodd" d="M11.0469 0.0217285L11.2626 0.0648663L11.3273 0.0864351V27.5436L11.0469 27.5867V0.0217285ZM11.7802 0.172711L11.9096 0.215848V27.4573L11.6292 27.5005V0.151142L11.7802 0.172711ZM12.4704 27.3495L12.19 27.3926V0.258986L12.4704 0.323693V27.3495Z" fill="black"/>
<path opacity="0.4" fill-rule="evenodd" clip-rule="evenodd" d="M10.5509 12.4453L10.5293 1.53149L20.9039 3.5374C21.4431 3.64524 21.8961 3.99035 21.8961 4.52957V8.77863C21.8961 9.31786 21.4647 9.7061 20.9255 9.83551L10.5509 12.4453Z" fill="black"/>
<path opacity="0.4" fill-rule="evenodd" clip-rule="evenodd" d="M23.1036 2.58826H23.3409L27.9782 7.204V7.44125H23.8801C23.4487 7.44125 23.082 7.09615 23.082 6.6432V2.58826H23.1036Z" fill="black"/>
<path fill-rule="evenodd" clip-rule="evenodd" d="M7.44429 0.948985L21.1405 3.53725C21.5503 3.62353 21.8954 3.88235 21.8954 4.29216V8.75692C21.8954 9.16673 21.5503 9.44712 21.1405 9.51183L7.44429 12.1432C7.03448 12.2295 6.68938 11.7981 6.68938 11.3883V1.7039C6.66781 1.29409 7.03448 0.862709 7.44429 0.948985Z" fill="url(#paint1_linear_1_599)"/>
<path fill-rule="evenodd" clip-rule="evenodd" d="M27.9781 7.204H23.88C23.5781 7.204 23.3408 6.96674 23.3408 6.66477V2.58826L27.9781 7.204Z" fill="url(#paint2_linear_1_599)"/>
<path d="M10.1836 8.90806V4.27075H11.2189C11.6934 4.27075 12.0385 4.40017 12.2542 4.65899C12.4915 4.91782 12.5993 5.30606 12.5993 5.82371C12.5993 6.31979 12.4699 6.68647 12.2111 6.96686C11.9522 7.24726 11.6071 7.37667 11.1542 7.37667H11.0679V8.88649H10.1836V8.90806ZM11.0895 4.96096V6.6649H11.1326C11.3267 6.6649 11.4777 6.60019 11.564 6.44921C11.6718 6.29823 11.715 6.08254 11.715 5.80214C11.715 5.52175 11.6718 5.32763 11.564 5.17664C11.4562 5.04723 11.3052 4.96096 11.0895 4.96096Z" fill="white"/>
<path d="M13.1826 8.90806V4.27075H14.0885C14.714 4.27075 15.1454 4.4433 15.4258 4.78841C15.7062 5.13351 15.8356 5.6943 15.8356 6.47078C15.8356 7.31196 15.7062 7.91589 15.4258 8.30413C15.167 8.69237 14.7356 8.88649 14.1532 8.88649H13.1826V8.90806ZM14.0669 8.17472H14.0885C14.3905 8.17472 14.5846 8.06687 14.714 7.82962C14.8434 7.59236 14.8866 7.18255 14.8866 6.60019C14.8866 5.99626 14.8219 5.58645 14.714 5.3492C14.5846 5.11194 14.3905 5.00409 14.0885 5.00409H14.0454V8.17472H14.0669Z" fill="white"/>
<path d="M16.4385 8.90794V4.27063H18.3797V5.00397H17.3444V6.10398H18.3797V6.81576H17.3444V8.88637H16.4385V8.90794Z" fill="white"/>
<path fill-rule="evenodd" clip-rule="evenodd" d="M18.7692 17.5569L19.5673 18.4843C19.6967 18.6138 19.8477 18.7432 19.9987 18.8726C20.2359 19.0667 20.4732 19.2608 20.7104 19.4549C20.9477 19.6491 21.2065 19.8216 21.4653 19.9942C21.5516 20.0373 21.8104 20.2099 21.8967 20.2099C22.2418 20.2099 22.5869 20.1883 22.932 20.1667C23.4281 20.1451 23.9242 20.1236 24.4203 20.1236C25.0026 20.1236 25.6497 20.1451 26.2321 20.2746C26.6634 20.3608 27.2458 20.555 27.4399 21.0079C27.4615 21.0726 27.4831 21.1589 27.5046 21.2452C27.5262 21.4824 27.4831 21.6981 27.3536 21.8922C27.138 22.1942 26.7713 22.3667 26.4262 22.4314C25.9301 22.5177 25.3046 22.4314 24.8085 22.3452C24.3124 22.2589 23.7948 22.1295 23.2987 21.9569C22.9967 21.8707 22.7163 21.7412 22.4359 21.6118C22.2203 21.5256 22.0261 21.4393 21.8104 21.353C21.7242 21.3099 21.5732 21.2452 21.4653 21.2236C20.883 21.2236 20.2575 21.3099 19.6751 21.4177C19.0496 21.5471 18.4241 21.6981 17.8202 21.8707C17.5398 21.9569 16.9143 22.0863 16.7633 22.3236C16.2888 22.9922 15.728 23.8766 14.9515 24.2217C14.3692 24.4805 13.7005 24.2864 13.377 23.7256C13.2907 23.5746 13.2476 23.402 13.2692 23.2295C13.377 22.453 14.6496 22.0001 15.2966 21.7197C15.4908 21.6334 15.6849 21.5687 15.879 21.504C15.9653 21.4824 16.0516 21.4393 16.1378 21.3961C16.2025 21.353 16.2457 21.2667 16.2888 21.202C16.5045 20.8354 16.6986 20.4687 16.8712 20.0804C16.9359 19.9079 17.0006 19.7138 17.0437 19.5412C17.13 19.2824 17.1947 19.002 17.2594 18.7216C17.3241 18.4412 17.4751 17.6863 17.4104 17.4059C17.3673 17.3412 17.3241 17.2765 17.281 17.2118C17.1947 17.0608 17.0869 16.9098 17.0006 16.7804C16.7418 16.3706 16.5045 15.9392 16.2888 15.5078C16.03 15.0118 15.728 14.3647 15.6633 13.8039C15.577 13.0921 15.8143 12.6607 16.5045 12.4235C16.7849 12.3372 17.0653 12.3156 17.3457 12.4451C18.0575 12.7902 18.2731 13.9333 18.3594 14.6667C18.4241 15.2274 18.4241 15.8098 18.4241 16.3706V16.9098C18.4241 16.9745 18.4241 17.0608 18.4457 17.1039C18.4673 17.1471 18.4888 17.2118 18.532 17.2549C18.6183 17.3628 18.7045 17.449 18.7692 17.5569ZM17.4104 15.4431C17.3673 14.7314 17.281 13.9549 17.0653 13.5451C17.0222 13.4588 16.8712 13.351 16.7633 13.3725C16.6986 13.3941 16.6986 13.5666 16.6986 13.6098C16.6986 13.998 16.9359 14.5157 17.1084 14.8392C17.2163 15.0333 17.3241 15.249 17.4104 15.4431ZM24.1399 21.1373C24.6791 21.2883 25.2399 21.4177 25.7575 21.4177C25.9517 21.4177 26.1458 21.4177 26.3183 21.3746C26.3399 21.3746 26.3615 21.353 26.4046 21.353C26.3183 21.3099 26.2105 21.2883 26.1674 21.2667C25.9301 21.202 25.6497 21.1805 25.4124 21.1589C25.0889 21.1373 24.7654 21.1157 24.4418 21.1157C24.3556 21.1373 24.2477 21.1373 24.1399 21.1373ZM17.6045 20.9216C17.8418 20.8569 18.0575 20.7922 18.2947 20.7275C18.8124 20.5765 19.3516 20.4687 19.8908 20.3824C20.0202 20.3608 20.1281 20.3608 20.2575 20.3393L20.0634 20.1883C19.7398 19.9726 19.3947 19.6491 19.1143 19.3687C18.8555 19.1098 18.5967 18.851 18.3594 18.5706C18.2084 19.4118 17.9496 20.1667 17.6045 20.9216ZM15.0162 22.9922C14.9947 23.0138 14.9515 23.0138 14.93 23.0354C14.8221 23.0785 14.5417 23.2295 14.4123 23.3373H14.4555C14.628 23.3589 14.8653 23.1432 15.0162 22.9922Z" fill="url(#paint3_linear_1_599)"/>
<path fill-rule="evenodd" clip-rule="evenodd" d="M15.9008 22.3237C15.6851 22.6257 14.7792 24.0492 14.1537 23.51C13.8302 23.2296 14.6282 22.8629 14.8223 22.7767C15.1459 22.6257 15.5557 22.4316 15.9008 22.3237ZM17.0655 21.3747C17.5616 20.361 18.0361 19.3041 18.1224 17.9237L18.4675 18.2903C18.8773 18.7217 19.6969 19.6276 20.2145 19.9511L20.9695 20.5119C20.7753 20.5766 20.1714 20.6198 19.9126 20.6413C18.7263 20.8355 18.1224 21.0727 17.0655 21.3747ZM26.2538 21.008C27.5048 21.2884 26.7068 22.3022 23.5362 21.2453C23.3852 21.2021 23.2558 21.1374 23.0832 21.0943C22.9107 21.0296 22.7597 21.008 22.6518 20.9002C23.5146 20.8355 25.3695 20.8139 26.2538 21.008ZM17.7341 16.4786C17.54 16.2844 17.0439 15.3354 16.8498 14.9903C15.7714 12.855 16.9792 12.855 17.3028 13.4158C17.7126 14.0844 17.7341 15.6805 17.7341 16.4786ZM16.6341 12.704C16.1596 12.8766 15.9223 13.1354 15.9871 13.7824C16.138 15.0119 17.6694 17.1903 17.7126 17.3197C17.8851 17.859 17.3675 19.7139 17.1733 20.21C17.0008 20.6629 16.7851 21.008 16.5694 21.3747C16.3322 21.7845 16.2027 21.7198 15.4478 22.0218C14.887 22.259 13.2262 22.8414 13.6576 23.6179C13.8517 23.9845 14.3478 24.2218 14.8655 23.9845C15.5557 23.661 16.1165 22.7982 16.5478 22.1727C16.7851 21.8492 17.3675 21.7414 17.7557 21.6119C18.7263 21.31 20.4302 20.9217 21.5087 20.9433C21.6812 20.9433 22.8891 21.5041 23.4067 21.6767C24.1617 21.9139 25.5421 22.2806 26.3832 22.1296C26.8362 22.0649 27.2891 21.7629 27.246 21.2453C27.1166 20.0374 22.9969 20.4688 21.9185 20.4904C21.444 20.4904 19.6969 19.0237 19.3518 18.6786L18.5537 17.7295C18.1224 17.1256 18.1655 17.2766 18.1655 16.3707C18.1655 15.8315 18.1439 15.2276 18.1008 14.6883C17.993 13.8256 17.6694 12.3373 16.6341 12.704Z" fill="white"/>
<defs>
<linearGradient id="paint0_linear_1_599" x1="19.2552" y1="-17.6774" x2="19.2552" y2="45.2856" gradientUnits="userSpaceOnUse">
<stop stop-color="#D74A4B"/>
<stop offset="1" stop-color="#891719"/>
</linearGradient>
<linearGradient id="paint1_linear_1_599" x1="14.2814" y1="-11.8019" x2="14.2814" y2="23.3329" gradientUnits="userSpaceOnUse">
<stop stop-color="#E15355"/>
<stop offset="1" stop-color="#CD1F26"/>
</linearGradient>
<linearGradient id="paint2_linear_1_599" x1="25.6703" y1="14.788" x2="25.6703" y2="-4.98953" gradientUnits="userSpaceOnUse">
<stop stop-color="#E15355"/>
<stop offset="1" stop-color="#CD1F26"/>
</linearGradient>
<linearGradient id="paint3_linear_1_599" x1="20.4171" y1="-16.0235" x2="20.4171" y2="52.7435" gradientUnits="userSpaceOnUse">
<stop stop-color="#D74A4B"/>
<stop offset="1" stop-color="#891719"/>
</linearGradient>
</defs>
</svg>
