<svg width="14" height="15" viewBox="0 0 14 15" fill="none" xmlns="http://www.w3.org/2000/svg">
<path d="M7.00153 10.8308C8.93483 10.8308 10.5021 9.26356 10.5021 7.33026C10.5021 5.39696 8.93483 3.82971 7.00153 3.82971C5.06823 3.82971 3.50098 5.39696 3.50098 7.33026C3.50098 9.26356 5.06823 10.8308 7.00153 10.8308Z" fill="white"/>
<path d="M7.00111 0.329224C5.61642 0.329224 4.26283 0.739831 3.1115 1.50912C1.96018 2.27841 1.06283 3.37184 0.53293 4.65112C0.00303347 5.9304 -0.135612 7.33809 0.134527 8.69617C0.404666 10.0543 1.07146 11.3017 2.05058 12.2809C3.0297 13.26 4.27718 13.9268 5.63526 14.1969C6.99334 14.467 8.40103 14.3284 9.68031 13.7985C10.9596 13.2686 12.053 12.3713 12.8223 11.2199C13.5916 10.0686 14.0022 8.71501 14.0022 7.33033C14.0022 6.41093 13.8211 5.50053 13.4693 4.65112C13.1174 3.80171 12.6017 3.02991 11.9516 2.3798C11.3015 1.72969 10.5297 1.21399 9.68031 0.862151C8.8309 0.510313 7.9205 0.329224 7.00111 0.329224ZM7.00111 12.2311C6.03182 12.2311 5.08431 11.9437 4.27838 11.4052C3.47245 10.8667 2.84431 10.1013 2.47338 9.20577C2.10245 8.31027 2.0054 7.32489 2.1945 6.37423C2.3836 5.42358 2.85035 4.55034 3.53574 3.86496C4.22112 3.17957 5.09436 2.71282 6.04501 2.52372C6.99567 2.33462 7.98105 2.43168 8.87655 2.8026C9.77205 3.17353 10.5374 3.80168 11.0759 4.6076C11.6145 5.41353 11.9019 6.36104 11.9019 7.33033C11.9019 8.63009 11.3855 9.87662 10.4665 10.7957C9.5474 11.7148 8.30087 12.2311 7.00111 12.2311Z" fill="white"/>
</svg>
