<svg width="9" height="10" viewBox="0 0 9 10" fill="none" xmlns="http://www.w3.org/2000/svg">
<path d="M5.49997 10C5.62785 10 5.75585 9.95557 5.85347 9.86682C6.04884 9.6892 6.04884 9.40159 5.85347 9.22409L1.20702 4.99999L5.85347 0.775896C6.04884 0.598282 6.04884 0.310668 5.85347 0.133168C5.6581 -0.0443325 5.34173 -0.0444461 5.14648 0.133168L0.14653 4.67863C-0.0488429 4.85624 -0.0488429 5.14386 0.14653 5.32136L5.14648 9.86682C5.2441 9.95557 5.3721 10 5.49997 10Z" fill="black"/>
<path d="M8.49997 10C8.62785 10 8.75585 9.95557 8.85347 9.86682C9.04884 9.6892 9.04884 9.40159 8.85347 9.22409L4.20702 4.99999L8.85347 0.775896C9.04884 0.598282 9.04884 0.310668 8.85347 0.133168C8.6581 -0.0443325 8.34173 -0.0444461 8.14648 0.133168L3.14653 4.67863C2.95116 4.85624 2.95116 5.14386 3.14653 5.32136L8.14648 9.86682C8.2441 9.95557 8.3721 10 8.49997 10Z" fill="black"/>
</svg>
