<svg width="13" height="13" viewBox="0 0 13 13" fill="none" xmlns="http://www.w3.org/2000/svg">
<path d="M6.5 0C2.91578 0 0 2.91578 0 6.5C0 10.0842 2.91578 13 6.5 13C10.0842 13 13 10.0842 13 6.5C13 2.91578 10.0842 0 6.5 0ZM8.50797 6.88297L5.79963 9.59128C5.694 9.69691 5.55534 9.75 5.41666 9.75C5.278 9.75 5.13932 9.69691 5.03369 9.59128C4.82191 9.3795 4.82191 9.03716 5.03369 8.82538L7.35909 6.5L5.03372 4.17463C4.82193 3.96284 4.82193 3.6205 5.03372 3.40872C5.2455 3.19693 5.58784 3.19693 5.79963 3.40872L8.50797 6.11706C8.71975 6.32884 8.71975 6.67116 8.50797 6.88297Z" fill="white"/>
</svg>
