<svg width="21" height="16" viewBox="0 0 21 16" fill="none" xmlns="http://www.w3.org/2000/svg">
<path d="M1.85187 14.6207C0.646926 13.3409 0 11.9055 0 9.57871C0 5.48424 2.87431 1.81443 7.05418 0L8.09885 1.61205C4.19741 3.72245 3.43467 6.46107 3.13051 8.18776C3.75872 7.86254 4.58112 7.74907 5.38714 7.82394C7.49755 8.0193 9.16107 9.75185 9.16107 11.9055C9.16107 12.9915 8.72969 14.0329 7.96183 14.8008C7.19397 15.5686 6.15253 16 5.06661 16C4.46606 15.9948 3.87256 15.8702 3.32064 15.6334C2.76873 15.3966 2.26945 15.0524 1.85187 14.6207ZM13.5503 14.6207C12.3454 13.3409 11.6985 11.9055 11.6985 9.57871C11.6985 5.48424 14.5728 1.81443 18.7526 0L19.7973 1.61205C15.8959 3.72245 15.1331 6.46107 14.829 8.18776C15.4572 7.86254 16.2796 7.74907 17.0856 7.82394C19.196 8.0193 20.8595 9.75185 20.8595 11.9055C20.8595 12.9915 20.4282 14.0329 19.6603 14.8008C18.8924 15.5686 17.851 16 16.7651 16C16.1645 15.9948 15.571 15.8702 15.0191 15.6334C14.4672 15.3966 13.9679 15.0524 13.5503 14.6207Z" fill="#161616"/>
</svg>
