<svg width="5" height="5" viewBox="0 0 5 5" fill="none" xmlns="http://www.w3.org/2000/svg">
<path d="M2.33569 3.50317C2.98061 3.50317 3.50342 2.98037 3.50342 2.33545C3.50342 1.69053 2.98061 1.16772 2.33569 1.16772C1.69078 1.16772 1.16797 1.69053 1.16797 2.33545C1.16797 2.98037 1.69078 3.50317 2.33569 3.50317Z" fill="#353535"/>
<path d="M2.33545 0C1.87354 0 1.42201 0.136972 1.03794 0.393594C0.653881 0.650216 0.354541 1.01496 0.177776 1.44171C0.00101191 1.86846 -0.0452378 2.33804 0.044876 2.79107C0.13499 3.2441 0.35742 3.66024 0.684038 3.98686C1.01066 4.31348 1.42679 4.53591 1.87983 4.62602C2.33286 4.71614 2.80244 4.66989 3.22919 4.49312C3.65593 4.31636 4.02068 4.01702 4.2773 3.63295C4.53393 3.24889 4.6709 2.79736 4.6709 2.33545C4.6709 2.02875 4.61049 1.72506 4.49312 1.44171C4.37575 1.15836 4.20373 0.900903 3.98686 0.684037C3.76999 0.467171 3.51254 0.295143 3.22919 0.177775C2.94584 0.0604082 2.64214 0 2.33545 0ZM2.33545 3.97026C2.01211 3.97026 1.69604 3.87438 1.4272 3.69475C1.15835 3.51511 0.948813 3.25979 0.825078 2.96106C0.701343 2.66234 0.668968 2.33364 0.732048 2.01651C0.795128 1.69939 0.950829 1.40809 1.17946 1.17946C1.40809 0.950828 1.69939 0.795127 2.01651 0.732047C2.33364 0.668967 2.66234 0.701342 2.96107 0.825077C3.25979 0.948813 3.51511 1.15835 3.69475 1.42719C3.87438 1.69604 3.97026 2.01211 3.97026 2.33545C3.97026 2.76903 3.79802 3.18485 3.49144 3.49144C3.18485 3.79802 2.76903 3.97026 2.33545 3.97026Z" fill="#353535"/>
</svg>
