<svg width="23" height="14" viewBox="0 0 23 14" fill="none" xmlns="http://www.w3.org/2000/svg">
<path d="M11.5001 4.71428C12.368 4.71428 13.0715 4.3625 13.0715 3.92855C13.0715 3.4946 12.368 3.14282 11.5001 3.14282C10.6323 3.14282 9.92871 3.4946 9.92871 3.92855C9.92871 4.3625 10.6323 4.71428 11.5001 4.71428Z" fill="#6D1615"/>
<path fill-rule="evenodd" clip-rule="evenodd" d="M11.5 9.42831C11.3624 9.4284 11.2259 9.40391 11.0969 9.35604L5.60718 7.32811V10.9031C5.60765 11.0663 5.70901 11.2121 5.86177 11.2696L11.3617 13.3328C11.4502 13.3668 11.5482 13.3668 11.6367 13.3328L17.1367 11.2696C17.2904 11.2125 17.3925 11.0659 17.3928 10.9019V7.3269L11.9031 9.356C11.7741 9.40391 11.6376 9.4284 11.5 9.42831Z" fill="#6D1615"/>
<path fill-rule="evenodd" clip-rule="evenodd" d="M22.2406 3.94423L11.6297 0.0235896C11.5461 -0.0078632 11.454 -0.0078632 11.3704 0.0235896L0.7594 3.94423C0.603167 4.00409 0.5 4.15409 0.5 4.32141C0.5 4.48873 0.603167 4.63869 0.7594 4.69854L11.3704 8.61923C11.454 8.65064 11.5461 8.65064 11.6297 8.61923L17.6953 6.37998L12.5411 5.3389C12.2052 5.44916 11.8535 5.50356 11.5 5.49999C10.18 5.49999 9.14291 4.80859 9.14291 3.92859C9.14291 3.0486 10.18 2.3572 11.5 2.3572C12.2599 2.31861 13.0011 2.60083 13.5429 3.13506L20.7674 4.59254C21.0303 4.64617 21.2671 4.78745 21.4392 4.99326L22.2406 4.69863C22.3968 4.63877 22.5 4.48882 22.5 4.3215C22.5 4.15409 22.3969 4.00409 22.2406 3.94423Z" fill="#6D1615"/>
<path fill-rule="evenodd" clip-rule="evenodd" d="M20.5357 9.42847C21.1866 9.42847 21.7143 9.95612 21.7143 10.6071V12.1785C21.7143 12.3954 21.5384 12.5713 21.3215 12.5713H19.75C19.5331 12.5713 19.3572 12.3955 19.3572 12.1785V10.607C19.3571 9.95612 19.8848 9.42847 20.5357 9.42847Z" fill="#6D1615"/>
<path fill-rule="evenodd" clip-rule="evenodd" d="M20.9287 5.74748V8.68208C20.6694 8.62971 20.4023 8.62971 20.143 8.68208V6.06961L13.5312 4.73785C13.7183 4.5347 13.8318 4.27461 13.8534 3.99927L20.6144 5.36248C20.7973 5.39982 20.9287 5.56078 20.9287 5.74748Z" fill="#6D1615"/>
</svg>
