<svg width="19" height="19" viewBox="0 0 19 19" fill="none" xmlns="http://www.w3.org/2000/svg">
<path d="M8.41432 9.79884L10.1836 8.02954C9.78574 7.77557 9.31393 7.62769 8.8079 7.62769C7.3937 7.62769 6.24316 8.77822 6.24316 10.1924C6.24316 11.6066 7.3937 12.7572 8.8079 12.7572C10.2221 12.7572 11.3726 11.6066 11.3726 10.1924C11.3726 9.68644 11.2248 9.21459 10.9708 8.81671L9.20149 10.586L8.41432 9.79884Z" fill="white"/>
<path d="M17.6152 10.1925C17.6152 8.67981 17.2287 7.20056 16.4951 5.89145L14.302 6.19196C15.1221 7.3153 15.607 8.69822 15.607 10.1925C15.607 13.9417 12.5568 16.9919 8.80754 16.9919C5.05827 16.9919 2.0081 13.9417 2.0081 10.1925C2.0081 6.44323 5.05834 3.39302 8.80758 3.39302C10.3018 3.39302 11.6847 3.8779 12.8081 4.69805L13.1086 2.50496C11.7995 1.77131 10.3202 1.38489 8.80758 1.38489C6.45499 1.38489 4.2432 2.30104 2.5797 3.96458C0.916156 5.62809 0 7.83988 0 10.1925C0 12.5451 0.916156 14.7568 2.5797 16.4203C4.2432 18.0839 6.45495 19 8.80758 19C11.1602 19 13.372 18.0839 15.0355 16.4203C16.699 14.7568 17.6152 12.5451 17.6152 10.1925Z" fill="white"/>
<path d="M8.80729 4.50623C5.67192 4.50623 3.12109 7.05701 3.12109 10.1924C3.12109 13.3278 5.67188 15.8786 8.80729 15.8786C11.9427 15.8786 14.4935 13.3278 14.4935 10.1924C14.4935 8.82475 14.008 7.56842 13.2005 6.58639L11.7706 8.01633C12.2196 8.62611 12.4853 9.37876 12.4853 10.1924C12.4853 12.2205 10.8354 13.8704 8.80733 13.8704C6.77926 13.8704 5.1293 12.2205 5.1293 10.1924C5.1293 8.16436 6.77926 6.5144 8.80733 6.5144C9.62099 6.5144 10.3736 6.78014 10.9834 7.22916L12.4134 5.79923C11.4313 4.99165 10.175 4.50623 8.80729 4.50623Z" fill="white"/>
<path d="M16.7107 0L14.2366 2.47412L13.873 5.12707L16.526 4.76351L19.0001 2.28939L17.3301 1.67L16.7107 0Z" fill="white"/>
</svg>
