<svg width="15" height="19" viewBox="0 0 15 19" fill="none" xmlns="http://www.w3.org/2000/svg">
<path fill-rule="evenodd" clip-rule="evenodd" d="M2.86502 0L11.3493 1.76145L14.5052 4.90269V16.7778C14.5052 16.9099 14.4025 16.998 14.2557 17.0126L2.86502 18.7888C2.73291 18.8034 2.61548 18.686 2.61548 18.5539V0.249538C2.61548 0.11743 2.71823 0 2.86502 0Z" fill="url(#paint0_linear_46_8027)"/>
<path opacity="0.2" fill-rule="evenodd" clip-rule="evenodd" d="M2.9668 0.0146484L3.11358 0.0440059L3.15762 0.0586846V18.7447L2.9668 18.7741V0.0146484ZM3.46587 0.117399L3.55395 0.146757V18.686L3.36312 18.7153V0.102721L3.46587 0.117399ZM3.93559 18.6126L3.74477 18.6419V0.176114L3.93559 0.22015V18.6126Z" fill="black"/>
<path opacity="0.4" fill-rule="evenodd" clip-rule="evenodd" d="M2.63016 8.46966L2.61548 1.04224L9.67594 2.40736C10.0429 2.48075 10.3512 2.71561 10.3512 3.08258V5.97428C10.3512 6.34125 10.0576 6.60547 9.69062 6.69354L2.63016 8.46966Z" fill="black"/>
<path opacity="0.4" fill-rule="evenodd" clip-rule="evenodd" d="M11.1709 1.76147H11.3324L14.4883 4.90272V5.06419H11.6994C11.4058 5.06419 11.1562 4.82933 11.1562 4.52107V1.76147H11.1709Z" fill="black"/>
<path fill-rule="evenodd" clip-rule="evenodd" d="M0.514372 0.64575L9.83536 2.4072C10.1143 2.46591 10.3491 2.64206 10.3491 2.92095V5.95945C10.3491 6.23834 10.1143 6.42916 9.83536 6.4732L0.514372 8.264C0.235476 8.32272 0.000616743 8.02914 0.000616743 7.75025V1.15951C-0.014062 0.88061 0.235476 0.587036 0.514372 0.64575Z" fill="url(#paint1_linear_46_8027)"/>
<path fill-rule="evenodd" clip-rule="evenodd" d="M14.4902 4.90272H11.7012C11.4957 4.90272 11.3342 4.74125 11.3342 4.53575V1.76147L14.4902 4.90272Z" fill="url(#paint2_linear_46_8027)"/>
<path d="M2.37695 6.06217V2.90625H3.08153C3.40446 2.90625 3.63932 2.99432 3.78611 3.17047C3.94758 3.34661 4.02097 3.61083 4.02097 3.96312C4.02097 4.30073 3.9329 4.55027 3.75675 4.74109C3.58061 4.93191 3.34575 5.01998 3.0375 5.01998H2.97878V6.04749H2.37695V6.06217ZM2.99346 3.37597V4.53559H3.02282C3.15492 4.53559 3.25768 4.49155 3.31639 4.3888C3.38978 4.28605 3.41914 4.13926 3.41914 3.94844C3.41914 3.75762 3.38978 3.62551 3.31639 3.52276C3.243 3.43468 3.14025 3.37597 2.99346 3.37597Z" fill="white"/>
<path d="M4.41797 6.06217V2.90625H5.03447C5.46016 2.90625 5.75373 3.02368 5.94456 3.25854C6.13538 3.4934 6.22345 3.87505 6.22345 4.40348C6.22345 4.97595 6.13538 5.38695 5.94456 5.65117C5.76841 5.91539 5.47484 6.04749 5.07851 6.04749H4.41797V6.06217ZM5.0198 5.5631H5.03447C5.23998 5.5631 5.37209 5.4897 5.46016 5.32824C5.54823 5.16677 5.57759 4.88788 5.57759 4.49155C5.57759 4.08055 5.53355 3.80165 5.46016 3.64019C5.37209 3.47872 5.23998 3.40533 5.03447 3.40533H5.00512V5.5631H5.0198Z" fill="white"/>
<path d="M6.63379 6.06217V2.90625H7.95487V3.40533H7.2503V4.15394H7.95487V4.63834H7.2503V6.04749H6.63379V6.06217Z" fill="white"/>
<path fill-rule="evenodd" clip-rule="evenodd" d="M8.2224 11.9485L8.76551 12.5797C8.85359 12.6677 8.95634 12.7558 9.05909 12.8439C9.22055 12.976 9.38202 13.1081 9.54349 13.2402C9.70495 13.3723 9.8811 13.4897 10.0572 13.6072C10.116 13.6365 10.2921 13.7539 10.3508 13.7539C10.5857 13.7539 10.8205 13.7393 11.0554 13.7246C11.393 13.7099 11.7306 13.6952 12.0682 13.6952C12.4646 13.6952 12.9049 13.7099 13.3012 13.798C13.5948 13.8567 13.9911 13.9888 14.1232 14.2971C14.1379 14.3411 14.1526 14.3998 14.1673 14.4585C14.182 14.62 14.1526 14.7668 14.0645 14.8989C13.9177 15.1044 13.6682 15.2218 13.4333 15.2659C13.0957 15.3246 12.6701 15.2659 12.3324 15.2071C11.9948 15.1484 11.6425 15.0604 11.3049 14.9429C11.0994 14.8842 10.9086 14.7961 10.7178 14.7081C10.571 14.6494 10.4389 14.5906 10.2921 14.5319C10.2334 14.5026 10.1306 14.4585 10.0572 14.4438C9.66091 14.4438 9.23523 14.5026 8.83891 14.576C8.41322 14.664 7.98754 14.7668 7.57654 14.8842C7.38571 14.9429 6.96003 15.031 6.85728 15.1925C6.53435 15.6475 6.1527 16.2493 5.62427 16.4842C5.22794 16.6603 4.7729 16.5282 4.55272 16.1466C4.49401 16.0438 4.46465 15.9264 4.47933 15.809C4.55272 15.2805 5.41876 14.9723 5.85913 14.7815C5.99124 14.7227 6.12334 14.6787 6.25545 14.6347C6.31417 14.62 6.37288 14.5906 6.4316 14.5613C6.47563 14.5319 6.50499 14.4732 6.53435 14.4292C6.68113 14.1796 6.81324 13.9301 6.93067 13.6659C6.97471 13.5484 7.01875 13.4163 7.0481 13.2989C7.10682 13.1228 7.15085 12.9319 7.19489 12.7411C7.23893 12.5503 7.34168 12.0365 7.29764 11.8457C7.26828 11.8017 7.23893 11.7576 7.20957 11.7136C7.15085 11.6109 7.07746 11.5081 7.01875 11.42C6.8426 11.1411 6.68113 10.8476 6.53435 10.554C6.3582 10.2164 6.1527 9.77602 6.10866 9.39437C6.04995 8.90997 6.21142 8.6164 6.68113 8.45493C6.87196 8.39622 7.06278 8.38154 7.25361 8.46961C7.738 8.70447 7.88479 9.48244 7.9435 9.98152C7.98754 10.3632 7.98754 10.7595 7.98754 11.1411V11.5081C7.98754 11.5521 7.98754 11.6109 8.00222 11.6402C8.0169 11.6696 8.03158 11.7136 8.06093 11.743C8.11965 11.8164 8.17836 11.8751 8.2224 11.9485ZM7.29764 10.51C7.26828 10.0256 7.20957 9.49712 7.06278 9.21823C7.03342 9.15951 6.93067 9.08612 6.85728 9.1008C6.81324 9.11547 6.81324 9.2329 6.81324 9.26226C6.81324 9.52648 6.97471 9.87877 7.09214 10.0989C7.16553 10.2311 7.23893 10.3778 7.29764 10.51ZM11.8774 14.3851C12.2444 14.4879 12.626 14.576 12.9783 14.576C13.1104 14.576 13.2425 14.576 13.36 14.5466C13.3746 14.5466 13.3893 14.5319 13.4187 14.5319C13.36 14.5026 13.2866 14.4879 13.2572 14.4732C13.0957 14.4292 12.9049 14.4145 12.7434 14.3998C12.5233 14.3851 12.3031 14.3705 12.0829 14.3705C12.0242 14.3851 11.9508 14.3851 11.8774 14.3851ZM7.42975 14.2383C7.59122 14.1943 7.738 14.1503 7.89947 14.1062C8.25176 14.0035 8.61873 13.9301 8.98569 13.8714C9.07377 13.8567 9.14716 13.8567 9.23523 13.842L9.10312 13.7393C8.88294 13.5925 8.64808 13.3723 8.45726 13.1815C8.28112 13.0053 8.10497 12.8292 7.9435 12.6384C7.84075 13.2108 7.66461 13.7246 7.42975 14.2383ZM5.6683 15.6475C5.65362 15.6622 5.62427 15.6622 5.60959 15.6769C5.53619 15.7062 5.34537 15.809 5.2573 15.8824H5.28666C5.40409 15.897 5.56555 15.7503 5.6683 15.6475Z" fill="url(#paint3_linear_46_8027)"/>
<path fill-rule="evenodd" clip-rule="evenodd" d="M6.27001 15.1927C6.12323 15.3982 5.50672 16.367 5.08104 16C4.86086 15.8092 5.40397 15.5597 5.53608 15.501C5.75626 15.3982 6.03515 15.2661 6.27001 15.1927ZM7.06266 14.5468C7.40027 13.8569 7.72321 13.1377 7.78192 12.1982L8.01678 12.4478C8.29568 12.7414 8.85347 13.3579 9.20576 13.578L9.71951 13.9597C9.5874 14.0037 9.1764 14.0331 9.00025 14.0478C8.19293 14.1799 7.78192 14.3413 7.06266 14.5468ZM13.3158 14.2973C14.1672 14.4881 13.6241 15.178 11.4663 14.4588C11.3635 14.4294 11.2755 14.3854 11.158 14.356C11.0406 14.312 10.9378 14.2973 10.8645 14.2239C11.4516 14.1799 12.714 14.1652 13.3158 14.2973ZM7.5177 11.2148C7.3856 11.0827 7.04798 10.4368 6.91588 10.2019C6.18194 8.74874 7.00395 8.74874 7.22413 9.13039C7.50302 9.58543 7.5177 10.6717 7.5177 11.2148ZM6.76909 8.64599C6.44616 8.76342 6.28469 8.93956 6.32873 9.37993C6.43148 10.2166 7.47367 11.6992 7.50302 11.7872C7.62045 12.1542 7.26817 13.4166 7.13606 13.7542C7.01863 14.0624 6.87184 14.2973 6.72505 14.5468C6.56359 14.8257 6.47551 14.7817 5.96176 14.9872C5.58011 15.1487 4.44985 15.545 4.74343 16.0734C4.87553 16.323 5.21315 16.4844 5.56543 16.323C6.03515 16.1028 6.4168 15.5156 6.71037 15.0899C6.87184 14.8698 7.26817 14.7964 7.53238 14.7083C8.19293 14.5028 9.35254 14.2386 10.0865 14.2533C10.2039 14.2533 11.0259 14.6349 11.3782 14.7523C11.892 14.9138 12.8314 15.1633 13.4039 15.0606C13.7121 15.0166 14.0204 14.8111 13.991 14.4588C13.9029 13.6368 11.0993 13.9303 10.3654 13.945C10.0424 13.945 8.85347 12.9469 8.61861 12.712L8.0755 12.0661C7.78192 11.6551 7.81128 11.7579 7.81128 11.1414C7.81128 10.7744 7.7966 10.3634 7.76724 9.99643C7.69385 9.40928 7.47367 8.39645 6.76909 8.64599Z" fill="white"/>
<defs>
<linearGradient id="paint0_linear_46_8027" x1="8.5539" y1="-12.0304" x2="8.5539" y2="30.8191" gradientUnits="userSpaceOnUse">
<stop stop-color="#D74A4B"/>
<stop offset="1" stop-color="#891719"/>
</linearGradient>
<linearGradient id="paint1_linear_46_8027" x1="5.16738" y1="-8.03187" x2="5.16738" y2="15.8792" gradientUnits="userSpaceOnUse">
<stop stop-color="#E15355"/>
<stop offset="1" stop-color="#CD1F26"/>
</linearGradient>
<linearGradient id="paint2_linear_46_8027" x1="12.9195" y1="10.0641" x2="12.9195" y2="-3.3956" gradientUnits="userSpaceOnUse">
<stop stop-color="#E15355"/>
<stop offset="1" stop-color="#CD1F26"/>
</linearGradient>
<linearGradient id="paint3_linear_46_8027" x1="9.34386" y1="-10.9047" x2="9.34386" y2="35.8947" gradientUnits="userSpaceOnUse">
<stop stop-color="#D74A4B"/>
<stop offset="1" stop-color="#891719"/>
</linearGradient>
</defs>
</svg>
