<svg width="12" height="13" viewBox="0 0 12 13" fill="none" xmlns="http://www.w3.org/2000/svg">
<path d="M0.0231875 3.264C0.0231875 2.432 0.263188 1.79733 0.743188 1.36C1.22319 0.912 1.82585 0.688 2.55119 0.688C3.26585 0.688 3.86319 0.912 4.34319 1.36C4.82319 1.79733 5.06319 2.432 5.06319 3.264C5.06319 4.096 4.82319 4.736 4.34319 5.184C3.86319 5.632 3.26585 5.856 2.55119 5.856C1.82585 5.856 1.22319 5.632 0.743188 5.184C0.263188 4.736 0.0231875 4.096 0.0231875 3.264ZM2.53519 1.984C2.25785 1.984 2.03385 2.08533 1.86319 2.288C1.70319 2.48 1.62319 2.80533 1.62319 3.264C1.62319 3.712 1.70319 4.04267 1.86319 4.256C2.03385 4.45867 2.25785 4.56 2.53519 4.56C2.81252 4.56 3.03652 4.45867 3.20719 4.256C3.37785 4.04267 3.46319 3.712 3.46319 3.264C3.46319 2.80533 3.37785 2.48 3.20719 2.288C3.03652 2.08533 2.81252 1.984 2.53519 1.984ZM8.08719 0.799999H10.1992L3.89519 12H1.78319L8.08719 0.799999ZM6.95119 9.52C6.95119 8.688 7.19119 8.05333 7.67119 7.616C8.15119 7.168 8.75385 6.944 9.47919 6.944C10.1832 6.944 10.7752 7.168 11.2552 7.616C11.7352 8.05333 11.9752 8.688 11.9752 9.52C11.9752 10.3627 11.7352 11.008 11.2552 11.456C10.7752 11.8933 10.1832 12.112 9.47919 12.112C8.75385 12.112 8.15119 11.8933 7.67119 11.456C7.19119 11.008 6.95119 10.3627 6.95119 9.52ZM9.46319 8.24C9.17519 8.24 8.94585 8.34133 8.77519 8.544C8.61519 8.74667 8.53519 9.072 8.53519 9.52C8.53519 9.968 8.61519 10.2933 8.77519 10.496C8.94585 10.6987 9.17519 10.8 9.46319 10.8C9.74052 10.8 9.95919 10.6987 10.1192 10.496C10.2899 10.2933 10.3752 9.968 10.3752 9.52C10.3752 9.072 10.2899 8.74667 10.1192 8.544C9.95919 8.34133 9.74052 8.24 9.46319 8.24Z" fill="url(#paint0_linear_241_57)"/>
<defs>
<linearGradient id="paint0_linear_241_57" x1="6" y1="-6" x2="6" y2="18" gradientUnits="userSpaceOnUse">
<stop stop-color="#872927"/>
<stop offset="1" stop-color="#090909"/>
</linearGradient>
</defs>
</svg>
