<svg width="27" height="35" viewBox="0 0 27 35" fill="none" xmlns="http://www.w3.org/2000/svg">
<g filter="url(#filter0_d_46_7072)">
<path fill-rule="evenodd" clip-rule="evenodd" d="M4.2014 12.1266C4.08324 11.5461 4.02158 10.9451 4.02158 10.3286C4.02158 8.47914 4.5764 6.76327 5.53194 5.32996C6.83682 3.3675 8.88664 1.93933 11.2755 1.45642C11.856 1.33826 12.4571 1.27661 13.0735 1.27661C14.923 1.27661 16.6388 1.83657 18.0722 2.78698C20.0346 4.09186 21.4576 6.13652 21.9457 8.52537C22.0587 9.11103 22.1255 9.71209 22.1255 10.3286C22.1255 12.1729 21.5707 13.8939 20.6203 15.3272C19.3154 17.2896 17.2656 18.7127 14.8767 19.2007C14.2911 19.3189 13.69 19.3805 13.0735 19.3805C11.2241 19.3805 9.50825 18.8257 8.07493 17.8702C6.11247 16.5704 4.68431 14.5206 4.2014 12.1266Z" fill="#F6E98C"/>
<path fill-rule="evenodd" clip-rule="evenodd" d="M19.1156 14.6223H7.06085V26.3434C7.06085 26.5715 7.17898 26.7826 7.37186 26.9021C7.56473 27.0216 7.80704 27.0325 8.00956 26.93C8.57372 26.6491 9.32473 26.2735 10.0745 25.8979C10.2614 25.8048 10.394 25.4665 10.5772 25.3749C10.7291 25.2988 10.9328 25.4696 11.0787 25.3966C12.1853 24.8425 13.0882 24.3924 13.0882 24.3924C13.0882 24.3924 13.9911 24.8425 15.0977 25.3966C15.2605 25.4789 15.4292 25.3563 15.5992 25.4416C15.7656 25.5239 15.9343 25.8141 16.1019 25.8979C16.8517 26.2735 17.6027 26.6491 18.1669 26.93C18.3694 27.0325 18.6117 27.0216 18.8046 26.9021C18.9975 26.7826 19.1156 26.5715 19.1156 26.3434C19.1156 23.2781 19.1156 14.6223 19.1156 14.6223Z" fill="url(#paint0_linear_46_7072)"/>
<path fill-rule="evenodd" clip-rule="evenodd" d="M10.0747 25.913V15.9043H11.0793V25.4133L10.0747 25.913Z" fill="url(#paint1_linear_46_7072)"/>
<path fill-rule="evenodd" clip-rule="evenodd" d="M15.0977 25.4133V15.9043H16.1022V25.913L15.0977 25.4133Z" fill="url(#paint2_linear_46_7072)"/>
<path fill-rule="evenodd" clip-rule="evenodd" d="M4.24596 12.139C4.12792 11.559 4.06631 10.9585 4.06631 10.3427C4.06631 8.49504 4.6206 6.78086 5.5752 5.34894C6.87881 3.3884 8.92662 1.96163 11.3131 1.47919C11.8931 1.36115 12.4936 1.29956 13.1094 1.29956C14.9571 1.29956 16.6713 1.85897 18.1032 2.80845C20.0637 4.11206 21.4853 6.15471 21.9729 8.54123C22.0858 9.12632 22.1526 9.72679 22.1526 10.3427C22.1526 12.1852 21.5983 13.9045 20.6488 15.3364C19.3452 17.2969 17.2974 18.7186 14.9109 19.2062C14.3258 19.3242 13.7253 19.3858 13.1094 19.3858C11.2618 19.3858 9.54762 18.8315 8.11571 17.8769C6.15517 16.5784 4.7284 14.5306 4.24596 12.139Z" fill="#F6E98C"/>
<path fill-rule="evenodd" clip-rule="evenodd" d="M18.1135 2.7871C20.0754 4.08914 21.5015 6.13522 21.9868 8.52173L13.8648 8.52944L12.3714 8.53104L18.1135 2.7871Z" fill="url(#paint3_linear_46_7072)"/>
<path fill-rule="evenodd" clip-rule="evenodd" d="M21.9862 8.52169C22.1047 9.10427 22.1669 9.70669 22.1677 10.3239C22.1692 12.1696 21.6166 13.8877 20.667 15.3202L14.9209 9.58315L13.8643 8.5294L21.9862 8.52169Z" fill="url(#paint4_linear_46_7072)"/>
<path fill-rule="evenodd" clip-rule="evenodd" d="M20.6516 15.2965C19.3517 17.2582 17.3069 18.6843 14.921 19.1693L14.9144 11.0584L14.9126 9.56803L20.6516 15.2965Z" fill="url(#paint5_linear_46_7072)"/>
<path fill-rule="evenodd" clip-rule="evenodd" d="M14.9044 19.2358C14.3227 19.3542 13.7206 19.4165 13.1039 19.4171C11.2577 19.4188 9.53905 18.8664 8.10582 17.9165L13.8431 12.1701L14.897 11.1131L14.9044 19.2358Z" fill="url(#paint6_linear_46_7072)"/>
<path fill-rule="evenodd" clip-rule="evenodd" d="M8.12644 17.9026C6.16476 16.6027 4.73863 14.5579 4.25365 12.1721L12.3647 12.1658L13.8552 12.1631L8.12644 17.9026Z" fill="url(#paint7_linear_46_7072)"/>
<path fill-rule="evenodd" clip-rule="evenodd" d="M4.18364 12.1543C4.06545 11.5731 4.00332 10.9715 4.00242 10.3556C4.00026 8.50831 4.55281 6.78932 5.50288 5.35573L12.3062 12.1472L4.18364 12.1543Z" fill="url(#paint8_linear_46_7072)"/>
<path fill-rule="evenodd" clip-rule="evenodd" d="M5.51472 5.37247C6.81431 3.41094 8.85908 1.98482 11.2449 1.49983L11.252 9.60974L12.3091 12.1537L5.51472 5.37247Z" fill="url(#paint9_linear_46_7072)"/>
<path fill-rule="evenodd" clip-rule="evenodd" d="M11.2648 1.42523C11.8455 1.30725 12.4467 1.24498 13.0618 1.24413C14.9094 1.24126 16.6291 1.79411 18.063 2.74433L11.2723 9.54667L11.2648 1.42523Z" fill="url(#paint10_linear_46_7072)"/>
<path fill-rule="evenodd" clip-rule="evenodd" d="M6.31346 11.7076C6.22324 11.2643 6.17615 10.8053 6.17615 10.3346C6.17615 8.92238 6.59981 7.61217 7.32945 6.5177C8.32584 5.01919 9.89106 3.92865 11.7152 3.55991C12.1584 3.46968 12.6174 3.42261 13.0881 3.42261C14.5004 3.42261 15.8106 3.85019 16.905 4.57591C18.4035 5.5723 19.4902 7.13358 19.8628 8.95769C19.9491 9.40489 20.0001 9.86386 20.0001 10.3346C20.0001 11.7429 19.5765 13.057 18.8508 14.1515C17.8544 15.65 16.2891 16.7366 14.465 17.1093C14.0178 17.1995 13.5589 17.2466 13.0881 17.2466C11.6759 17.2466 10.3657 16.8229 9.27125 16.0933C7.77274 15.1008 6.6822 13.5356 6.31346 11.7076Z" fill="url(#paint11_linear_46_7072)"/>
<path fill-rule="evenodd" clip-rule="evenodd" d="M12.731 5.69683C12.7944 5.55284 12.9376 5.45972 13.0949 5.45972C13.2522 5.45972 13.3954 5.55284 13.4588 5.69683C13.9041 6.70476 14.5998 8.28004 14.5998 8.28004C14.5998 8.28004 16.312 8.45455 17.4083 8.56645C17.5656 8.5821 17.6979 8.68931 17.7464 8.83956C17.7949 8.98903 17.7511 9.15337 17.6337 9.25823C16.812 9.99383 15.5294 11.1418 15.5294 11.1418C15.5294 11.1418 15.8925 12.8243 16.125 13.9019C16.1578 14.0561 16.0976 14.2149 15.97 14.3073C15.8425 14.4004 15.6726 14.409 15.5357 14.33C14.5833 13.7759 13.0949 12.9104 13.0949 12.9104C13.0949 12.9104 11.6065 13.7759 10.6541 14.33C10.5172 14.409 10.3474 14.4004 10.2198 14.3073C10.0923 14.2149 10.032 14.0561 10.0649 13.9019C10.2973 12.8243 10.6604 11.1418 10.6604 11.1418C10.6604 11.1418 9.37779 9.99383 8.55611 9.25823C8.43873 9.15337 8.39491 8.98903 8.44342 8.83956C8.49194 8.68931 8.6242 8.5821 8.78149 8.56645C9.87784 8.45455 11.5901 8.28004 11.5901 8.28004C11.5901 8.28004 12.2858 6.70476 12.731 5.69683Z" fill="url(#paint12_radial_46_7072)"/>
</g>
<defs>
<filter id="filter0_d_46_7072" x="0.00241089" y="1.24414" width="26.1653" height="33.7559" filterUnits="userSpaceOnUse" color-interpolation-filters="sRGB">
<feFlood flood-opacity="0" result="BackgroundImageFix"/>
<feColorMatrix in="SourceAlpha" type="matrix" values="0 0 0 0 0 0 0 0 0 0 0 0 0 0 0 0 0 0 127 0" result="hardAlpha"/>
<feOffset dy="4"/>
<feGaussianBlur stdDeviation="2"/>
<feComposite in2="hardAlpha" operator="out"/>
<feColorMatrix type="matrix" values="0 0 0 0 0 0 0 0 0 0 0 0 0 0 0 0 0 0 0.33 0"/>
<feBlend mode="normal" in2="BackgroundImageFix" result="effect1_dropShadow_46_7072"/>
<feBlend mode="normal" in="SourceGraphic" in2="effect1_dropShadow_46_7072" result="shape"/>
</filter>
<linearGradient id="paint0_linear_46_7072" x1="13.0882" y1="25.9072" x2="13.0882" y2="18.3659" gradientUnits="userSpaceOnUse">
<stop stop-color="#FF696A"/>
<stop offset="1" stop-color="#E70002"/>
</linearGradient>
<linearGradient id="paint1_linear_46_7072" x1="10.577" y1="26.5641" x2="10.577" y2="17.9939" gradientUnits="userSpaceOnUse">
<stop stop-color="#F9F295"/>
<stop offset="1" stop-color="#CF8321"/>
</linearGradient>
<linearGradient id="paint2_linear_46_7072" x1="15.6" y1="26.5641" x2="15.6" y2="17.9939" gradientUnits="userSpaceOnUse">
<stop stop-color="#F9F295"/>
<stop offset="1" stop-color="#CF8321"/>
</linearGradient>
<linearGradient id="paint3_linear_46_7072" x1="15.4725" y1="3.54804" x2="17.531" y2="9.58978" gradientUnits="userSpaceOnUse">
<stop stop-color="#CF8321"/>
<stop offset="1" stop-color="#F9F295"/>
</linearGradient>
<linearGradient id="paint4_linear_46_7072" x1="20.8226" y1="8.07742" x2="18.0194" y2="13.6478" gradientUnits="userSpaceOnUse">
<stop stop-color="#CF8321"/>
<stop offset="1" stop-color="#F9F295"/>
</linearGradient>
<linearGradient id="paint5_linear_46_7072" x1="20.1444" y1="14.163" x2="13.9252" y2="17.2835" gradientUnits="userSpaceOnUse">
<stop stop-color="#CF8321"/>
<stop offset="1" stop-color="#F9F295"/>
</linearGradient>
<linearGradient id="paint6_linear_46_7072" x1="15.3486" y1="18.0721" x2="8.73533" y2="15.8778" gradientUnits="userSpaceOnUse">
<stop stop-color="#CF8321"/>
<stop offset="1" stop-color="#F9F295"/>
</linearGradient>
<linearGradient id="paint7_linear_46_7072" x1="9.26037" y1="17.3952" x2="6.13988" y2="11.1761" gradientUnits="userSpaceOnUse">
<stop stop-color="#CF8321"/>
<stop offset="1" stop-color="#F9F295"/>
</linearGradient>
<linearGradient id="paint8_linear_46_7072" x1="5.34765" y1="12.5987" x2="7.54212" y2="5.98503" gradientUnits="userSpaceOnUse">
<stop stop-color="#CF8321"/>
<stop offset="1" stop-color="#F9F295"/>
</linearGradient>
<linearGradient id="paint9_linear_46_7072" x1="6.18511" y1="6.89804" x2="12.3756" y2="3.70851" gradientUnits="userSpaceOnUse">
<stop stop-color="#CF8321"/>
<stop offset="1" stop-color="#F9F295"/>
</linearGradient>
<linearGradient id="paint10_linear_46_7072" x1="9.34081" y1="2.7476" x2="18.0761" y2="5.27749" gradientUnits="userSpaceOnUse">
<stop stop-color="#CF8321"/>
<stop offset="1" stop-color="#F9F295"/>
</linearGradient>
<linearGradient id="paint11_linear_46_7072" x1="9.03196" y1="4.93681" x2="17.7563" y2="16.411" gradientUnits="userSpaceOnUse">
<stop stop-color="#CF8321"/>
<stop offset="0.5" stop-color="#F9F295"/>
<stop offset="1" stop-color="#CF8321"/>
</linearGradient>
<radialGradient id="paint12_radial_46_7072" cx="0" cy="0" r="1" gradientUnits="userSpaceOnUse" gradientTransform="translate(10.8373 5.3439) rotate(64.476) scale(11.9229)">
<stop stop-color="#FF9629"/>
<stop offset="1" stop-color="#732300"/>
</radialGradient>
</defs>
</svg>
