<svg width="18" height="18" viewBox="0 0 18 18" fill="none" xmlns="http://www.w3.org/2000/svg">
<g filter="url(#filter0_d_46_7454)">
<path d="M15.8398 13.0662L11.8899 9.11638C13.6895 6.92683 13.5671 3.67651 11.5221 1.63158C9.3467 -0.54386 5.80702 -0.54386 3.63158 1.63158C1.45614 3.80702 1.45614 7.3467 3.63158 9.52214C5.67596 11.5665 8.92588 11.6903 11.1164 9.88994L15.0662 13.8398C15.2799 14.0534 15.6262 14.0534 15.8398 13.8398C16.0534 13.6262 16.0534 13.2799 15.8398 13.0662ZM10.7486 8.74858C8.9997 10.4975 6.15404 10.4975 4.40514 8.74858C2.65623 6.99968 2.65623 4.15401 4.40514 2.40511C6.15399 0.656284 8.99965 0.656147 10.7486 2.40511C12.4975 4.15401 12.4975 6.99968 10.7486 8.74858Z" fill="white"/>
<path d="M10.2549 5.02996H8.12369V2.89879C8.12369 2.5967 7.8788 2.35181 7.5767 2.35181C7.27461 2.35181 7.02972 2.5967 7.02972 2.89879V5.02996H4.89855C4.59645 5.02996 4.35156 5.27485 4.35156 5.57695C4.35156 5.87904 4.59645 6.12393 4.89855 6.12393H7.02972V8.2551C7.02972 8.5572 7.27461 8.80209 7.5767 8.80209C7.8788 8.80209 8.12369 8.5572 8.12369 8.2551V6.12393H10.2549C10.557 6.12393 10.8018 5.87904 10.8018 5.57695C10.8018 5.27485 10.557 5.02996 10.2549 5.02996Z" fill="white"/>
</g>
<defs>
<filter id="filter0_d_46_7454" x="0.9" y="0" width="16.2" height="17.1" filterUnits="userSpaceOnUse" color-interpolation-filters="sRGB">
<feFlood flood-opacity="0" result="BackgroundImageFix"/>
<feColorMatrix in="SourceAlpha" type="matrix" values="0 0 0 0 0 0 0 0 0 0 0 0 0 0 0 0 0 0 127 0" result="hardAlpha"/>
<feOffset dy="2"/>
<feGaussianBlur stdDeviation="0.55"/>
<feComposite in2="hardAlpha" operator="out"/>
<feColorMatrix type="matrix" values="0 0 0 0 0 0 0 0 0 0 0 0 0 0 0 0 0 0 0.25 0"/>
<feBlend mode="normal" in2="BackgroundImageFix" result="effect1_dropShadow_46_7454"/>
<feBlend mode="normal" in="SourceGraphic" in2="effect1_dropShadow_46_7454" result="shape"/>
</filter>
</defs>
</svg>
