<svg width="19" height="18" viewBox="0 0 19 18" fill="none" xmlns="http://www.w3.org/2000/svg">
<path d="M6.27861 9.7732C4.80333 9.77325 3.3654 9.32406 2.2212 8.48738C0.809628 7.45515 0 5.94988 0 4.35761V2.87067C0 2.6988 0.0780153 2.53718 0.219609 2.41579C0.360739 2.29486 0.548163 2.22827 0.747374 2.22827C0.748037 2.22827 0.748699 2.22827 0.749361 2.22827L5.27984 2.23681C5.56243 2.23732 5.79104 2.43463 5.79045 2.67752C5.78978 2.92001 5.56077 3.11629 5.27878 3.11629C5.27838 3.11629 5.27798 3.11629 5.27758 3.11629L1.02348 3.10827L1.02341 4.35755C1.02341 5.69151 1.70171 6.95263 2.8844 7.81749C4.05801 8.67569 5.60091 9.04691 7.11665 8.83561C7.16923 8.82827 7.22215 8.82058 7.27559 8.81256C7.55428 8.77107 7.81919 8.93065 7.86793 9.16984C7.91667 9.40909 7.73051 9.63695 7.45216 9.67884C7.39447 9.68749 7.33718 9.69586 7.28043 9.70377C6.94671 9.75032 6.6116 9.7732 6.27861 9.7732Z" fill="#FFB125"/>
<path d="M12.0952 9.77314C11.7621 9.77314 11.4272 9.75026 11.0933 9.70376C11.0365 9.69585 10.9793 9.68749 10.9216 9.67884C10.6432 9.63695 10.4571 9.40903 10.5058 9.16984C10.5545 8.93059 10.8201 8.77096 11.0981 8.81256C11.1515 8.82064 11.2045 8.82832 11.2571 8.83561C12.7732 9.04674 14.3157 8.67569 15.4893 7.81749C16.672 6.95269 17.3503 5.69157 17.3503 4.35755V3.10827L13.0962 3.11629C13.0958 3.11629 13.0954 3.11629 13.095 3.11629C12.813 3.11629 12.5839 2.92007 12.5834 2.67752C12.5827 2.43463 12.8113 2.23732 13.094 2.23681L17.6246 2.22827C17.6253 2.22827 17.626 2.22827 17.6266 2.22827C17.8257 2.22827 18.0131 2.2948 18.1543 2.41579C18.2958 2.53723 18.3739 2.69874 18.3739 2.87067V4.35761C18.3739 5.94988 17.5643 7.45515 16.1527 8.48738C15.0085 9.32395 13.5704 9.77314 12.0952 9.77314Z" fill="#FFB125"/>
<path d="M5.82227 16.1461H12.5515C9.76411 13.1086 10.055 8.73096 10.055 8.73096H9.18694H8.3189C8.3189 8.73096 8.60977 13.1086 5.82227 16.1461Z" fill="#FED130"/>
<path d="M10.0552 8.73096H9.18717H8.31913C8.31913 8.73096 8.36417 9.41063 8.24834 10.4201C8.02754 12.3443 8.58298 14.2853 9.89349 15.857C9.97482 15.9546 10.0591 16.051 10.1463 16.146H12.5519C9.76434 13.1086 10.0552 8.73096 10.0552 8.73096Z" fill="#F7BC14"/>
<path d="M4.11133 0.968262V4.80461C4.11133 7.07428 5.36667 9.20885 7.49316 10.5551C8.50074 11.193 9.87416 11.193 10.8817 10.5551C13.0082 9.20891 14.2636 7.07428 14.2636 4.80461V0.968262H4.11133Z" fill="#FED130"/>
<path d="M11.8462 0.968262V4.8046C11.8462 7.07428 10.5908 9.20885 8.46436 10.5551C8.31012 10.6528 8.14726 10.7353 7.97852 10.803C8.91219 11.1779 10.0279 11.0954 10.8813 10.5551C13.0077 9.20891 14.2631 7.07428 14.2631 4.8046V0.968262H11.8462Z" fill="#F7BC14"/>
<path d="M14.6257 1.56752H3.74612C3.58214 1.56752 3.44922 1.4533 3.44922 1.3124V0.255126C3.44922 0.114218 3.58214 0 3.74612 0H14.6257C14.7896 0 14.9226 0.114218 14.9226 0.255126V1.3124C14.9225 1.4533 14.7896 1.56752 14.6257 1.56752Z" fill="#FFB125"/>
<path d="M14.6259 0H12.5059V1.56746H14.6259C14.7899 1.56746 14.9228 1.45325 14.9228 1.31234V0.255069C14.9228 0.114218 14.7898 0 14.6259 0Z" fill="#FF901D"/>
<path d="M14.9601 18.0001H3.46039C3.29369 18.0001 3.178 17.8574 3.23575 17.7231L4.08975 15.7346C4.12445 15.6538 4.21412 15.6001 4.31439 15.6001H14.1061C14.2064 15.6001 14.296 15.6538 14.3307 15.7346L15.1847 17.7231C15.2425 17.8574 15.1268 18.0001 14.9601 18.0001Z" fill="#FFB125"/>
<path d="M15.1838 17.7231L14.3298 15.7346C14.295 15.6538 14.2054 15.6001 14.1051 15.6001H11.7695L12.8003 18.0001H14.9591C15.1258 18.0001 15.2415 17.8574 15.1838 17.7231Z" fill="#FF901D"/>
</svg>
