<svg width="17" height="13" viewBox="0 0 17 13" fill="none" xmlns="http://www.w3.org/2000/svg">
<path d="M1.16359 5.94547L5.95993 0.549634C6.08916 0.409221 6.26224 0.331525 6.4419 0.333281C6.62155 0.335037 6.79341 0.416105 6.92045 0.559024C7.04749 0.701943 7.11955 0.895277 7.12111 1.09739C7.12267 1.2995 7.05361 1.49421 6.92879 1.63959L3.30207 5.71961L15.3519 5.71961C15.5336 5.71961 15.7079 5.80083 15.8364 5.94538C15.9649 6.08994 16.037 6.28601 16.037 6.49045C16.037 6.69488 15.9649 6.89095 15.8364 7.03551C15.7079 7.18007 15.5336 7.26128 15.3519 7.26128L3.30207 7.26128L6.92879 11.3413C6.99424 11.4124 7.04644 11.4975 7.08235 11.5915C7.11826 11.6856 7.13716 11.7867 7.13795 11.8891C7.13874 11.9914 7.1214 12.0929 7.08695 12.1876C7.0525 12.2824 7.00162 12.3684 6.93729 12.4408C6.87295 12.5132 6.79645 12.5704 6.71224 12.6092C6.62803 12.6479 6.53781 12.6674 6.44683 12.6666C6.35585 12.6657 6.26594 12.6444 6.18234 12.604C6.09875 12.5636 6.02314 12.5049 5.95993 12.4313L1.16359 7.03542C1.03513 6.89087 0.962975 6.69484 0.962975 6.49045C0.962975 6.28605 1.03513 6.09002 1.16359 5.94547Z" fill="white"/>
</svg>
