<svg width="20" height="24" viewBox="0 0 20 24" fill="none" xmlns="http://www.w3.org/2000/svg">
<path fill-rule="evenodd" clip-rule="evenodd" d="M10.0001 3.89512C6.62927 3.89512 3.88644 6.84577 3.88644 10.4723C3.88644 12.1215 4.45633 13.6989 5.49167 14.9139C6.37792 15.9545 6.82712 17.1975 6.82712 18.6087V18.7111H13.1725V18.6087C13.1725 17.1975 13.6222 15.9542 14.5082 14.9139C15.5431 13.6989 16.1129 12.1215 16.1129 10.4723C16.113 6.84577 13.3709 3.89512 10.0001 3.89512ZM3.88548 16.6406C4.02138 16.4947 4.24114 16.4947 4.37703 16.6406C4.51232 16.7864 4.51232 17.023 4.37703 17.169L3.28117 18.3473C3.1455 18.4935 2.92486 18.493 2.79023 18.3473C2.65473 18.2016 2.65473 17.9649 2.79023 17.8192L3.88548 16.6406ZM2.1746 10.5908C2.1746 10.3844 2.01914 10.2171 1.8273 10.2171H0.347336C0.155282 10.2171 0 10.3844 0 10.5908C0 10.7972 0.155238 10.9644 0.347336 10.9644H1.8273C2.01914 10.9644 2.1746 10.7972 2.1746 10.5908ZM4.54491 4.19381C4.76511 4.43039 4.60494 4.83164 4.29974 4.83164C4.21064 4.83164 4.12172 4.79508 4.05397 4.72219L3.00773 3.59644C2.87184 3.45042 2.87184 3.2138 3.00773 3.06802C3.14306 2.922 3.36317 2.922 3.49867 3.06802L4.54491 4.19381ZM10.3474 1.96589V0.373688C10.3474 0.16725 10.1919 0 10 0C9.80814 0 9.65273 0.16725 9.65273 0.373688V1.96594C9.65273 2.17237 9.80818 2.33981 10 2.33981C10.1919 2.33977 10.3474 2.17233 10.3474 1.96589ZM15.9461 4.72223C15.81 4.86802 15.5911 4.86825 15.4546 4.72223C15.3191 4.57622 15.3191 4.33959 15.4546 4.19386L16.5014 3.06806C16.6367 2.92205 16.8568 2.92205 16.9923 3.06806C17.1278 3.21384 17.1278 3.45047 16.9923 3.59648L15.9461 4.72223ZM18.1723 10.9644H19.6521C19.8454 10.9644 20 10.7972 20 10.5908C20 10.3844 19.8454 10.2171 19.6521 10.2171H18.1723C17.9809 10.2171 17.8251 10.3844 17.8251 10.5908C17.8251 10.7972 17.9809 10.9644 18.1723 10.9644ZM15.623 17.169C15.4875 17.0231 15.4875 16.7864 15.623 16.6406C15.7585 16.4947 15.9787 16.4947 16.114 16.6406L17.2094 17.8192C17.429 18.0551 17.2709 18.4568 16.964 18.4568C16.8751 18.4568 16.786 18.4205 16.7184 18.3473L15.623 17.169ZM11.9185 22.4116H8.08183C8.31053 23.3322 9.09787 24 10.0001 24C10.9118 24 11.6918 23.3355 11.9185 22.4116ZM13.1725 19.5259H6.82712V20.9438C6.82712 21.304 7.09934 21.5969 7.43387 21.5969H12.5656C12.9004 21.5969 13.1726 21.304 13.1726 20.9438V19.5259H13.1725Z" fill="white"/>
</svg>
