<svg width="18" height="20" viewBox="0 0 18 20" fill="none" xmlns="http://www.w3.org/2000/svg">
<path fill-rule="evenodd" clip-rule="evenodd" d="M9.00005 3.24594C5.97794 3.24594 3.51884 5.7048 3.51884 8.72695C3.51884 10.1012 4.02978 11.4157 4.95802 12.4283C5.75259 13.2954 6.15532 14.3312 6.15532 15.5073V15.5926H11.8443V15.5073C11.8443 14.3312 12.2475 13.2952 13.0418 12.4283C13.9697 11.4157 14.4806 10.1012 14.4806 8.72695C14.4806 5.7048 12.0222 3.24594 9.00005 3.24594ZM3.51798 13.8672C3.63981 13.7455 3.83685 13.7455 3.95868 13.8672C4.07997 13.9887 4.07997 14.1859 3.95868 14.3075L2.97618 15.2895C2.85454 15.4113 2.65673 15.4109 2.53603 15.2895C2.41454 15.168 2.41454 14.9708 2.53603 14.8493L3.51798 13.8672ZM1.98407 8.82566C1.98407 8.65363 1.8447 8.51426 1.6727 8.51426H0.34583C0.173643 8.51426 0.0344238 8.65363 0.0344238 8.82566C0.0344238 8.99766 0.173603 9.13703 0.34583 9.13703H1.6727C1.8447 9.13703 1.98407 8.99766 1.98407 8.82566ZM4.10919 3.49484C4.30661 3.69199 4.16302 4.02637 3.88938 4.02637C3.8095 4.02637 3.72978 3.9959 3.66903 3.93516L2.73103 2.99703C2.60919 2.87535 2.60919 2.67816 2.73103 2.55668C2.85235 2.435 3.0497 2.435 3.17118 2.55668L4.10919 3.49484ZM9.31142 1.63824V0.311406C9.31142 0.139375 9.17204 0 9.00001 0C8.82798 0 8.68864 0.139375 8.68864 0.311406V1.63828C8.68864 1.81031 8.82802 1.94984 9.00001 1.94984C9.17204 1.9498 9.31142 1.81027 9.31142 1.63824ZM14.331 3.9352C14.209 4.05668 14.0127 4.05687 13.8903 3.9352C13.7688 3.81352 13.7688 3.61633 13.8903 3.49488L14.8288 2.55672C14.9501 2.43504 15.1475 2.43504 15.269 2.55672C15.3905 2.6782 15.3905 2.87539 15.269 2.99707L14.331 3.9352ZM16.327 9.13703H17.6536C17.8269 9.13703 17.9656 8.99766 17.9656 8.82566C17.9656 8.65363 17.8269 8.51426 17.6536 8.51426H16.327C16.1553 8.51426 16.0156 8.65363 16.0156 8.82566C16.0156 8.99766 16.1553 9.13703 16.327 9.13703ZM14.0413 14.3075C13.9199 14.1859 13.9199 13.9887 14.0413 13.8672C14.1628 13.7455 14.3602 13.7455 14.4815 13.8672L15.4636 14.8493C15.6605 15.0459 15.5188 15.3807 15.2436 15.3807C15.1639 15.3807 15.084 15.3504 15.0234 15.2895L14.0413 14.3075ZM10.72 18.6764H7.28024C7.48528 19.4435 8.19118 20 9.00005 20C9.81747 20 10.5168 19.4463 10.72 18.6764ZM11.8443 16.2716H6.15532V17.4532C6.15532 17.7533 6.39938 17.9974 6.69931 17.9974H11.3002C11.6003 17.9974 11.8444 17.7534 11.8444 17.4532V16.2716H11.8443Z" fill="white"/>
</svg>
