<svg width="22" height="22" viewBox="0 0 22 22" fill="none" xmlns="http://www.w3.org/2000/svg">
<g clip-path="url(#clip0_1_344)">
<path fill-rule="evenodd" clip-rule="evenodd" d="M7.24383 0H14.6945L21.2714 6.34199V18.5205C21.2714 19.9993 20.0166 21.2103 18.4815 21.2103H7.24387C5.70997 21.2103 4.4552 19.9993 4.4552 18.5205V2.68977C4.4552 1.21093 5.70997 0 7.24383 0Z" fill="#E5252A"/>
<path fill-rule="evenodd" clip-rule="evenodd" d="M14.6945 0L21.2713 6.34199H15.4036C15.0126 6.34199 14.6945 6.03411 14.6945 5.65713V0Z" fill="#B71D21"/>
<path fill-rule="evenodd" clip-rule="evenodd" d="M1.34082 9.03174H16.4924C16.8293 9.03174 17.1047 9.2972 17.1047 9.62206V14.981C17.1047 15.3058 16.8293 15.5713 16.4924 15.5713H1.34082C1.00386 15.5713 0.728516 15.3058 0.728516 14.981V9.62206C0.728516 9.2972 1.0039 9.03174 1.34082 9.03174Z" fill="#B71D21"/>
<path d="M5.05983 10.1245H3.91695C3.7208 10.1245 3.56177 10.2778 3.56177 10.4669V12.273V12.7179V14.1349C3.56177 14.324 3.7208 14.4773 3.91695 14.4773C4.1131 14.4773 4.27213 14.324 4.27213 14.1349V13.0603H5.05979C5.88582 13.0603 6.55785 12.4124 6.55785 11.6161V11.5688C6.55789 10.7724 5.88586 10.1245 5.05983 10.1245ZM5.84753 11.616C5.84753 12.0348 5.49416 12.3754 5.05983 12.3754H4.27213V12.273V10.8093H5.05979C5.49412 10.8093 5.84749 11.15 5.84749 11.5687V11.616H5.84753ZM8.88199 10.1245H7.73915C7.54299 10.1245 7.38397 10.2778 7.38397 10.4669V14.1349C7.38397 14.324 7.54299 14.4773 7.73915 14.4773H8.88199C9.70802 14.4773 10.38 13.8294 10.38 13.0331V11.5688C10.38 10.7724 9.70802 10.1245 8.88199 10.1245ZM9.66969 13.0331C9.66969 13.4518 9.31632 13.7924 8.88199 13.7924H8.09433V10.8093H8.88199C9.31632 10.8093 9.66969 11.15 9.66969 11.5687V13.0331ZM11.9856 10.8094V11.7573H13.632C13.8282 11.7573 13.9872 11.9106 13.9872 12.0997C13.9872 12.2888 13.8282 12.4421 13.632 12.4421H11.9856V14.1349C11.9856 14.324 11.8266 14.4773 11.6304 14.4773C11.4342 14.4773 11.2752 14.324 11.2752 14.1349V10.4669C11.2752 10.2778 11.4342 10.1245 11.6304 10.1245H13.9161C14.1123 10.1245 14.2713 10.2778 14.2713 10.4669C14.2713 10.6561 14.1123 10.8094 13.9161 10.8094H11.9856Z" fill="white"/>
</g>
<defs>
<clipPath id="clip0_1_344">
<rect width="22" height="21.2103" fill="white"/>
</clipPath>
</defs>
</svg>
