<svg width="9" height="9" viewBox="0 0 9 9" fill="none" xmlns="http://www.w3.org/2000/svg">
<path d="M9 4.5C9 4.60462 8.95601 4.70935 8.86815 4.78923L4.36816 8.88011C4.19233 9.03996 3.90759 9.03996 3.73187 8.88011C3.55614 8.72026 3.55603 8.46141 3.73187 8.30166L7.9137 4.5L3.73187 0.69834C3.55603 0.538488 3.55603 0.279637 3.73187 0.119888C3.9077 -0.0398609 4.19244 -0.0399639 4.36816 0.119888L8.86815 4.21077C8.95601 4.29065 9 4.39538 9 4.5ZM5.26816 4.21077L0.768175 0.119888C0.592338 -0.0399637 0.307602 -0.0399637 0.131877 0.119888C-0.0438471 0.279739 -0.0439596 0.53859 0.131877 0.69834L4.31371 4.5L0.131878 8.30166C-0.0439593 8.46151 -0.0439592 8.72036 0.131878 8.88011C0.307715 9.03986 0.592451 9.03996 0.768175 8.88011L5.26816 4.78923C5.35602 4.70935 5.40001 4.60462 5.40001 4.5C5.40001 4.39538 5.35602 4.29065 5.26816 4.21077Z" fill="white"/>
</svg>
