<svg width="22" height="15" viewBox="0 0 22 15" fill="none" xmlns="http://www.w3.org/2000/svg">
<path d="M11 5.53496C11.8679 5.53496 12.5714 5.18317 12.5714 4.74923C12.5714 4.31528 11.8679 3.9635 11 3.9635C10.1322 3.9635 9.42862 4.31528 9.42862 4.74923C9.42862 5.18317 10.1322 5.53496 11 5.53496Z" fill="white"/>
<path fill-rule="evenodd" clip-rule="evenodd" d="M11.0002 10.2492C10.8626 10.2493 10.7261 10.2248 10.5971 10.177L5.10742 8.14903V11.724C5.10789 11.8872 5.20926 12.0331 5.36201 12.0905L10.862 14.1538C10.9505 14.1878 11.0484 14.1878 11.137 14.1538L16.6369 12.0905C16.7907 12.0335 16.8928 11.8868 16.893 11.7228V8.14783L11.4033 10.1769C11.2743 10.2248 11.1378 10.2493 11.0002 10.2492Z" fill="white"/>
<path fill-rule="evenodd" clip-rule="evenodd" d="M21.7406 4.76504L11.1297 0.84439C11.0461 0.812938 10.954 0.812938 10.8704 0.84439L0.2594 4.76504C0.103167 4.82489 0 4.97489 0 5.14221C0 5.30953 0.103167 5.45949 0.2594 5.51934L10.8704 9.44003C10.954 9.47144 11.0461 9.47144 11.1297 9.44003L17.1953 7.20078L12.0411 6.1597C11.7052 6.26996 11.3535 6.32436 11 6.32079C9.68003 6.32079 8.64291 5.62939 8.64291 4.7494C8.64291 3.8694 9.68003 3.178 11 3.178C11.7599 3.13941 12.5011 3.42163 13.0429 3.95586L20.2674 5.41334C20.5303 5.46697 20.7671 5.60825 20.9392 5.81406L21.7406 5.51943C21.8968 5.45958 22 5.30962 22 5.1423C22 4.97489 21.8969 4.82489 21.7406 4.76504Z" fill="white"/>
<path fill-rule="evenodd" clip-rule="evenodd" d="M20.036 10.2493C20.6869 10.2493 21.2146 10.7769 21.2146 11.4279V12.9993C21.2146 13.2162 21.0387 13.3921 20.8217 13.3921H19.2503C19.0333 13.3921 18.8574 13.2163 18.8574 12.9993V11.4278C18.8574 10.7769 19.385 10.2493 20.036 10.2493Z" fill="white"/>
<path fill-rule="evenodd" clip-rule="evenodd" d="M20.4286 6.56822V9.50282C20.1693 9.45045 19.9022 9.45045 19.6429 9.50282V6.89035L13.0311 5.55859C13.2182 5.35544 13.3317 5.09535 13.3533 4.82001L20.1143 6.18322C20.2972 6.22056 20.4286 6.38152 20.4286 6.56822Z" fill="white"/>
</svg>
