<svg width="14" height="14" viewBox="0 0 14 14" fill="none" xmlns="http://www.w3.org/2000/svg">
<g clip-path="url(#clip0_1_2947)">
<path d="M12.2796 1.87368H10.5521V1.03535C10.5521 0.824908 10.3815 0.654297 10.171 0.654297C9.9606 0.654297 9.78999 0.824908 9.78999 1.03535V1.87368H7.30043V1.03535C7.30043 0.824908 7.12982 0.654297 6.91937 0.654297C6.70893 0.654297 6.53832 0.824908 6.53832 1.03535V1.87368H4.04875V1.03535C4.04875 0.824908 3.87814 0.654297 3.66769 0.654297C3.45725 0.654297 3.28664 0.824908 3.28664 1.03535V1.87368H1.55918C0.928841 1.87368 0.416016 2.3865 0.416016 3.01684V11.4509C0.416016 12.0812 0.928841 12.5941 1.55918 12.5941H12.2796C12.9099 12.5941 13.4227 12.0812 13.4227 11.4509V3.01684C13.4227 2.3865 12.9099 1.87368 12.2796 1.87368ZM1.55918 2.63579H3.28664V3.47411C3.28664 3.68456 3.45725 3.85517 3.66769 3.85517C3.87814 3.85517 4.04875 3.68456 4.04875 3.47411V2.63579H6.53832V3.47411C6.53832 3.68456 6.70893 3.85517 6.91937 3.85517C7.12982 3.85517 7.30043 3.68456 7.30043 3.47411V2.63579H9.78999V3.47411C9.78999 3.68456 9.9606 3.85517 10.171 3.85517C10.3815 3.85517 10.5521 3.68456 10.5521 3.47411V2.63579H12.2796C12.4897 2.63579 12.6606 2.80673 12.6606 3.01684V4.71889H1.17813V3.01684C1.17813 2.80673 1.34907 2.63579 1.55918 2.63579ZM12.2796 11.8319H1.55918C1.34907 11.8319 1.17813 11.661 1.17813 11.4509V5.48101H12.6606V11.4509C12.6606 11.661 12.4897 11.8319 12.2796 11.8319Z" fill="white"/>
<path d="M3.05802 6.54785H2.65156C2.44112 6.54785 2.27051 6.71846 2.27051 6.92891C2.27051 7.13935 2.44112 7.30996 2.65156 7.30996H3.05802C3.26847 7.30996 3.43908 7.13935 3.43908 6.92891C3.43908 6.71846 3.26847 6.54785 3.05802 6.54785Z" fill="white"/>
<path d="M5.09025 6.54785H4.68379C4.47335 6.54785 4.30273 6.71846 4.30273 6.92891C4.30273 7.13935 4.47335 7.30996 4.68379 7.30996H5.09025C5.30069 7.30996 5.47131 7.13935 5.47131 6.92891C5.47131 6.71846 5.30069 6.54785 5.09025 6.54785Z" fill="white"/>
<path d="M7.12248 6.54785H6.71602C6.50557 6.54785 6.33496 6.71846 6.33496 6.92891C6.33496 7.13935 6.50557 7.30996 6.71602 7.30996H7.12248C7.33292 7.30996 7.50353 7.13935 7.50353 6.92891C7.50353 6.71846 7.33292 6.54785 7.12248 6.54785Z" fill="white"/>
<path d="M9.1547 6.54785H8.74824C8.5378 6.54785 8.36719 6.71846 8.36719 6.92891C8.36719 7.13935 8.5378 7.30996 8.74824 7.30996H9.1547C9.36515 7.30996 9.53576 7.13935 9.53576 6.92891C9.53576 6.71846 9.36515 6.54785 9.1547 6.54785Z" fill="white"/>
<path d="M11.1869 6.54785H10.7805C10.57 6.54785 10.3994 6.71846 10.3994 6.92891C10.3994 7.13935 10.57 7.30996 10.7805 7.30996H11.1869C11.3974 7.30996 11.568 7.13935 11.568 6.92891C11.568 6.71846 11.3974 6.54785 11.1869 6.54785Z" fill="white"/>
<path d="M3.05802 8.17383H2.65156C2.44112 8.17383 2.27051 8.34444 2.27051 8.55488C2.27051 8.76533 2.44112 8.93594 2.65156 8.93594H3.05802C3.26847 8.93594 3.43908 8.76533 3.43908 8.55488C3.43908 8.34444 3.26847 8.17383 3.05802 8.17383Z" fill="white"/>
<path d="M5.09025 8.17383H4.68379C4.47335 8.17383 4.30273 8.34444 4.30273 8.55488C4.30273 8.76533 4.47335 8.93594 4.68379 8.93594H5.09025C5.30069 8.93594 5.47131 8.76533 5.47131 8.55488C5.47131 8.34444 5.30069 8.17383 5.09025 8.17383Z" fill="white"/>
<path d="M7.12248 8.17383H6.71602C6.50557 8.17383 6.33496 8.34444 6.33496 8.55488C6.33496 8.76533 6.50557 8.93594 6.71602 8.93594H7.12248C7.33292 8.93594 7.50353 8.76533 7.50353 8.55488C7.50353 8.34444 7.33292 8.17383 7.12248 8.17383Z" fill="white"/>
<path d="M9.1547 8.17383H8.74824C8.5378 8.17383 8.36719 8.34444 8.36719 8.55488C8.36719 8.76533 8.5378 8.93594 8.74824 8.93594H9.1547C9.36515 8.93594 9.53576 8.76533 9.53576 8.55488C9.53576 8.34444 9.36515 8.17383 9.1547 8.17383Z" fill="white"/>
<path d="M11.1869 8.17383H10.7805C10.57 8.17383 10.3994 8.34444 10.3994 8.55488C10.3994 8.76533 10.57 8.93594 10.7805 8.93594H11.1869C11.3974 8.93594 11.568 8.76533 11.568 8.55488C11.568 8.34444 11.3974 8.17383 11.1869 8.17383Z" fill="white"/>
<path d="M3.05802 9.79956H2.65156C2.44112 9.79956 2.27051 9.97017 2.27051 10.1806C2.27051 10.3911 2.44112 10.5617 2.65156 10.5617H3.05802C3.26847 10.5617 3.43908 10.3911 3.43908 10.1806C3.43908 9.97017 3.26847 9.79956 3.05802 9.79956Z" fill="white"/>
<path d="M5.09025 9.79956H4.68379C4.47335 9.79956 4.30273 9.97017 4.30273 10.1806C4.30273 10.3911 4.47335 10.5617 4.68379 10.5617H5.09025C5.30069 10.5617 5.47131 10.3911 5.47131 10.1806C5.47131 9.97017 5.30069 9.79956 5.09025 9.79956Z" fill="white"/>
<path d="M7.12248 9.79956H6.71602C6.50557 9.79956 6.33496 9.97017 6.33496 10.1806C6.33496 10.3911 6.50557 10.5617 6.71602 10.5617H7.12248C7.33292 10.5617 7.50353 10.3911 7.50353 10.1806C7.50353 9.97017 7.33292 9.79956 7.12248 9.79956Z" fill="white"/>
<path d="M9.1547 9.79956H8.74824C8.5378 9.79956 8.36719 9.97017 8.36719 10.1806C8.36719 10.3911 8.5378 10.5617 8.74824 10.5617H9.1547C9.36515 10.5617 9.53576 10.3911 9.53576 10.1806C9.53576 9.97017 9.36515 9.79956 9.1547 9.79956Z" fill="white"/>
<path d="M11.1869 9.79956H10.7805C10.57 9.79956 10.3994 9.97017 10.3994 10.1806C10.3994 10.3911 10.57 10.5617 10.7805 10.5617H11.1869C11.3974 10.5617 11.568 10.3911 11.568 10.1806C11.568 9.97017 11.3974 9.79956 11.1869 9.79956Z" fill="white"/>
</g>
<defs>
<clipPath id="clip0_1_2947">
<rect width="13.0067" height="13.0067" fill="white" transform="translate(0.416016 0.12085)"/>
</clipPath>
</defs>
</svg>
