<svg width="17" height="17" viewBox="0 0 17 17" fill="none" xmlns="http://www.w3.org/2000/svg">
<g filter="url(#filter0_d_1_1545)">
<path d="M14.8512 12.1329L11.1835 8.46521C12.8546 6.43206 12.7409 3.4139 10.842 1.51504C8.82193 -0.505013 5.53509 -0.505013 3.51504 1.51504C1.49499 3.53509 1.49499 6.82193 3.51504 8.84198C5.41339 10.7403 8.43117 10.8553 10.4652 9.18351L14.1329 12.8512C14.3313 13.0496 14.6529 13.0496 14.8512 12.8512C15.0496 12.6529 15.0496 12.3313 14.8512 12.1329ZM10.1237 8.12368C8.49973 9.74767 5.85732 9.74764 4.23334 8.12368C2.60936 6.4997 2.60936 3.8573 4.23334 2.23331C5.85727 0.609407 8.49967 0.60928 10.1237 2.23331C11.7477 3.8573 11.7477 6.4997 10.1237 8.12368Z" fill="white"/>
<path d="M9.66523 4.67057H7.68628V2.69163C7.68628 2.41111 7.45888 2.18372 7.17837 2.18372C6.89785 2.18372 6.67045 2.41111 6.67045 2.69163V4.67057H4.69151C4.41099 4.67057 4.18359 4.89797 4.18359 5.17849C4.18359 5.459 4.41099 5.6864 4.69151 5.6864H6.67045V7.66535C6.67045 7.94586 6.89785 8.17326 7.17837 8.17326C7.45888 8.17326 7.68628 7.94586 7.68628 7.66535V5.6864H9.66523C9.94574 5.6864 10.1731 5.459 10.1731 5.17849C10.1731 4.89797 9.94574 4.67057 9.66523 4.67057Z" fill="white"/>
</g>
<defs>
<filter id="filter0_d_1_1545" x="0.9" y="0" width="15.2" height="16.1" filterUnits="userSpaceOnUse" color-interpolation-filters="sRGB">
<feFlood flood-opacity="0" result="BackgroundImageFix"/>
<feColorMatrix in="SourceAlpha" type="matrix" values="0 0 0 0 0 0 0 0 0 0 0 0 0 0 0 0 0 0 127 0" result="hardAlpha"/>
<feOffset dy="2"/>
<feGaussianBlur stdDeviation="0.55"/>
<feComposite in2="hardAlpha" operator="out"/>
<feColorMatrix type="matrix" values="0 0 0 0 0 0 0 0 0 0 0 0 0 0 0 0 0 0 0.25 0"/>
<feBlend mode="normal" in2="BackgroundImageFix" result="effect1_dropShadow_1_1545"/>
<feBlend mode="normal" in="SourceGraphic" in2="effect1_dropShadow_1_1545" result="shape"/>
</filter>
</defs>
</svg>
