<svg width="28" height="40" viewBox="0 0 28 40" fill="none" xmlns="http://www.w3.org/2000/svg">
<path d="M18.0201 17.459L13.869 23.5893L7.73044 29.6971C5.44746 26.7956 2.95449 23.9849 1.43457 20.5853L4.74332 15.5166L9.81809 10.6207C8.122 12.7168 8.24864 15.7998 10.1981 17.7493C12.2837 19.8349 15.6643 19.8349 17.7499 17.7493C17.8439 17.6553 17.9347 17.5582 18.0201 17.459Z" fill="#ECB72B"/>
<path d="M18.116 17.344C19.8269 15.2468 19.7055 12.1533 17.7498 10.1986C15.6641 8.11293 12.2835 8.11293 10.198 10.1986C10.1104 10.2861 10.0269 10.3759 9.94678 10.4677L13.4476 4.77653L18.1973 0.650818C21.7447 1.77379 24.6788 4.27418 26.3729 7.52403L22.9079 13.1112L18.116 17.344Z" fill="#5085F7"/>
<path d="M9.8179 10.621L1.43414 20.5858C0.602656 18.7277 0.0621089 16.6938 0.00632764 14.3726C0.00210888 14.2406 0 14.1077 0 13.9747C0 10.5592 1.22539 7.42866 3.26141 5.00116L9.8179 10.621Z" fill="#DA2F2A"/>
<path d="M9.81796 10.621L3.26123 5.00079C5.82498 1.94414 9.67217 0 13.9742 0C15.4465 0 16.8655 0.227813 18.198 0.650001L9.81796 10.621Z" fill="#4274EB"/>
<path d="M27.948 13.9738C27.948 11.6474 27.3795 9.4536 26.3737 7.52399L7.72998 29.6979C9.84819 32.3923 11.7837 35.1655 12.588 38.5615C12.6138 38.6703 12.6415 38.7974 12.6711 38.9403C12.9627 40.3532 14.9859 40.3532 15.2776 38.9403C15.3071 38.7974 15.3348 38.6703 15.3606 38.5615C17.505 29.5074 27.6893 24.8804 27.9421 14.3726C27.9457 14.2401 27.948 14.1072 27.948 13.9738Z" fill="#60A850"/>
</svg>
