<svg xmlns="http://www.w3.org/2000/svg" xmlns:xlink="http://www.w3.org/1999/xlink" width="272.21" height="272.21" viewBox="0 0 272.21 272.21"><defs><style>.a{fill:#ffaa01;}.b{fill:#fff;}.c{filter:url(#a);}</style><filter id="a" x="0" y="0" width="272.21" height="272.21" filterUnits="userSpaceOnUse"><feOffset dy="10" input="SourceAlpha"/><feGaussianBlur stdDeviation="10" result="b"/><feFlood flood-opacity="0.161"/><feComposite operator="in" in2="b"/><feComposite in="SourceGraphic"/></filter></defs><g transform="translate(0.706 -131.709)"><g class="c" transform="matrix(1, 0, 0, 1, -0.71, 131.71)"><circle class="a" cx="75.028" cy="75.028" r="75.028" transform="translate(30 126.1) rotate(-45)"/></g><g transform="translate(75.734 220.709)"><g transform="translate(26.56 0)"><path class="b" d="M92.568,24.6l-2.306-3.4a1.187,1.187,0,0,0-1.013-.52l-4.471.117a1.187,1.187,0,0,0-.956.527l-.455.682-4.638,2.969a1.188,1.188,0,0,0-.542.89l-.1,1.079h-1.8l-3.54-2.884a1.187,1.187,0,0,0-1.828.423l-1.474,3.193-14.1-6.02.809-3.084a1.187,1.187,0,0,0-.764-1.424l-1.17-.4L52.29,13.8l.276-.068a1.187,1.187,0,0,0,.749-1.741l-.665-1.168L55.2,5.595a1.187,1.187,0,0,0-.455-1.537L52.452,2.68a1.181,1.181,0,0,0-.675-.168l-4.885.258L40.8.1a1.187,1.187,0,0,0-1.087.069L36.433,2.133a1.187,1.187,0,0,0-.173,1.911l1.83,1.6.1,4.067a1.187,1.187,0,0,0,.312.774l3.008,3.275-2.494,4.5a1.185,1.185,0,0,0-.149.554l-.009.494-4.385,4.819-2.223-.712a1.188,1.188,0,0,0-1.486.747l-1.224,3.59a1.187,1.187,0,0,0,.4,1.326l.631.483,1.6,3.285.012.716L27.347,35.3a1.187,1.187,0,0,0-.122,2.184l1.482.726a1.188,1.188,0,0,0-.3,1.63l1.81,2.7a1.185,1.185,0,0,0,.46.4l2.936,1.449a1.187,1.187,0,0,0,1.469-.345l1.294-1.7.7,1.651-.418,2.2a1.188,1.188,0,0,0,.053.634L46.432,73.1a1.2,1.2,0,0,0,1.113.775,1.186,1.186,0,0,0,.424-.078l2.38-.909a1.188,1.188,0,0,0,.634-.57l.522-1.025.812-.991,2.039-2.446a1.187,1.187,0,0,0,.257-.552l1.076-6.05a1.184,1.184,0,0,0-.042-.581l-.568-1.715,1.083-3.273.905-.558L58.2,55a1.187,1.187,0,0,0,.818-.477l1.4-1.913a4.6,4.6,0,0,0,1.412-.7c.45-.419.873-.873,1.308-1.308a3.538,3.538,0,0,0,.879-1.1c.22-.516.43-1.036.645-1.553l4.222-2.32a1.187,1.187,0,0,0,.606-.895l.207-1.669,1.579-1.208,2.118.422a1.187,1.187,0,0,0,1.377-1.476l-2.018-7.413,2.477-1.027,1.7,1.112a1.186,1.186,0,0,0,.52.186l1.257.138L77.3,35.874a1.187,1.187,0,0,0,1.041,1.851l.929-.046,2.146,2.932a1.187,1.187,0,0,0,2.13-.515l.585-3.682,1,.191a1.187,1.187,0,0,0,1.4-.979l.645-4.05.573-.756a1.187,1.187,0,0,0,.231-.561l.1-.728,3.492-1.213a1.187,1.187,0,0,0,.772-.875l.41-1.933A1.185,1.185,0,0,0,92.568,24.6Zm-2.414,1.7L86.6,27.528a1.187,1.187,0,0,0-.787.965l-.152,1.142-.563.743a1.188,1.188,0,0,0-.226.53l-.5,3.134-1-.191a1.188,1.188,0,0,0-1.4.98l-.33,2.077-.84-1.148a1.186,1.186,0,0,0-.35-.319l1.32-1.951a1.187,1.187,0,0,0-.854-1.845L78,31.323l-1.988-1.3a1.187,1.187,0,0,0-1.1-.1l-4.022,1.667A1.187,1.187,0,0,0,70.191,33l1.789,6.571-.763-.152a1.186,1.186,0,0,0-.953.221l-2.4,1.837a1.187,1.187,0,0,0-.457.8l-.193,1.561L63.158,46.06a1.187,1.187,0,0,0-.524.585l-.78,1.878-1.565,1.565-1.086.453a1.185,1.185,0,0,0-.5.393L57.409,52.7l-.88.1a1.189,1.189,0,0,0-.484.168l-1.5.923a1.186,1.186,0,0,0-.5.638L52.7,58.587a1.186,1.186,0,0,0,0,.746l.6,1.8-.968,5.444-1.844,2.212-.9,1.1a1.175,1.175,0,0,0-.139.213l-.373.732-.833.318L39.053,46.312l.423-2.227A1.189,1.189,0,0,0,39.4,43.4l-.969-2.3.056-1.9a1.187,1.187,0,0,0-2.13-.755l-2.569,3.368-1.776-.876L31.2,39.569l.67-.351a1.187,1.187,0,0,0-.028-2.118l-.561-.275-.492-.241,3-1.076a1.187,1.187,0,0,0,.786-1.137l-.03-1.83a1.187,1.187,0,0,0-.12-.5l-1.844-3.773a1.186,1.186,0,0,0-.345-.422l-.175-.134.573-1.679,1.84.59a1.187,1.187,0,0,0,1.24-.332l5.2-5.713a1.186,1.186,0,0,0,.309-.777l.012-.645L44,14.168a1.188,1.188,0,0,0-.164-1.379L40.554,9.211l-.1-4.142a1.188,1.188,0,0,0-.4-.863l-1-.873L40.41,2.52,46.2,5.057a1.189,1.189,0,0,0,.54.1l4.8-.254,1.046.63-2.345,4.815a1.187,1.187,0,0,0,.036,1.108l.2.346-.378.092a1.187,1.187,0,0,0-.711,1.8l3.069,4.691a1.187,1.187,0,0,0,.609.473l.513.176-.789,3.008a1.187,1.187,0,0,0,.682,1.393l16.1,6.875a1.187,1.187,0,0,0,1.544-.594l1.316-2.85,2.681,2.184a1.187,1.187,0,0,0,.75.267h3.3a1.187,1.187,0,0,0,1.182-1.077l.147-1.579,4.359-2.79a1.187,1.187,0,0,0,.347-.341l.252-.377,3.208-.084,1.658,2.441Z" transform="translate(-26.56 0)"/></g></g></g></svg>