<svg xmlns="http://www.w3.org/2000/svg" xmlns:xlink="http://www.w3.org/1999/xlink" width="272.21" height="272.21" viewBox="0 0 272.21 272.21"><defs><style>.a{fill:#00498e;}.b{fill:#f3fdff;}.c{filter:url(#a);}</style><filter id="a" x="0" y="0" width="272.21" height="272.21" filterUnits="userSpaceOnUse"><feOffset dy="10" input="SourceAlpha"/><feGaussianBlur stdDeviation="10" result="b"/><feFlood flood-opacity="0.161"/><feComposite operator="in" in2="b"/><feComposite in="SourceGraphic"/></filter></defs><g transform="translate(0.921 20)"><g class="c" transform="matrix(1, 0, 0, 1, -0.92, -20)"><circle class="a" cx="75.028" cy="75.028" r="75.028" transform="translate(30 126.1) rotate(-45)"/></g><path class="b" d="M69.238,65.869a39.506,39.506,0,0,0-.765-53.349h0c-.005-.008-.014-.011-.018-.018A39.5,39.5,0,0,0,40.986.036h0l-.772-.02c-.2-.007-.4-.014-.6-.014s-.4.007-.6.014l-.769.02h0A39.5,39.5,0,0,0,10.773,12.5c-.005.007-.014.01-.018.018a0,0,0,0,1,0,0,39.5,39.5,0,0,0-.766,53.347c.008.012.008.026.018.038.025.034.06.051.086.082a39.523,39.523,0,0,0,28.15,13.2h0l.769.02c.2.005.4.012.6.012s.4-.007.6-.014l.769-.02h0A39.521,39.521,0,0,0,69.156,65.961c.018-.023.046-.03.063-.055S69.229,65.882,69.238,65.869ZM2.766,40.979h16.4a50.48,50.48,0,0,0,3.3,16.688,50.367,50.367,0,0,0-11.079,5.643A36.711,36.711,0,0,1,2.766,40.979Zm9.361-25.922a50.244,50.244,0,0,0,10.791,5.3,50.441,50.441,0,0,0-3.756,17.887H2.766A36.72,36.72,0,0,1,12.127,15.057ZM76.46,38.247h-16.4A50.441,50.441,0,0,0,56.308,20.36a50.245,50.245,0,0,0,10.791-5.3A36.72,36.72,0,0,1,76.46,38.247ZM38.247,20.439a47.752,47.752,0,0,1-11.571-1.753A47.792,47.792,0,0,1,38.247,3.612Zm0,2.732V38.247H21.894a47.707,47.707,0,0,1,3.642-17.04A50.47,50.47,0,0,0,38.247,23.171Zm2.732,0a50.429,50.429,0,0,0,12.713-1.964,47.707,47.707,0,0,1,3.642,17.04H40.979Zm0-2.732V3.612A47.792,47.792,0,0,1,52.55,18.686,47.752,47.752,0,0,1,40.979,20.439ZM55.2,17.856a50.445,50.445,0,0,0-10.775-14.8,36.775,36.775,0,0,1,20.739,10A47.51,47.51,0,0,1,55.2,17.856Zm-31.168,0a47.468,47.468,0,0,1-9.963-4.8,36.77,36.77,0,0,1,20.739-10A50.425,50.425,0,0,0,24.029,17.856ZM21.894,40.979H38.247V54.69a50.381,50.381,0,0,0-13.2,2.1A47.705,47.705,0,0,1,21.894,40.979ZM38.247,57.422V75.614A47.768,47.768,0,0,1,26.112,59.336,47.628,47.628,0,0,1,38.247,57.422Zm2.732,18.192V57.422a47.625,47.625,0,0,1,12.135,1.912A47.76,47.76,0,0,1,40.979,75.614Zm0-20.924V40.979H57.332A47.687,47.687,0,0,1,54.174,56.8,50.306,50.306,0,0,0,40.979,54.69ZM60.064,40.979h16.4a36.7,36.7,0,0,1-8.615,22.331,50.367,50.367,0,0,0-11.079-5.643A50.446,50.446,0,0,0,60.064,40.979ZM13.238,65.356a47.6,47.6,0,0,1,10.268-5.165A50.4,50.4,0,0,0,34.8,76.17,36.8,36.8,0,0,1,13.238,65.356ZM44.422,76.17a50.373,50.373,0,0,0,11.3-15.979,47.636,47.636,0,0,1,10.268,5.165A36.8,36.8,0,0,1,44.422,76.17Z" transform="translate(95.128 66.34)"/></g></svg>