<svg xmlns="http://www.w3.org/2000/svg" xmlns:xlink="http://www.w3.org/1999/xlink" width="272.21" height="272.21" viewBox="0 0 272.21 272.21"><defs><style>.a{fill:#f05654;}.b{fill:#fff;stroke:#f05654;stroke-width:0.5px;}.c{filter:url(#a);}</style><filter id="a" x="0" y="0" width="272.21" height="272.21" filterUnits="userSpaceOnUse"><feOffset dy="10" input="SourceAlpha"/><feGaussianBlur stdDeviation="10" result="b"/><feFlood flood-opacity="0.161"/><feComposite operator="in" in2="b"/><feComposite in="SourceGraphic"/></filter></defs><g transform="translate(0.988 -51.369)"><g class="c" transform="matrix(1, 0, 0, 1, -0.99, 51.37)"><circle class="a" cx="75.028" cy="75.028" r="75.028" transform="translate(30 126.1) rotate(-45)"/></g><g transform="translate(94.42 98.424)"><g transform="translate(15.729 96.331)"><path class="b" d="M101.573,366a1.573,1.573,0,1,0,1.573,1.573A1.573,1.573,0,0,0,101.573,366Z" transform="translate(-100 -365.999)"/></g><g transform="translate(0 45.999)"><g transform="translate(0 0)"><path class="b" d="M80.532,69.592c0-.77-.438-1.072-1.012-1.664C71.58,59.739,55.922,46,40.266,46,24.715,46,8.989,59.748,1,67.944c-.179.183-.363.372-.434.442A1.573,1.573,0,0,0,0,69.592c0,7.054,3.09,12.491,9.437,16.6v5.051L6.458,97.2a1.573,1.573,0,0,0,.295,1.816c9.219,9.218,20.195,13,33.509,13.044h.214c18.155,0,27.7-7.438,33.305-13.044a1.573,1.573,0,0,0,.295-1.816l-2.98-5.959V86.19C77.441,82.083,80.532,76.646,80.532,69.592ZM40.472,108.915h-.2c-16.376-.053-25.206-6.271-30.487-11.332l2.2-4.4H68.55l2.2,4.4C65.439,102.674,56.615,108.915,40.472,108.915ZM12.583,90.04V86.894H67.949V90.04Zm56.49-6.292H11.459C5.993,80.319,3.338,76,3.156,70.237c9.381-9.644,23.7-21.093,37.11-21.093,13.488,0,27.646,11.343,37.11,21.091C77.194,76,74.539,80.319,69.073,83.748Z" transform="translate(0 -45.999)"/></g></g><g transform="translate(26.11 52.291)"><path class="b" d="M180.156,86a14.156,14.156,0,1,0,14.156,14.156A14.172,14.172,0,0,0,180.156,86Zm0,25.166a11.01,11.01,0,1,1,11.01-11.01A11.023,11.023,0,0,1,180.156,111.165Z" transform="translate(-166 -85.999)"/></g><g transform="translate(32.401 58.582)"><path class="b" d="M220.156,132.291a1.573,1.573,0,0,0-1.573,1.573,4.726,4.726,0,0,1-3.146,4.448v-6.523a3.145,3.145,0,1,0-3.146.147v6.376a4.726,4.726,0,0,1-3.146-4.448,1.573,1.573,0,0,0-3.146,0,7.864,7.864,0,1,0,15.729,0A1.573,1.573,0,0,0,220.156,132.291Z" transform="translate(-206 -125.999)"/></g><g transform="translate(21.202 99.431)"><path class="b" d="M154.073,388.9h-.187c-6.5-.022-12.646-1.134-16.866-3.051a1.573,1.573,0,1,0-1.3,2.864c4.611,2.094,11.228,3.309,18.161,3.332h.192a1.573,1.573,0,0,0,0-3.146Z" transform="translate(-134.796 -385.707)"/></g></g></g></svg>