<svg xmlns="http://www.w3.org/2000/svg" xmlns:xlink="http://www.w3.org/1999/xlink" width="272.21" height="272.21" viewBox="0 0 272.21 272.21"><defs><style>.a{fill:#16accd;}.b{fill:#fff;}.c{filter:url(#a);}</style><filter id="a" x="0" y="0" width="272.21" height="272.21" filterUnits="userSpaceOnUse"><feOffset dy="10" input="SourceAlpha"/><feGaussianBlur stdDeviation="10" result="b"/><feFlood flood-opacity="0.161"/><feComposite operator="in" in2="b"/><feComposite in="SourceGraphic"/></filter></defs><g transform="translate(0.988 -131.369)"><g class="c" transform="matrix(1, 0, 0, 1, -0.99, 131.37)"><circle class="a" cx="75.028" cy="75.028" r="75.028" transform="translate(30 126.1) rotate(-45)"/></g><path class="b" d="M56.156,33.443A22.713,22.713,0,1,0,16.688,48.761l-4.83,4.83a1.115,1.115,0,0,0,1.577,1.577l4.837-4.837A22.7,22.7,0,0,0,56.156,33.443ZM44.4,32.328H34.558V14.005C37.661,16.455,43.952,22.591,44.4,32.328ZM32.328,12.99V32.328H22.484a24.205,24.205,0,0,1,6.151-14.783,1.115,1.115,0,0,0-1.678-1.467,26.392,26.392,0,0,0-6.7,16.25H12.99A20.512,20.512,0,0,1,32.328,12.99ZM12.99,34.558h7.261c.4,9.466,5.859,15.83,9.466,19.028A20.523,20.523,0,0,1,12.99,34.558Zm9.492,0h9.847V52.869A24.991,24.991,0,0,1,22.481,34.558ZM34.558,53.9V34.558H44.4A24.291,24.291,0,0,1,37.87,49.767a1.115,1.115,0,1,0,1.649,1.5,26.473,26.473,0,0,0,7.115-16.71h3.531a1.115,1.115,0,0,0,0-2.23H46.635c-.4-9.464-5.856-15.829-9.462-19.027a20.484,20.484,0,0,1-2.616,40.6Zm23.958,3.183-5.4-5.4a1.115,1.115,0,0,0-1.576,1.576l5.434,5.434a5.363,5.363,0,1,0,1.546-1.607Zm3,7.577a3.135,3.135,0,1,1,3.135-3.135A3.139,3.139,0,0,1,61.521,64.656ZM8.2,9.916l5.434,5.434a1.115,1.115,0,1,0,1.576-1.576l-5.4-5.4A5.365,5.365,0,1,0,8.2,9.916ZM5.365,2.23A3.135,3.135,0,1,1,2.23,5.365,3.139,3.139,0,0,1,5.365,2.23Zm0,53.927a5.365,5.365,0,1,0,5.365,5.365A5.371,5.371,0,0,0,5.365,56.156Zm0,8.5A3.135,3.135,0,1,1,8.5,61.521,3.139,3.139,0,0,1,5.365,64.656ZM53.112,15.211l5.4-5.4A5.365,5.365,0,1,0,56.97,8.2l-5.434,5.434a1.115,1.115,0,0,0,1.577,1.577ZM61.521,2.23a3.135,3.135,0,1,1-3.135,3.135A3.139,3.139,0,0,1,61.521,2.23Z" transform="translate(102 225.709)"/></g></svg>