<svg xmlns="http://www.w3.org/2000/svg" xmlns:xlink="http://www.w3.org/1999/xlink" width="272.21" height="272.21" viewBox="0 0 272.21 272.21"><defs><style>.a{fill:#f36f2f;}.b{fill:#fff;}.c{filter:url(#a);}</style><filter id="a" x="0" y="0" width="272.21" height="272.21" filterUnits="userSpaceOnUse"><feOffset dy="10" input="SourceAlpha"/><feGaussianBlur stdDeviation="10" result="b"/><feFlood flood-opacity="0.161"/><feComposite operator="in" in2="b"/><feComposite in="SourceGraphic"/></filter></defs><g transform="translate(1.271 20)"><g class="c" transform="matrix(1, 0, 0, 1, -1.27, -20)"><circle class="a" cx="75.028" cy="75.028" r="75.028" transform="translate(30 126.1) rotate(-45)"/></g><g transform="translate(96.422 68.273)"><circle class="b" cx="1.113" cy="1.113" r="1.113" transform="translate(36.887 27.44)"/><path class="b" d="M229.188,207.974a1.113,1.113,0,1,0-1.574,0A1.113,1.113,0,0,0,229.188,207.974Z" transform="translate(-193.549 -175.484)"/><path class="b" d="M271.614,207.974a1.113,1.113,0,1,0-1.574,0A1.113,1.113,0,0,0,271.614,207.974Z" transform="translate(-229.678 -175.484)"/><circle class="b" cx="1.113" cy="1.113" r="1.113" transform="translate(36.887 33.738)"/><path class="b" d="M227.613,238.634l3.149,3.149a1.114,1.114,0,0,0,1.575,0l9.447-9.447a1.113,1.113,0,0,0,0-1.574l-3.149-3.149a1.114,1.114,0,0,0-1.574,0l-9.447,9.447a1.113,1.113,0,0,0,0,1.574Zm10.234-8.659,1.574,1.574-7.872,7.872-1.574-1.574Z" transform="translate(-193.549 -193.549)"/><path class="b" d="M54.532,34.064a1.114,1.114,0,0,0,1.575,0L75.674,14.5a1.113,1.113,0,0,0,0-1.574L63.079.326a1.114,1.114,0,0,0-1.574,0L41.936,19.894a1.114,1.114,0,0,0,0,1.575L44.3,23.83,42.724,25.4l-3.936-3.936a1.114,1.114,0,0,0-1.574,0l-.872.872a7.769,7.769,0,0,0-2.277-5.6,1.114,1.114,0,0,0-1.574,0l-4.237,4.237-4.07-1.357a1.115,1.115,0,0,0-1.139.269l-3.149,3.149a1.114,1.114,0,0,0-.269,1.139l1.357,4.07L16.746,32.49a1.113,1.113,0,0,0,0,1.574,7.77,7.77,0,0,0,5.511,2.279l.084,0-.872.872a1.114,1.114,0,0,0,0,1.575L25.4,42.723,23.831,44.3l-2.362-2.362a1.114,1.114,0,0,0-1.575,0L.326,61.5a1.113,1.113,0,0,0,0,1.574l12.6,12.6a1.114,1.114,0,0,0,1.575,0L34.065,56.106a1.114,1.114,0,0,0,0-1.575L31.7,52.169,33.277,50.6l3.936,3.936a1.114,1.114,0,0,0,1.575,0l.872-.872a7.768,7.768,0,0,0,2.277,5.595,1.114,1.114,0,0,0,1.575,0l4.237-4.237,4.07,1.357a1.114,1.114,0,0,0,1.139-.269l3.149-3.149a1.114,1.114,0,0,0,.269-1.139l-1.357-4.07,4.237-4.237a1.113,1.113,0,0,0,0-1.574,7.769,7.769,0,0,0-5.6-2.277l.872-.872a1.113,1.113,0,0,0,0-1.574L50.6,33.277,52.17,31.7Zm7.31-8.884L50.821,14.159,55.769,9.21,66.79,20.231Zm.45-22.492L73.313,13.708l-4.948,4.948L57.344,7.636ZM49.246,15.733,60.267,26.754,55.319,31.7,44.3,20.681Zm-27.291,8.4,2.176-2.176,2.362.787-3.75,3.75ZM19.186,33.2,33.2,19.186a5.576,5.576,0,0,1-.7,7l-6.3,6.3a5.576,5.576,0,0,1-7,.7ZM14.159,50.82,25.18,61.841,20.232,66.79,9.211,55.768Zm-.45,22.492L2.688,62.291l4.948-4.948L18.657,68.364ZM26.754,60.267,15.733,49.246,20.682,44.3,31.7,55.319Zm27.291-8.4-2.176,2.176-2.362-.787,3.75-3.75ZM56.814,42.8,42.8,56.814a5.576,5.576,0,0,1,.7-7l6.3-6.3a5.575,5.575,0,0,1,7-.7ZM38,52.17l-7.085-7.085a1.113,1.113,0,0,0-1.574,1.574L31.7,49.021,30.128,50.6l-4.723-4.723,2.362-2.362a1.113,1.113,0,0,0,0-1.574L23.83,38,38,23.83,52.17,38ZM49.021,31.7,44.3,26.979,45.872,25.4,50.6,30.128Z"/></g></g></svg>