<svg width="39" height="39" viewBox="0 0 39 39" fill="none" xmlns="http://www.w3.org/2000/svg">
<path d="M16.2008 22.7992C16.4388 23.0372 16.7507 23.1562 17.0625 23.1562C17.3743 23.1562 17.6862 23.0372 17.9242 22.7992C18.4003 22.3231 18.4003 21.5519 17.9242 21.0758L16.3484 19.5L17.9242 17.9242C18.4003 17.4481 18.4003 16.6769 17.9242 16.2008C17.4481 15.7247 16.6769 15.7247 16.2008 16.2008L13.7633 18.6383C13.2872 19.1144 13.2872 19.8856 13.7633 20.3617L16.2008 22.7992Z" fill="#BF0400"/>
<path d="M21.0758 22.7992C21.3138 23.0372 21.6257 23.1562 21.9375 23.1562C22.2493 23.1562 22.5612 23.0372 22.7992 22.7992L25.2367 20.3617C25.7128 19.8856 25.7128 19.1144 25.2367 18.6383L22.7992 16.2008C22.3231 15.7247 21.5519 15.7247 21.0758 16.2008C20.5997 16.6769 20.5997 17.4481 21.0758 17.9242L22.6516 19.5L21.0758 21.0758C20.5997 21.5519 20.5997 22.3231 21.0758 22.7992Z" fill="#BF0400"/>
<path d="M29.25 28.0312V10.9688C29.25 10.2951 28.7049 9.75 28.0312 9.75H10.9688C10.2957 9.75 9.75 10.2951 9.75 10.9688V13.4062H6.09375V6.97345C6.8188 6.55048 7.3125 5.77292 7.3125 4.875C7.3125 3.53128 6.21931 2.4375 4.875 2.4375C3.53069 2.4375 2.4375 3.53128 2.4375 4.875C2.4375 5.77292 2.9312 6.55048 3.65625 6.97345V14.625C3.65625 15.2986 4.20195 15.8438 4.875 15.8438H9.75V23.1562H4.875C4.20195 23.1562 3.65625 23.7014 3.65625 24.375V32.0266C2.9312 32.4495 2.4375 33.2271 2.4375 34.125C2.4375 35.4687 3.53069 36.5625 4.875 36.5625C6.21931 36.5625 7.3125 35.4687 7.3125 34.125C7.3125 33.2271 6.8188 32.4495 6.09375 32.0266V25.5938H9.75V28.0312C9.75 28.7049 10.2957 29.25 10.9688 29.25H28.0312C28.7049 29.25 29.25 28.7049 29.25 28.0312ZM26.8125 26.8125H12.1875V12.1875H26.8125V26.8125Z" fill="#BF0400"/>
<path d="M35.3445 14.625H33.2807C33.1093 14.137 32.913 13.6621 32.694 13.2003L34.1508 11.7436C34.6268 11.2675 34.6268 10.4962 34.1508 10.0202L28.9806 4.85001C28.5045 4.37393 27.7333 4.37393 27.2572 4.85001L25.8004 6.30679C25.3386 6.0878 24.8637 5.89142 24.3758 5.72003V3.65625C24.3758 2.9826 23.8307 2.4375 23.157 2.4375H15.8445C15.1715 2.4375 14.6258 2.9826 14.6258 3.65625V5.72003C13.8402 5.99615 13.0857 6.33655 12.3739 6.73407C11.7866 7.06375 11.5765 7.80524 11.9056 8.39319C12.2335 8.97876 12.9756 9.18942 13.5641 8.86212C14.374 8.40866 15.253 8.04565 16.1772 7.78381C16.7015 7.63504 17.0633 7.15659 17.0633 6.61148V4.875H21.9383V6.61148C21.9383 7.15659 22.3001 7.63504 22.825 7.78381C23.7485 8.04565 24.6281 8.40866 25.4374 8.86212C25.9135 9.12753 26.5086 9.04541 26.8942 8.65979L28.1189 7.43509L31.5657 10.8819L30.341 12.1066C29.9554 12.4922 29.8732 13.0873 30.1386 13.5634C30.5921 14.3727 30.9551 15.2522 31.217 16.1758C31.3657 16.7007 31.8442 17.0625 32.3893 17.0625H34.1258V21.9375H32.3893C31.8442 21.9375 31.3657 22.2993 31.217 22.8242C30.9551 23.7478 30.5921 24.6273 30.1386 25.4366C29.8732 25.9127 29.9554 26.5078 30.341 26.8934L31.5657 28.1181L28.1189 31.5649L26.8942 30.3402C26.5086 29.9546 25.9135 29.8748 25.4374 30.1379C24.6281 30.5913 23.7485 30.9543 22.825 31.2162C22.3001 31.365 21.9383 31.8434 21.9383 32.3885V34.125H17.0633V32.3885C17.0633 31.8434 16.7015 31.365 16.1772 31.2162C15.253 30.9543 14.374 30.5913 13.5641 30.1379C12.975 29.8094 12.2335 30.0201 11.9056 30.6068C11.5765 31.1948 11.7866 31.9362 12.3739 32.2659C13.0857 32.6635 13.8402 33.0038 14.6258 33.28V35.3438C14.6258 36.0174 15.1715 36.5625 15.8445 36.5625H23.157C23.8307 36.5625 24.3758 36.0174 24.3758 35.3438V33.28C24.8637 33.1086 25.3386 32.9122 25.8004 32.6932L27.2572 34.15C27.7333 34.6261 28.5045 34.6261 28.9806 34.15L34.1508 28.9798C34.6268 28.5038 34.6268 27.7325 34.1508 27.2564L32.694 25.7997C32.913 25.3379 33.1093 24.863 33.2807 24.375H35.3445C36.0182 24.375 36.5633 23.8299 36.5633 23.1562V15.8438C36.5633 15.1701 36.0182 14.625 35.3445 14.625Z" fill="#BF0400"/>
</svg>
