<svg width="29" height="35" viewBox="0 0 29 35" fill="none" xmlns="http://www.w3.org/2000/svg">
<path d="M12.5777 0C11.7437 0 10.9439 0.331281 10.3543 0.920965C9.76458 1.51065 9.4333 2.31043 9.4333 3.14437C8.67426 3.13781 7.92505 3.31613 7.25037 3.66395C6.57568 4.01177 5.99583 4.51861 5.56088 5.1407C5.12594 5.7628 4.84899 6.48143 4.75397 7.23451C4.65894 7.9876 4.74869 8.7525 5.01546 9.46314C4.91531 9.45371 4.81878 9.43311 4.71674 9.43311C4.10008 9.43192 3.49673 9.6124 2.98201 9.95201C2.46729 10.2916 2.06401 10.7753 1.82251 11.3427C1.58102 11.9102 1.51201 12.5361 1.6241 13.1425C1.73619 13.7489 2.02442 14.3089 2.4528 14.7524C1.77239 15.1194 1.19375 15.6496 0.768787 16.2954C0.343829 16.9411 0.0858545 17.6823 0.018015 18.4524C-0.0498244 19.2225 0.0745937 19.9974 0.380104 20.7075C0.685614 21.4176 1.16266 22.0408 1.76842 22.5211C1.59158 22.9947 1.53264 23.5043 1.59669 24.0058C1.66074 24.5073 1.84585 24.9857 2.13606 25.3997C2.42627 25.8138 2.81285 26.1509 3.26245 26.3822C3.71205 26.6134 4.21117 26.7318 4.71674 26.7271C4.71674 27.9781 5.21366 29.1777 6.09819 30.0623C6.98271 30.9468 8.18239 31.4437 9.4333 31.4437C9.4333 32.2776 9.76458 33.0774 10.3543 33.6671C10.9439 34.2568 11.7437 34.5881 12.5777 34.5881C13.4116 34.5881 14.2114 34.2568 14.8011 33.6671C15.3908 33.0774 15.722 32.2776 15.722 31.4437V3.14437C15.722 2.31043 15.3908 1.51065 14.8011 0.920965C14.2114 0.331281 13.4116 0 12.5777 0ZM4.71674 22.4044C4.6125 22.4044 4.51253 22.363 4.43882 22.2893C4.36511 22.2156 4.3237 22.1156 4.3237 22.0114C4.3237 21.9071 4.36511 21.8072 4.43882 21.7334C4.51253 21.6597 4.6125 21.6183 4.71674 21.6183C5.38391 21.6162 6.02749 21.3714 6.5273 20.9294C7.0271 20.4875 7.34894 19.8787 7.43269 19.2168C6.85322 19.148 6.2999 18.9364 5.82238 18.601C5.34487 18.2655 4.9581 17.8168 4.6968 17.295C4.43549 16.7733 4.30782 16.1948 4.32524 15.6115C4.34266 15.0282 4.50463 14.4584 4.79661 13.9531C4.84873 13.8627 4.93463 13.7968 5.0354 13.7697C5.13618 13.7426 5.24358 13.7567 5.33398 13.8088C5.42438 13.8609 5.49037 13.9468 5.51744 14.0476C5.5445 14.1484 5.53043 14.2558 5.47831 14.3462C5.26734 14.7116 5.14327 15.1207 5.11568 15.5418C5.08808 15.9629 5.15771 16.3846 5.31918 16.7745C5.48065 17.1643 5.72963 17.5118 6.04686 17.7901C6.36409 18.0683 6.74107 18.2699 7.14865 18.3792C7.55623 18.4884 7.98348 18.5025 8.39736 18.4203C8.81124 18.338 9.20065 18.1617 9.53549 17.9049C9.87032 17.6481 10.1416 17.3177 10.3283 16.9393C10.5151 16.5609 10.6123 16.1446 10.6124 15.7226C10.6124 15.6184 10.6538 15.5184 10.7276 15.4447C10.8013 15.371 10.9012 15.3296 11.0055 15.3296C11.1097 15.3296 11.2097 15.371 11.2834 15.4447C11.3571 15.5184 11.3985 15.6184 11.3985 15.7226C11.3957 16.5964 11.0689 17.438 10.4814 18.0848C9.89393 18.7315 9.08745 19.1374 8.218 19.2239C8.13143 20.0933 7.72553 20.8998 7.0788 21.4872C6.43207 22.0747 5.59046 22.4015 4.71674 22.4044ZM11.0055 30.2646C10.9012 30.2646 10.8013 30.2232 10.7276 30.1494C10.6538 30.0757 10.6124 29.9758 10.6124 29.8715C10.6115 29.1421 10.3214 28.4428 9.80558 27.927C9.2898 27.4113 8.59053 27.1211 7.86111 27.1202C7.75687 27.1202 7.6569 27.0788 7.58319 27.0051C7.50947 26.9314 7.46807 26.8314 7.46807 26.7271C7.46807 26.6229 7.50947 26.5229 7.58319 26.4492C7.6569 26.3755 7.75687 26.3341 7.86111 26.3341C8.79893 26.3353 9.69801 26.7083 10.3612 27.3715C11.0243 28.0346 11.3974 28.9337 11.3985 29.8715C11.3985 29.9758 11.3571 30.0757 11.2834 30.1494C11.2097 30.2232 11.1097 30.2646 11.0055 30.2646ZM11.202 26.2251C11.1424 26.26 11.0745 26.2783 11.0055 26.2781C10.919 26.2781 10.835 26.2495 10.7664 26.1968C10.6978 26.1442 10.6485 26.0704 10.6261 25.9868C10.6037 25.9033 10.6095 25.8147 10.6426 25.7348C10.6756 25.6549 10.7341 25.5882 10.809 25.5449C11.2272 25.3033 11.5746 24.9559 11.8161 24.5375C12.0575 24.1192 12.1847 23.6447 12.1847 23.1617C12.1847 22.6786 12.0575 22.2041 11.8161 21.7858C11.5746 21.3675 11.2272 21.02 10.809 20.7785C10.7622 20.7538 10.7209 20.7199 10.6876 20.6789C10.6543 20.6378 10.6295 20.5905 10.6149 20.5397C10.6003 20.4889 10.5961 20.4357 10.6025 20.3832C10.6089 20.3307 10.6259 20.2801 10.6523 20.2343C10.6788 20.1885 10.7142 20.1486 10.7564 20.1168C10.7987 20.085 10.8469 20.0621 10.8982 20.0494C10.9496 20.0367 11.0029 20.0345 11.0551 20.0429C11.1073 20.0513 11.1573 20.0702 11.202 20.0983C11.7397 20.4088 12.1862 20.8554 12.4967 21.3931C12.8071 21.9309 12.9706 22.5408 12.9706 23.1617C12.9706 23.7827 12.8071 24.3926 12.4967 24.9304C12.1862 25.4681 11.7397 25.9147 11.202 26.2251ZM12.5777 11.3983C11.8482 11.3993 11.149 11.6894 10.6332 12.2052C10.1174 12.721 9.82726 13.4202 9.82634 14.1497C9.82634 14.2539 9.78493 14.3539 9.71122 14.4276C9.63751 14.5013 9.53754 14.5427 9.4333 14.5427C9.32905 14.5427 9.22908 14.5013 9.15537 14.4276C9.08166 14.3539 9.04025 14.2539 9.04025 14.1497C9.04061 13.5715 9.18268 13.0022 9.45402 12.4917C9.72537 11.9812 10.1177 11.5449 10.5967 11.2212C10.603 11.1503 10.6124 11.0825 10.6124 11.0053C10.6115 10.2759 10.3214 9.5766 9.80558 9.06083C9.2898 8.54505 8.59053 8.25489 7.86111 8.25397C7.75687 8.25397 7.6569 8.21256 7.58319 8.13885C7.50947 8.06514 7.46807 7.96517 7.46807 7.86093C7.46807 7.75668 7.50947 7.65671 7.58319 7.583C7.6569 7.50929 7.75687 7.46788 7.86111 7.46788C8.76782 7.4703 9.6389 7.82119 10.2941 8.44793C10.9493 9.07468 11.3386 9.92932 11.3812 10.835C11.7639 10.6914 12.1689 10.616 12.5777 10.6122C12.6819 10.6122 12.7819 10.6537 12.8556 10.7274C12.9293 10.8011 12.9707 10.9011 12.9707 11.0053C12.9707 11.1095 12.9293 11.2095 12.8556 11.2832C12.7819 11.3569 12.6819 11.3983 12.5777 11.3983ZM12.5777 6.68179C11.9569 6.6807 11.3473 6.51688 10.8095 6.20667C10.2718 5.89647 9.82485 5.45071 9.51316 4.91386C9.46104 4.82347 9.44697 4.71606 9.47403 4.61529C9.5011 4.51451 9.56709 4.42861 9.65749 4.37649C9.74789 4.32437 9.85529 4.3103 9.95607 4.33736C10.0568 4.36443 10.1427 4.43042 10.1949 4.52082C10.4371 4.93839 10.7846 5.28512 11.2027 5.52638C11.6208 5.76764 12.0949 5.89498 12.5777 5.89569C12.6819 5.89569 12.7819 5.9371 12.8556 6.01081C12.9293 6.08452 12.9707 6.1845 12.9707 6.28874C12.9707 6.39298 12.9293 6.49296 12.8556 6.56667C12.7819 6.64038 12.6819 6.68179 12.5777 6.68179Z" fill="#BF0400"/>
<path d="M21.3594 16.115C21.8804 16.1137 22.3797 15.9068 22.7489 15.5392L25.4328 12.8555L25.4364 12.8465C25.593 12.9257 25.7655 12.9681 25.9409 12.9706C26.1741 12.9706 26.4021 12.9014 26.596 12.7719C26.7899 12.6423 26.9411 12.4581 27.0303 12.2427C27.1196 12.0272 27.1429 11.7901 27.0974 11.5614C27.0519 11.3327 26.9396 11.1226 26.7747 10.9577C26.6098 10.7928 26.3997 10.6805 26.171 10.635C25.9422 10.5895 25.7051 10.6128 25.4897 10.7021C25.2742 10.7913 25.0901 10.9424 24.9605 11.1364C24.8309 11.3303 24.7618 11.5582 24.7618 11.7914C24.7643 11.9669 24.8067 12.1394 24.8858 12.296L24.8769 12.2996L22.1931 14.983C21.9717 15.2034 21.6723 15.3277 21.3599 15.3289H16.5078V16.115H21.3594ZM25.9409 11.3984C26.0187 11.3984 26.0947 11.4214 26.1593 11.4646C26.2239 11.5078 26.2743 11.5692 26.3041 11.641C26.3338 11.7129 26.3416 11.7919 26.3264 11.8681C26.3113 11.9444 26.2738 12.0144 26.2188 12.0694C26.1639 12.1243 26.0938 12.1618 26.0176 12.1769C25.9414 12.1921 25.8623 12.1843 25.7905 12.1546C25.7187 12.1248 25.6573 12.0744 25.6141 12.0098C25.5709 11.9452 25.5479 11.8692 25.5479 11.7914C25.5479 11.6872 25.5893 11.5872 25.663 11.5135C25.7367 11.4398 25.8367 11.3984 25.9409 11.3984Z" fill="#BF0400"/>
<path d="M24.8415 22.4035C24.9342 22.6657 25.1167 22.8868 25.3566 23.0275C25.5965 23.1682 25.8784 23.2196 26.1526 23.1726C26.4267 23.1256 26.6754 22.9831 26.8547 22.7705C27.034 22.5578 27.1323 22.2886 27.1323 22.0104C27.1323 21.7323 27.034 21.4631 26.8547 21.2504C26.6754 21.0378 26.4267 20.8953 26.1526 20.8483C25.8784 20.8012 25.5965 20.8526 25.3566 20.9934C25.1167 21.1341 24.9342 21.3551 24.8415 21.6174H16.5078V22.4035H24.8415ZM25.9409 21.6174C26.0187 21.6174 26.0947 21.6404 26.1593 21.6836C26.2239 21.7268 26.2743 21.7882 26.3041 21.86C26.3338 21.9318 26.3416 22.0109 26.3264 22.0871C26.3112 22.1634 26.2738 22.2334 26.2188 22.2884C26.1639 22.3433 26.0938 22.3808 26.0176 22.3959C25.9414 22.4111 25.8623 22.4033 25.7905 22.3736C25.7187 22.3438 25.6573 22.2934 25.6141 22.2288C25.5709 22.1642 25.5479 22.0882 25.5479 22.0104C25.5479 21.9062 25.5893 21.8062 25.663 21.7325C25.7367 21.6588 25.8367 21.6174 25.9409 21.6174Z" fill="#BF0400"/>
<path d="M20.1249 25.548C20.2177 25.8103 20.4001 26.0313 20.64 26.172C20.8799 26.3128 21.1619 26.3642 21.436 26.3171C21.7102 26.2701 21.9589 26.1277 22.1382 25.915C22.3174 25.7023 22.4158 25.4331 22.4158 25.155C22.4158 24.8768 22.3174 24.6076 22.1382 24.395C21.9589 24.1823 21.7102 24.0399 21.436 23.9928C21.1619 23.9458 20.8799 23.9972 20.64 24.1379C20.4001 24.2787 20.2177 24.4997 20.1249 24.7619H16.5078V25.548H20.1249ZM21.2244 24.7619C21.3021 24.7619 21.3781 24.785 21.4427 24.8282C21.5074 24.8714 21.5577 24.9327 21.5875 25.0046C21.6172 25.0764 21.625 25.1554 21.6099 25.2317C21.5947 25.3079 21.5573 25.3779 21.5023 25.4329C21.4473 25.4879 21.3773 25.5253 21.301 25.5405C21.2248 25.5556 21.1458 25.5478 21.074 25.5181C21.0021 25.4884 20.9408 25.438 20.8976 25.3733C20.8544 25.3087 20.8313 25.2327 20.8313 25.155C20.8313 25.0507 20.8727 24.9508 20.9464 24.877C21.0202 24.8033 21.1201 24.7619 21.2244 24.7619Z" fill="#BF0400"/>
<path d="M18.5528 6.68181C18.6455 6.94405 18.8279 7.16508 19.0678 7.30582C19.3078 7.44656 19.5897 7.49795 19.8639 7.45092C20.138 7.40388 20.3867 7.26144 20.566 7.04878C20.7453 6.83611 20.8436 6.56691 20.8436 6.28876C20.8436 6.01061 20.7453 5.74141 20.566 5.52874C20.3867 5.31608 20.138 5.17364 19.8639 5.1266C19.5897 5.07957 19.3078 5.13096 19.0678 5.2717C18.8279 5.41244 18.6455 5.63347 18.5528 5.89571H16.5078V6.68181H18.5528ZM19.6522 5.89571C19.7299 5.89571 19.8059 5.91877 19.8705 5.96195C19.9352 6.00514 19.9856 6.06653 20.0153 6.13835C20.0451 6.21017 20.0528 6.2892 20.0377 6.36544C20.0225 6.44168 19.9851 6.51172 19.9301 6.56669C19.8751 6.62165 19.8051 6.65909 19.7289 6.67425C19.6526 6.68942 19.5736 6.68164 19.5018 6.65189C19.43 6.62214 19.3686 6.57176 19.3254 6.50713C19.2822 6.44249 19.2591 6.3665 19.2591 6.28876C19.2591 6.18452 19.3005 6.08454 19.3743 6.01083C19.448 5.93712 19.5479 5.89571 19.6522 5.89571Z" fill="#BF0400"/>
<path d="M20.1249 19.2592C20.2177 19.5214 20.4001 19.7425 20.64 19.8832C20.8799 20.024 21.1619 20.0753 21.436 20.0283C21.7102 19.9813 21.9589 19.8388 22.1382 19.6262C22.3174 19.4135 22.4158 19.1443 22.4158 18.8662C22.4158 18.588 22.3174 18.3188 22.1382 18.1061C21.9589 17.8935 21.7102 17.751 21.436 17.704C21.1619 17.657 20.8799 17.7084 20.64 17.8491C20.4001 17.9898 20.2177 18.2109 20.1249 18.4731H16.5078V19.2592H20.1249ZM21.2244 18.4731C21.3021 18.4731 21.3781 18.4962 21.4427 18.5393C21.5074 18.5825 21.5577 18.6439 21.5875 18.7157C21.6172 18.7876 21.625 18.8666 21.6099 18.9428C21.5947 19.0191 21.5573 19.0891 21.5023 19.1441C21.4473 19.199 21.3773 19.2365 21.301 19.2516C21.2248 19.2668 21.1458 19.259 21.074 19.2293C21.0021 19.1995 20.9408 19.1492 20.8976 19.0845C20.8544 19.0199 20.8313 18.9439 20.8313 18.8662C20.8313 18.7619 20.8727 18.6619 20.9464 18.5882C21.0202 18.5145 21.1201 18.4731 21.2244 18.4731Z" fill="#BF0400"/>
<path d="M20.1249 9.82609C20.2177 10.0883 20.4001 10.3094 20.64 10.4501C20.8799 10.5908 21.1619 10.6422 21.436 10.5952C21.7102 10.5482 21.9589 10.4057 22.1382 10.1931C22.3174 9.9804 22.4158 9.7112 22.4158 9.43305C22.4158 9.15489 22.3174 8.88569 22.1382 8.67303C21.9589 8.46036 21.7102 8.31793 21.436 8.27089C21.1619 8.22385 20.8799 8.27525 20.64 8.41599C20.4001 8.55673 20.2177 8.77775 20.1249 9.04H16.5078V9.82609H20.1249ZM21.2244 9.04C21.3021 9.04 21.3781 9.06305 21.4427 9.10624C21.5074 9.14943 21.5577 9.21082 21.5875 9.28264C21.6172 9.35445 21.625 9.43348 21.6099 9.50973C21.5947 9.58597 21.5573 9.656 21.5023 9.71097C21.4473 9.76594 21.3773 9.80338 21.301 9.81854C21.2248 9.83371 21.1458 9.82592 21.074 9.79617C21.0021 9.76643 20.9408 9.71605 20.8976 9.65141C20.8544 9.58678 20.8313 9.51078 20.8313 9.43305C20.8313 9.3288 20.8727 9.22883 20.9464 9.15512C21.0202 9.08141 21.1201 9.04 21.2244 9.04Z" fill="#BF0400"/>
<path d="M18.8661 28.6923C18.9703 28.6923 19.0703 28.6509 19.144 28.5772C19.2177 28.5035 19.2591 28.4035 19.2591 28.2993C19.2591 28.1951 19.2177 28.0951 19.144 28.0214C19.0703 27.9477 18.9703 27.9062 18.8661 27.9062H16.5078V28.6923H18.8661Z" fill="#BF0400"/>
<path d="M22.0105 12.9704C22.1147 12.9704 22.2147 12.929 22.2884 12.8553C22.3621 12.7816 22.4035 12.6816 22.4035 12.5774C22.4035 12.4731 22.3621 12.3732 22.2884 12.2994C22.2147 12.2257 22.1147 12.1843 22.0105 12.1843H16.5078V12.9704H22.0105Z" fill="#BF0400"/>
<path d="M16.5085 3.53731H19.1371C19.8663 3.53957 20.5652 3.82919 21.0823 4.34337L22.3843 5.6453C23.049 6.30645 23.9477 6.67884 24.8853 6.68168H26.4144C26.5071 6.94393 26.6896 7.16496 26.9295 7.3057C27.1694 7.44644 27.4513 7.49783 27.7255 7.45079C27.9996 7.40376 28.2483 7.26132 28.4276 7.04866C28.6069 6.83599 28.7052 6.56679 28.7052 6.28864C28.7052 6.01048 28.6069 5.74128 28.4276 5.52862C28.2483 5.31595 27.9996 5.17352 27.7255 5.12648C27.4513 5.07944 27.1694 5.13084 26.9295 5.27158C26.6896 5.41232 26.5071 5.63334 26.4144 5.89559H24.8853C24.1561 5.89334 23.4571 5.60371 22.94 5.08953L21.6381 3.78761C20.9733 3.12644 20.0746 2.75405 19.1371 2.75122H16.4688C16.4888 2.88146 16.5021 3.01265 16.5085 3.14427V3.53731ZM27.5138 5.89559C27.5916 5.89559 27.6676 5.91864 27.7322 5.96183C27.7968 6.00502 27.8472 6.06641 27.8769 6.13823C27.9067 6.21004 27.9145 6.28907 27.8993 6.36532C27.8841 6.44156 27.8467 6.51159 27.7917 6.56656C27.7368 6.62153 27.6667 6.65897 27.5905 6.67413C27.5143 6.6893 27.4352 6.68151 27.3634 6.65176C27.2916 6.62202 27.2302 6.57164 27.187 6.507C27.1438 6.44237 27.1208 6.36637 27.1208 6.28864C27.1208 6.18439 27.1622 6.08442 27.2359 6.01071C27.3096 5.937 27.4096 5.89559 27.5138 5.89559Z" fill="#BF0400"/>
<path d="M27.5138 27.1201C27.2718 27.1216 27.0362 27.1979 26.8393 27.3387C26.6425 27.4794 26.494 27.6777 26.4144 27.9062H24.8853C23.9477 27.9091 23.049 28.2815 22.3843 28.9426L21.0823 30.2445C20.5652 30.7587 19.8663 31.0483 19.1371 31.0506H16.5085V31.4436C16.5021 31.5753 16.4888 31.7064 16.4688 31.8367H19.1371C20.0746 31.8339 20.9733 31.4615 21.6381 30.8003L22.94 29.4984C23.4571 28.9842 24.1561 28.6946 24.8853 28.6923H26.4144C26.4873 28.8947 26.6145 29.0732 26.782 29.2083C26.9495 29.3433 27.1509 29.4297 27.3642 29.4581C27.5775 29.4864 27.7945 29.4556 27.9915 29.3691C28.1884 29.2825 28.3578 29.1434 28.4811 28.9671C28.6044 28.7907 28.6769 28.5839 28.6907 28.3692C28.7044 28.1545 28.6589 27.9401 28.559 27.7495C28.4592 27.5589 28.3089 27.3994 28.1246 27.2884C27.9403 27.1774 27.729 27.1192 27.5138 27.1201ZM27.5138 28.6923C27.4361 28.6923 27.3601 28.6693 27.2955 28.6261C27.2308 28.5829 27.1804 28.5215 27.1507 28.4497C27.1209 28.3779 27.1132 28.2988 27.1283 28.2226C27.1435 28.1463 27.1809 28.0763 27.2359 28.0213C27.2909 27.9664 27.3609 27.9289 27.4371 27.9138C27.5134 27.8986 27.5924 27.9064 27.6642 27.9361C27.7361 27.9659 27.7974 28.0163 27.8406 28.0809C27.8838 28.1455 27.9069 28.2215 27.9069 28.2993C27.9069 28.4035 27.8655 28.5035 27.7917 28.5772C27.718 28.6509 27.6181 28.6923 27.5138 28.6923Z" fill="#BF0400"/>
</svg>
