<svg width="36" height="36" viewBox="0 0 36 36" fill="none" xmlns="http://www.w3.org/2000/svg">
<path d="M16.1236 20.6735C15.628 20.1778 14.825 20.1778 14.3294 20.6735L11.7917 23.2112C11.296 23.7068 11.296 24.5098 11.7917 25.0054L14.3294 27.5431C14.5772 27.791 14.9018 27.9149 15.2265 27.9149C15.5511 27.9149 15.8758 27.791 16.1236 27.5431C16.6192 27.0475 16.6192 26.2446 16.1236 25.7489L14.483 24.1083L16.1236 22.4677C16.6192 21.9721 16.6192 21.1691 16.1236 20.6735Z" fill="#BF0400"/>
<path d="M21.1992 20.6735C20.7035 20.1778 19.9006 20.1778 19.4049 20.6735C18.9093 21.1691 18.9093 21.9721 19.4049 22.4677L21.0455 24.1083L19.4049 25.7489C18.9093 26.2446 18.9093 27.0475 19.4049 27.5431C19.6528 27.791 19.9774 27.9149 20.3021 27.9149C20.6267 27.9149 20.9514 27.791 21.1992 27.5431L23.7369 25.0054C24.2325 24.5098 24.2325 23.7068 23.7369 23.2112L21.1992 20.6735Z" fill="#BF0400"/>
<path d="M35.5279 13.9574C35.5279 12.5584 34.3892 11.4197 32.9902 11.4197C31.5912 11.4197 30.4525 12.5584 30.4525 13.9574C30.4525 14.8922 30.9667 15.7017 31.7214 16.142V22.8394H30.4525V19.0725C30.4525 16.9511 28.745 15.2263 26.6459 15.2263H24.1082V11.4197H27.9148C28.6161 11.4197 29.1836 10.8522 29.1836 10.1508V4.72227C29.9383 4.282 30.4525 3.47247 30.4525 2.53771C30.4525 1.13875 29.3138 0 27.9148 0C26.5158 0 25.3771 1.13875 25.3771 2.53771C25.3771 3.47247 25.8912 4.282 26.6459 4.72227V8.88198H22.8394C22.138 8.88198 21.5705 9.44949 21.5705 10.1508V15.2263H19.0328V4.72227C19.7875 4.282 20.3017 3.47247 20.3017 2.53771C20.3017 1.13875 19.1629 0 17.764 0C16.365 0 15.2263 1.13875 15.2263 2.53771C15.2263 3.47247 15.7404 4.282 16.4951 4.72227V15.2263H13.9574V10.1508C13.9574 9.44949 13.3899 8.88198 12.6885 8.88198H8.88198V4.72227C9.63668 4.282 10.1508 3.47247 10.1508 2.53771C10.1508 1.13875 9.01209 0 7.61313 0C6.21416 0 5.07542 1.13875 5.07542 2.53771C5.07542 3.47247 5.58957 4.282 6.34427 4.72227V10.1508C6.34427 10.8522 6.91179 11.4197 7.61313 11.4197H11.4197V15.2263H8.88198C6.74698 15.2263 5.07542 16.8978 5.07542 19.0328V22.8394H3.80656V16.142C4.56126 15.7017 5.07542 14.8922 5.07542 13.9574C5.07542 12.5584 3.93667 11.4197 2.53771 11.4197C1.13875 11.4197 0 12.5584 0 13.9574C0 14.8922 0.514156 15.7017 1.26885 16.142V24.1082C1.26885 24.8096 1.83637 25.3771 2.53771 25.3771H5.07542V29.1836H3.80656C3.10522 29.1836 2.53771 29.7512 2.53771 30.4525C2.53771 33.2517 4.81396 35.5279 7.61313 35.5279H27.9148C30.714 35.5279 32.9902 33.2517 32.9902 30.4525C32.9902 29.7512 32.4227 29.1836 31.7214 29.1836H30.4525V25.3771H32.9902C33.6916 25.3771 34.2591 24.8096 34.2591 24.1082V16.142C35.0138 15.7017 35.5279 14.8922 35.5279 13.9574ZM27.9148 32.9902H7.61313C6.67512 32.9902 5.85482 32.4797 5.41617 31.7214H30.1117C29.6731 32.4797 28.8528 32.9902 27.9148 32.9902ZM7.61313 29.1836V19.0328C7.61313 18.3092 8.15834 17.764 8.88198 17.764H26.6459C27.3572 17.764 27.9148 18.3389 27.9148 19.0725V29.1836H7.61313Z" fill="#BF0400"/>
</svg>
