<svg width="14" height="19" viewBox="0 0 14 19" fill="none" xmlns="http://www.w3.org/2000/svg">
<path fill-rule="evenodd" clip-rule="evenodd" d="M2.53461 0.170904C2.59316 -0.0254346 2.86636 0.0209884 3.06696 0.0626366L10.0802 1.51867C10.6504 1.63706 11.1739 1.91889 11.5867 2.32977L13.1165 3.85244C13.6821 4.41545 14.0001 5.18063 14.0001 5.9787V16.1935C14.0001 16.321 13.901 16.406 13.7593 16.4202L2.76526 18.1345C2.63775 18.1486 2.52441 18.0353 2.52441 17.9078V0.240848C2.52441 0.216808 2.52794 0.193272 2.53461 0.170904Z" fill="url(#paint0_linear_1_1956)"/>
<path opacity="0.2" fill-rule="evenodd" clip-rule="evenodd" d="M2.86328 0.158641C2.86328 0.0838964 2.93166 0.0278365 3.00496 0.0424953C3.03034 0.050956 3.04746 0.0747093 3.04746 0.101464V18.0129C3.04746 18.0584 3.0143 18.0971 2.96937 18.104C2.91359 18.1125 2.86328 18.0694 2.86328 18.0129V0.158641ZM3.33778 0.112305C3.34257 0.112989 3.34728 0.114102 3.35187 0.115631L3.35443 0.116484C3.39955 0.131524 3.42998 0.173748 3.42998 0.221309V17.9563C3.42998 18.0017 3.39682 18.0404 3.3519 18.0473C3.29611 18.0559 3.24581 18.0127 3.24581 17.9563V0.192078C3.24581 0.143039 3.28924 0.10537 3.33778 0.112305ZM3.79834 17.8854C3.79834 17.9309 3.76518 17.9695 3.72025 17.9765C3.66447 17.985 3.61416 17.9419 3.61416 17.8854V0.285764C3.61416 0.226543 3.66925 0.182717 3.72696 0.196033C3.76874 0.205675 3.79834 0.242882 3.79834 0.285764V17.8854Z" fill="black"/>
<path opacity="0.4" fill-rule="evenodd" clip-rule="evenodd" d="M6.10637 7.27713C4.29374 7.73311 2.53501 6.3648 2.53131 4.4957C2.52774 2.68731 4.17529 1.32505 5.95081 1.66834L9.339 2.32344C9.69319 2.39428 9.99071 2.62096 9.99071 2.97515V5.76615C9.99071 6.12034 9.70736 6.37536 9.35317 6.46036L6.10637 7.27713Z" fill="black"/>
<path opacity="0.4" fill-rule="evenodd" clip-rule="evenodd" d="M10.7817 1.7002C10.8816 1.7002 10.9773 1.73972 11.048 1.81014L13.9512 4.69977C13.9719 4.72043 13.9836 4.74851 13.9836 4.7778C13.9836 4.8386 13.9343 4.88789 13.8735 4.88789H11.2918C11.0084 4.88789 10.7676 4.66121 10.7676 4.36369V1.71436C10.7676 1.70654 10.7739 1.7002 10.7817 1.7002Z" fill="black"/>
<path fill-rule="evenodd" clip-rule="evenodd" d="M0.496459 0.623514L9.49285 2.32362C9.76203 2.38029 9.98872 2.5503 9.98872 2.81948V5.75217C9.98872 6.02135 9.76203 6.20553 9.49285 6.24803L0.496459 7.97647C0.227276 8.03314 0.000595265 7.74979 0.000595265 7.48061V1.11938C-0.0135723 0.850195 0.227276 0.566844 0.496459 0.623514Z" fill="url(#paint1_linear_1_1956)"/>
<path fill-rule="evenodd" clip-rule="evenodd" d="M12.457 3.21113C13.0197 3.77124 12.623 4.73205 11.829 4.73205H11.2932C11.0948 4.73205 10.939 4.57621 10.939 4.37786V3.84197C10.939 3.05 11.8956 2.65242 12.457 3.21113Z" fill="url(#paint2_linear_1_1956)"/>
<path d="M2.29395 5.8512V3.48522C2.29395 3.10964 2.59841 2.80518 2.97399 2.80518C3.28567 2.80518 3.51235 2.89018 3.65403 3.06019C3.80987 3.2302 3.88071 3.48522 3.88071 3.82524C3.88071 4.15109 3.79571 4.39194 3.62569 4.57612C3.45568 4.7603 3.229 4.8453 2.93148 4.8453C2.90019 4.8453 2.87481 4.87067 2.87481 4.90197V5.54659C2.87481 5.707 2.74478 5.83703 2.58438 5.83703H2.30811C2.30029 5.83703 2.29395 5.84337 2.29395 5.8512ZM3.20067 3.40021C3.07533 3.2498 2.88898 3.41726 2.88898 3.61305V4.34944C2.88898 4.36509 2.90167 4.37777 2.91732 4.37777C3.04483 4.37777 3.144 4.33527 3.20067 4.2361C3.27151 4.13692 3.29984 3.99525 3.29984 3.81107C3.29984 3.62689 3.27151 3.49939 3.20067 3.40021Z" fill="white"/>
<path d="M4.26416 5.8512V3.40021C4.26416 3.07158 4.53057 2.80518 4.8592 2.80518C5.27006 2.80518 5.55341 2.91852 5.73759 3.1452C5.92176 3.37188 6.00677 3.74023 6.00677 4.25027C6.00677 4.8028 5.92176 5.19949 5.73759 5.45451C5.56757 5.70952 5.28422 5.83703 4.9017 5.83703H4.27833C4.2705 5.83703 4.26416 5.84337 4.26416 5.8512ZM4.84503 5.3695H4.8592C5.05754 5.3695 5.18505 5.29866 5.27006 5.14282C5.35506 4.98698 5.3834 4.71779 5.3834 4.33527C5.3834 3.93858 5.34089 3.6694 5.27006 3.51355C5.18505 3.35771 5.05754 3.28687 4.8592 3.28687C4.84355 3.28687 4.83086 3.29956 4.83086 3.31521V5.35533C4.83086 5.36316 4.83721 5.3695 4.84503 5.3695Z" fill="white"/>
<path d="M6.40283 5.8512V3.44272C6.40283 3.09061 6.68827 2.80518 7.04037 2.80518H7.43706C7.57008 2.80518 7.67791 2.91301 7.67791 3.04602C7.67791 3.17904 7.57008 3.28687 7.43706 3.28687H7.33789C7.1501 3.28687 6.99787 3.4391 6.99787 3.62689V3.6694C6.99787 3.85718 7.1501 4.00942 7.33789 4.00942H7.44415C7.57325 4.00942 7.67791 4.11408 7.67791 4.24318C7.67791 4.37229 7.57325 4.47695 7.44415 4.47695H7.33789C7.1501 4.47695 6.99787 4.62918 6.99787 4.81697V5.53951C6.99787 5.70383 6.86467 5.83703 6.70035 5.83703H6.417C6.40917 5.83703 6.40283 5.84337 6.40283 5.8512Z" fill="white"/>
<path fill-rule="evenodd" clip-rule="evenodd" d="M7.78129 11.3341C7.88627 11.4653 7.99224 11.5965 8.10184 11.7238L8.46134 12.1416C8.54634 12.2266 8.64551 12.3116 8.74469 12.3966C8.90053 12.5242 9.05637 12.6517 9.21222 12.7792C9.36806 12.9067 9.53807 13.02 9.70808 13.1334C9.76475 13.1617 9.93476 13.275 9.99143 13.275C10.2181 13.275 10.4448 13.2609 10.6715 13.2467C10.9973 13.2325 11.3232 13.2184 11.649 13.2184C12.0316 13.2184 12.4566 13.2325 12.8391 13.3175C13.1225 13.3742 13.505 13.5017 13.6325 13.7992C13.6665 13.9013 13.6864 14.0096 13.6733 14.1163C13.6618 14.2101 13.6305 14.298 13.5758 14.3801C13.4341 14.5784 13.1933 14.6918 12.9666 14.7343C12.6408 14.791 12.2299 14.7343 11.9041 14.6776C11.5782 14.6209 11.2382 14.5359 10.9123 14.4226C10.714 14.3659 10.5298 14.2809 10.3456 14.1959C10.2039 14.1392 10.0764 14.0826 9.93476 14.0259C9.79042 13.9537 9.62669 13.939 9.46556 13.9479C9.15541 13.9652 8.83492 14.0123 8.53217 14.0684C8.12131 14.1534 7.71046 14.2526 7.31376 14.3659C7.12959 14.4226 6.71873 14.5076 6.61955 14.6634C6.30787 15.1026 5.93951 15.6835 5.42948 15.9102C5.04696 16.0802 4.60776 15.9527 4.39525 15.5843C4.33858 15.4852 4.31024 15.3718 4.32441 15.2585C4.39525 14.7485 5.23113 14.4509 5.65616 14.2668C5.78367 14.2101 5.91118 14.1676 6.03868 14.1251C6.09535 14.1109 6.15203 14.0826 6.2087 14.0542C6.2512 14.0259 6.27953 13.9692 6.30787 13.9267C6.44954 13.6859 6.57705 13.445 6.69039 13.19C6.73289 13.0767 6.7754 12.9492 6.80373 12.8358C6.8604 12.6658 6.90291 12.4816 6.94541 12.2975C6.97894 12.1522 7.04774 11.8129 7.05442 11.5857C7.0574 11.4844 7.01578 11.39 6.95958 11.3057C6.90291 11.2066 6.83207 11.1074 6.7754 11.0224C6.60539 10.7532 6.44954 10.4699 6.30787 10.1865C6.13786 9.86065 5.93951 9.43563 5.89701 9.06727C5.84034 8.59974 5.99618 8.31639 6.44954 8.16055C6.63372 8.10388 6.8179 8.08971 7.00208 8.17471C7.46961 8.40139 7.61128 9.15227 7.66795 9.63397C7.71046 10.0023 7.71046 10.3849 7.71046 10.7532V11.1074C7.71046 11.1499 7.71046 11.2066 7.72462 11.2349C7.73879 11.2632 7.75296 11.3057 7.78129 11.3341ZM6.84624 9.74731C6.88962 9.82541 7.01781 9.7907 7.00799 9.70191C6.97253 9.38124 6.9153 9.08233 6.8179 8.89726C6.78956 8.84059 6.69039 8.76975 6.61955 8.78392C6.57705 8.79809 6.57705 8.91143 6.57705 8.93976C6.57705 9.19478 6.7329 9.5348 6.84624 9.74731ZM11.6604 13.8708C11.6299 13.8781 11.6238 13.9274 11.6541 13.9352C11.9486 14.0108 12.2476 14.0684 12.5274 14.0684C12.6543 14.0684 12.7812 14.0684 12.8942 14.0405C12.8952 14.0402 12.8959 14.0401 12.897 14.04C12.9112 14.0393 12.9131 14.0088 12.8996 14.004C12.8597 13.99 12.8209 13.9803 12.8 13.9709C12.7977 13.9698 12.7954 13.9689 12.793 13.9683C12.6379 13.9265 12.4554 13.9125 12.3007 13.8984C12.0893 13.8843 11.8779 13.8702 11.6665 13.8701C11.6643 13.8701 11.6625 13.8702 11.6604 13.8708ZM7.35508 13.3087C7.28796 13.4832 7.44506 13.6642 7.62545 13.6151C7.96547 13.5159 8.31966 13.445 8.67385 13.3884C8.70183 13.3837 8.72828 13.3806 8.7542 13.378C8.81559 13.3718 8.83589 13.2987 8.78719 13.2609C8.57468 13.1192 8.348 12.9067 8.16382 12.7225C7.96056 12.5192 7.5821 12.6245 7.49723 12.8992C7.45445 13.0376 7.40697 13.1737 7.35508 13.3087ZM5.47198 15.1026C5.46391 15.1107 5.45124 15.1142 5.43922 15.1183C5.42218 15.1241 5.4067 15.1343 5.39031 15.1418C5.31526 15.1759 5.1789 15.2507 5.0975 15.3118C5.08983 15.3176 5.09403 15.3293 5.10363 15.3293C5.21697 15.3435 5.37281 15.2018 5.47198 15.1026Z" fill="url(#paint3_linear_1_1956)"/>
<path fill-rule="evenodd" clip-rule="evenodd" d="M5.3442 14.9613C5.56845 14.8567 5.75221 15.0921 5.57522 15.265C5.35844 15.4769 5.10902 15.6189 4.90501 15.443C4.69249 15.2588 5.21669 15.018 5.3442 14.9613ZM7.94861 13.7118C7.50871 13.8239 7.13624 13.3887 7.27897 12.9577C7.36719 12.6914 7.43763 12.4092 7.47928 12.1027C7.49617 11.9784 7.65255 11.9231 7.73852 12.0145C8.0077 12.2978 8.54607 12.8929 8.88609 13.1054C9.09504 13.2606 9.02939 13.531 8.76995 13.552C8.73909 13.5545 8.71125 13.5568 8.68774 13.5587C8.40082 13.6057 8.16576 13.6565 7.94861 13.7118ZM12.853 13.7996C13.6747 13.9838 13.1505 14.6496 11.0679 13.9554C10.9687 13.9271 10.8837 13.8846 10.7704 13.8563C10.6551 13.813 10.6771 13.7162 10.8001 13.7111C11.4235 13.6853 12.3641 13.6923 12.853 13.7996ZM7.20563 9.68742C7.2532 10.1049 6.88196 10.2131 6.67595 9.84684C5.96757 8.44425 6.76095 8.44425 6.97347 8.81261C7.09639 9.01316 7.16613 9.34073 7.20563 9.68742ZM6.53427 8.34508C6.22259 8.45842 6.06675 8.62843 6.10925 9.05345C6.20842 9.861 7.21432 11.2919 7.24265 11.3769C7.35599 11.7311 7.01597 12.9495 6.88846 13.2754C6.77512 13.5729 6.63345 13.7996 6.49177 14.0404C6.33593 14.3096 6.25092 14.2671 5.75506 14.4655C5.3867 14.6213 4.2958 15.0038 4.57915 15.5139C4.70666 15.7547 5.03251 15.9105 5.37254 15.7547C5.8259 15.5422 6.19425 14.9755 6.4776 14.5646C6.63345 14.3521 7.01597 14.2813 7.27099 14.1963C7.90853 13.9979 9.02776 13.7429 9.73614 13.7571C9.84948 13.7571 10.6429 14.1254 10.9829 14.2388C11.4787 14.3946 12.3855 14.6355 12.938 14.5363C13.2355 14.4938 13.533 14.2954 13.5047 13.9554C13.4197 13.162 10.7137 13.4454 10.0053 13.4596C9.69364 13.4596 8.54607 12.4962 8.31939 12.2695L7.79519 11.6461C7.51184 11.2494 7.54017 11.3486 7.54017 10.7536C7.54017 10.3994 7.526 10.0027 7.49767 9.64849C7.42683 9.08179 7.21432 8.10423 6.53427 8.34508Z" fill="white"/>
<defs>
<linearGradient id="paint0_linear_1_1956" x1="8.25604" y1="-11.6114" x2="8.25604" y2="29.7459" gradientUnits="userSpaceOnUse">
<stop stop-color="#D74A4B"/>
<stop offset="1" stop-color="#891719"/>
</linearGradient>
<linearGradient id="paint1_linear_1_1956" x1="4.98743" y1="-7.75191" x2="4.98743" y2="15.3264" gradientUnits="userSpaceOnUse">
<stop stop-color="#E15355"/>
<stop offset="1" stop-color="#CD1F26"/>
</linearGradient>
<linearGradient id="paint2_linear_1_1956" x1="12.4691" y1="9.71365" x2="12.4691" y2="-3.27729" gradientUnits="userSpaceOnUse">
<stop stop-color="#E15355"/>
<stop offset="1" stop-color="#CD1F26"/>
</linearGradient>
<linearGradient id="paint3_linear_1_1956" x1="9.01954" y1="-10.5249" x2="9.01954" y2="34.6448" gradientUnits="userSpaceOnUse">
<stop stop-color="#D74A4B"/>
<stop offset="1" stop-color="#891719"/>
</linearGradient>
</defs>
</svg>
