<svg width="45" height="46" viewBox="0 0 45 46" fill="none" xmlns="http://www.w3.org/2000/svg">
<path d="M19.2593 10.7991C20.228 10.1275 21.3637 9.77246 22.5439 9.77246M19.2593 10.7991L22.5439 9.77246M19.2593 10.7991C18.9907 10.9854 18.9226 11.356 19.1076 11.6269M19.2593 10.7991L19.1076 11.6269M22.5439 9.77246C25.7421 9.77246 28.3446 12.3941 28.3446 15.6171C28.3446 18.8403 25.7421 21.4619 22.5439 21.4619C19.3458 21.4619 16.7432 18.8403 16.7432 15.6171C16.7432 14.6803 16.9687 13.7484 17.3952 12.9226L22.5439 9.77246ZM19.1076 11.6269C19.2925 11.8975 19.6599 11.9657 19.9283 11.7797C20.6993 11.2451 21.6038 10.9626 22.5439 10.9626C25.0919 10.9626 27.1642 13.0509 27.1642 15.6171C27.1642 18.1834 25.0919 20.2718 22.5439 20.2718C19.9959 20.2718 17.9237 18.1834 17.9237 15.6171C17.9237 14.8602 18.0982 14.1384 18.4423 13.4721C18.5929 13.1803 18.4802 12.821 18.1911 12.6694L19.1076 11.6269ZM17.3952 12.9226C17.5458 12.631 17.902 12.5181 18.1911 12.6694L17.3952 12.9226Z" fill="white" stroke="white" stroke-width="0.0878906"/>
<path d="M29.5936 28.7367L29.5925 28.7379C29.59 28.7409 29.5882 28.7433 29.5858 28.7465C29.5843 28.7486 29.5824 28.751 29.58 28.7542L29.5798 28.7543C29.3351 29.0664 29.0808 29.3818 28.8161 29.7007C26.183 32.8731 23.5186 35.1894 22.528 36.0127L22.4999 36.036L22.4718 36.0127C21.4841 35.1922 18.8322 32.8875 16.201 29.7212C15.9297 29.3948 15.6695 29.0721 15.4191 28.7528L29.5936 28.7367ZM29.5936 28.7367C34.3863 22.619 35.4252 17.8144 35.4252 14.8025C35.4252 7.62243 29.6273 1.78039 22.5 1.78039C15.3726 1.78039 9.57467 7.62234 9.57467 14.8025C9.57467 17.8155 10.6143 22.62 15.4069 28.7372L15.4068 28.7372M29.5936 28.7367L15.4068 28.7372M15.4068 28.7372L15.4078 28.7384M15.4068 28.7372L15.4078 28.7384M15.4078 28.7384C15.4093 28.7402 15.4104 28.7415 15.4115 28.743M15.4078 28.7384L15.4115 28.743M15.4115 28.743C15.4133 28.7453 15.4152 28.7478 15.4189 28.7526L15.4115 28.743ZM31.3566 28.4467L31.3053 28.5166H31.392H37.8561C38.1036 28.5166 38.327 28.6666 38.4222 28.8972L38.4567 28.8829L38.4222 28.8972L44.9089 44.6002C44.9878 44.791 44.9667 45.0091 44.8528 45.1809L44.8847 45.202L44.8528 45.181C44.739 45.3529 44.5475 45.4561 44.3427 45.4561H0.6572C0.452316 45.4561 0.260902 45.3529 0.147171 45.181L0.14715 45.1809C0.0332469 45.0091 0.0122086 44.7911 0.0911043 44.6002L0.0911083 44.6002L1.14184 42.0563C1.27203 41.7411 1.63091 41.5921 1.94353 41.7233L1.95995 41.6841L1.94354 41.7233C2.25616 41.8543 2.40445 42.2161 2.27411 42.5317L1.60201 44.1588L1.57693 44.2195H1.64263H6.1167H6.1461L6.15732 44.1924L8.47587 38.5795L8.50096 38.5188H8.43526H3.9611H3.9317L3.92048 38.5459L3.28978 40.0728L3.32354 40.0867L3.28977 40.0728C3.19171 40.3103 2.96363 40.4535 2.72342 40.4535C2.64499 40.4535 2.56534 40.4382 2.48816 40.4058C2.17555 40.2748 2.02725 39.913 2.15759 39.5974L6.57779 28.8971L6.53987 28.8814L6.57779 28.8971C6.67292 28.6666 6.89639 28.5165 7.14388 28.5165H13.608H13.6947L13.6434 28.4466C12.3874 26.7348 11.3423 25.03 10.5264 23.3567C9.08026 20.3914 8.34807 17.5134 8.34807 14.8025C8.34807 6.94006 14.6969 0.543945 22.5 0.543945C30.303 0.543945 36.6518 6.94006 36.6519 14.8026C36.6519 17.5135 35.9197 20.3914 34.4736 23.3568C33.6576 25.0301 32.6125 26.7348 31.3566 28.4467ZM7.58219 29.7531H7.5528L7.54157 29.7802L5.90971 33.7308L5.88463 33.7915H5.95033H10.4245H10.4539L10.4651 33.7643L12.0971 29.8138L12.1221 29.7531H12.0564H7.58219ZM11.3849 44.1589L11.3598 44.2196H11.4255H27.2243H27.3437L27.2527 44.1422L15.562 34.1975L15.516 34.1584L15.493 34.2142L11.3849 44.1589ZM29.2333 44.2091L29.2457 44.2196H29.2618H33.1229H33.2399L33.1518 44.1426L26.5483 38.3676C26.3549 38.1985 26.2861 37.926 26.3756 37.6841C26.4654 37.4423 26.6944 37.2823 26.9502 37.2823H40.4915H40.5572L40.5321 37.2216L39.6372 35.0551L39.626 35.0279H39.5966H35.5817C35.2432 35.0279 34.9684 34.7515 34.9684 34.4097C34.9684 34.0679 35.2433 33.7915 35.5817 33.7915H39.0496H39.1153L39.0902 33.7308L37.4583 29.7802L37.4471 29.7531H37.4177H30.3792H30.358L30.3448 29.7697C30.147 30.0183 29.9458 30.2668 29.7395 30.5152C28.739 31.7189 27.7439 32.7943 26.8334 33.7167L26.7596 33.7915H26.8647H32.9528C33.2912 33.7915 33.5661 34.0679 33.5661 34.4097C33.5661 34.7514 33.2912 35.0279 32.9528 35.0279H25.5101H25.4927L25.48 35.0399C23.9944 36.4407 22.9515 37.2593 22.8751 37.3188L22.9002 37.351L22.8751 37.3188C22.7647 37.405 22.6323 37.448 22.5 37.448C22.3676 37.448 22.2353 37.405 22.1248 37.3189C21.9855 37.2102 18.649 34.5925 15.2605 30.5151C15.0542 30.2667 14.8531 30.0181 14.6552 29.7696L14.642 29.753H14.6208H13.4802H13.4508L13.4396 29.7802L11.429 34.6473L11.4696 34.6641L11.429 34.6473C11.3338 34.8778 11.1104 35.0278 10.8629 35.0278H5.40329H5.3739L5.36268 35.055L4.46778 37.2215L4.44269 37.2822H4.50839H9.42069C9.62558 37.2822 9.81708 37.3854 9.9308 37.5573L9.93082 37.5573C10.0447 37.7293 10.0658 37.9472 9.98687 38.1381L10.0275 38.1549L9.98687 38.1381L7.49991 44.1588L7.47483 44.2195H7.54053H10.0018H10.0312L10.0424 44.1924L14.7056 32.9039L14.665 32.8871L14.7057 32.9038C14.7808 32.7219 14.9376 32.587 15.1275 32.5407L15.1171 32.498L15.1275 32.5407C15.3171 32.4943 15.5178 32.5419 15.6672 32.6691L15.6957 32.6356L15.6673 32.6691L29.2333 44.2091ZM35.0992 44.2087L35.1117 44.2196H35.1282H43.3574H43.4231L43.398 44.1589L41.0793 38.546L41.0681 38.5188H41.0387H28.71H28.593L28.6811 38.5959L35.0992 44.2087Z" fill="white" stroke="white" stroke-width="0.0878906"/>
</svg>
