<svg width="45" height="45" viewBox="0 0 45 45" fill="none" xmlns="http://www.w3.org/2000/svg">
<path d="M33.5881 8.03123L33.4796 7.70563H33.1364H11.25C10.4667 7.70563 8.59472 7.97587 6.90226 8.91612C5.18773 9.86864 3.61472 11.5402 3.61472 14.3182C3.61472 17.0961 5.18773 18.7677 6.90226 19.7202C8.59472 20.6605 10.4667 20.9307 11.25 20.9307H33.75C36.0048 20.9307 38.7148 21.7187 40.8514 23.3396C42.9747 24.9504 44.5238 27.3743 44.5238 30.6818C44.5238 33.9894 42.9747 36.4132 40.8514 38.024C38.7148 39.6449 36.0048 40.4329 33.75 40.4329H11.8636H11.5204L11.4119 40.7585C10.659 43.0172 8.59194 44.5238 6.13636 44.5238C2.92208 44.5238 0.476191 42.0779 0.476191 38.8636C0.476191 35.6494 2.92208 33.2035 6.13636 33.2035C8.59194 33.2035 10.659 34.71 11.4119 36.9688L11.5204 37.2944H11.8636H33.75C34.5333 37.2944 36.4053 37.0241 38.0977 36.0839C39.8123 35.1314 41.3853 33.4598 41.3853 30.6818C41.3853 27.9039 39.8123 26.2323 38.0977 25.2798C36.4053 24.3395 34.5333 24.0693 33.75 24.0693H11.25C8.99518 24.0693 6.28522 23.2813 4.1486 21.6604C2.02526 20.0496 0.476191 17.6257 0.476191 14.3182C0.476191 11.0106 2.02526 8.58677 4.1486 6.97597C6.28522 5.35508 8.99518 4.5671 11.25 4.5671H33.1364H33.4796L33.5881 4.24149C34.341 1.98277 36.4081 0.476191 38.8636 0.476191C42.0779 0.476191 44.5238 2.92208 44.5238 6.13636C44.5238 9.35064 42.0779 11.7965 38.8636 11.7965C36.4081 11.7965 34.341 10.29 33.5881 8.03123ZM41.3853 6.13636C41.3853 5.41451 41.1426 4.77597 40.6833 4.31669C40.224 3.85741 39.5855 3.61472 38.8636 3.61472C38.1418 3.61472 37.5032 3.85741 37.044 4.31669C36.5847 4.77597 36.342 5.41451 36.342 6.13636C36.342 6.85821 36.5847 7.49676 37.044 7.95604C37.5032 8.41531 38.1418 8.65801 38.8636 8.65801C39.5855 8.65801 40.224 8.41531 40.6833 7.95604C41.1426 7.49676 41.3853 6.85821 41.3853 6.13636ZM3.61472 38.8636C3.61472 39.5855 3.85741 40.224 4.31669 40.6833C4.77597 41.1426 5.41451 41.3853 6.13636 41.3853C6.85821 41.3853 7.49676 41.1426 7.95604 40.6833C8.41531 40.224 8.65801 39.5855 8.65801 38.8636C8.65801 38.1418 8.41531 37.5032 7.95604 37.044C7.49676 36.5847 6.85821 36.342 6.13636 36.342C5.41451 36.342 4.77597 36.5847 4.31669 37.044C3.85741 37.5032 3.61472 38.1418 3.61472 38.8636Z" fill="white" stroke="#1D2B58" stroke-width="0.952381"/>
</svg>
