<svg width="45" height="46" viewBox="0 0 45 46" fill="none" xmlns="http://www.w3.org/2000/svg">
<path d="M11.7967 2.92809L11.7967 2.92809L11.795 2.92725C11.7534 2.90664 11.7164 2.878 11.6859 2.84299C11.6555 2.80798 11.6323 2.76729 11.6176 2.72327C11.603 2.67925 11.5972 2.63276 11.6006 2.5865C11.604 2.54023 11.6166 2.4951 11.6375 2.4537L11.6375 2.4537L11.6382 2.4523L12.3413 1.04605L12.3414 1.04598C12.3706 0.987536 12.4155 0.938388 12.471 0.904047C12.5266 0.869707 12.5907 0.851532 12.656 0.851563H12.6562L32.3437 0.851563L32.3438 0.851563C32.4092 0.851532 32.4732 0.869707 32.5288 0.904047C32.5844 0.938388 32.6293 0.987536 32.6585 1.04598L32.6585 1.04605L33.3616 2.45216C33.3822 2.4935 33.3945 2.5385 33.3978 2.58459C33.401 2.63068 33.3952 2.67696 33.3805 2.72079C33.3659 2.76462 33.3428 2.80514 33.3125 2.84003C33.2822 2.87492 33.2453 2.90351 33.204 2.92415C33.1627 2.9448 33.1177 2.9571 33.0716 2.96036C33.0255 2.96361 32.9792 2.95776 32.9354 2.94312C32.8469 2.91358 32.7737 2.85007 32.732 2.76659L32.732 2.76654L32.2236 1.74911L32.1265 1.55469H31.9091H13.0907H12.8727L12.7758 1.74998L12.2709 2.76741L12.2709 2.76741L12.2702 2.76883C12.2498 2.81054 12.2212 2.84778 12.1863 2.8784C12.1514 2.90902 12.1107 2.93241 12.0667 2.94722C12.0226 2.96203 11.9761 2.96796 11.9297 2.96468C11.8834 2.9614 11.8382 2.94896 11.7967 2.92809Z" fill="white" stroke="white" stroke-width="0.703125"/>
<path d="M43.5938 44.4453H43.9453V44.0938V43.3906C43.9453 43.1109 43.8342 42.8426 43.6364 42.6448C43.4386 42.4471 43.1703 42.3359 42.8906 42.3359H2.10938C1.82966 42.3359 1.56139 42.4471 1.3636 42.6448C1.16581 42.8426 1.05469 43.1109 1.05469 43.3906V44.0938V44.4453H1.40625H43.5938ZM2.10938 41.6328H42.8906C43.3568 41.6328 43.8039 41.818 44.1336 42.1477C44.4632 42.4773 44.6484 42.9244 44.6484 43.3906V44.7969C44.6484 44.8901 44.6114 44.9795 44.5455 45.0455C44.4795 45.1114 44.3901 45.1484 44.2969 45.1484H0.703125C0.609884 45.1484 0.520463 45.1114 0.454533 45.0455C0.388602 44.9795 0.351562 44.8901 0.351562 44.7969V43.3906C0.351562 42.9244 0.53676 42.4773 0.866414 42.1477C1.19607 41.818 1.64317 41.6328 2.10938 41.6328Z" fill="white" stroke="white" stroke-width="0.703125"/>
<path d="M18.2812 29.6797H17.9297V30.0312V39.1719C17.9297 39.2651 17.8926 39.3545 17.8267 39.4205C17.7608 39.4864 17.6714 39.5234 17.5781 39.5234C17.4849 39.5234 17.3955 39.4864 17.3295 39.4205C17.2636 39.3545 17.2266 39.2651 17.2266 39.1719V29.3281C17.2266 29.2349 17.2636 29.1455 17.3295 29.0795C17.3955 29.0136 17.4849 28.9766 17.5781 28.9766H27.4219C27.5151 28.9766 27.6045 29.0136 27.6705 29.0795C27.7364 29.1455 27.7734 29.2349 27.7734 29.3281V39.1719C27.7734 39.2651 27.7364 39.3545 27.6705 39.4205C27.6045 39.4864 27.5151 39.5234 27.4219 39.5234C27.3286 39.5234 27.2392 39.4864 27.1733 39.4205C27.1074 39.3545 27.0703 39.2651 27.0703 39.1719V30.0312V29.6797H26.7188H23.2031H22.8516V30.0312V39.1719C22.8516 39.2651 22.8145 39.3545 22.7486 39.4205C22.6827 39.4864 22.5932 39.5234 22.5 39.5234C22.4068 39.5234 22.3173 39.4864 22.2514 39.4205C22.1855 39.3545 22.1484 39.2651 22.1484 39.1719V30.0312V29.6797H21.7969H18.2812Z" fill="white" stroke="white" stroke-width="0.703125"/>
<path d="M10.1953 8.9375V8.58594H9.84375H8.4375C8.34426 8.58594 8.25484 8.5489 8.18891 8.48297C8.12298 8.41704 8.08594 8.32762 8.08594 8.23438V5.42188C8.08594 5.32864 8.12298 5.23921 8.18891 5.17328C8.25484 5.10735 8.34426 5.07031 8.4375 5.07031H36.5625C36.6557 5.07031 36.7452 5.10735 36.8111 5.17328C36.877 5.23921 36.9141 5.32863 36.9141 5.42188V8.23438C36.9141 8.32762 36.877 8.41704 36.8111 8.48297C36.7452 8.5489 36.6557 8.58594 36.5625 8.58594H35.1562H34.8047V8.9375V39.1719C34.8047 39.2651 34.7676 39.3545 34.7017 39.4205C34.6358 39.4864 34.5464 39.5234 34.4531 39.5234C34.3599 39.5234 34.2705 39.4864 34.2045 39.4205C34.1386 39.3545 34.1016 39.2651 34.1016 39.1719V8.9375V8.58594H33.75H11.25H10.8984V8.9375V39.1719C10.8984 39.2651 10.8614 39.3545 10.7955 39.4205C10.7295 39.4864 10.6401 39.5234 10.5469 39.5234C10.4536 39.5234 10.3642 39.4864 10.2983 39.4205C10.2324 39.3545 10.1953 39.2651 10.1953 39.1719V8.9375ZM9.14062 5.77344H8.78906V6.125V7.53125V7.88281H9.14062H35.8594H36.2109V7.53125V6.125V5.77344H35.8594H9.14062Z" fill="white" stroke="white" stroke-width="0.703125"/>
<path d="M1.75781 18.0781V17.7266H1.40625H0.703125C0.609884 17.7266 0.520463 17.6895 0.454533 17.6236C0.388602 17.5577 0.351562 17.4682 0.351562 17.375V14.5625C0.351562 14.4693 0.388602 14.3798 0.454533 14.3139C0.520463 14.248 0.609884 14.2109 0.703125 14.2109H7.73438C7.82762 14.2109 7.91704 14.248 7.98297 14.3139C8.0489 14.3798 8.08594 14.4693 8.08594 14.5625C8.08594 14.6557 8.0489 14.7452 7.98297 14.8111C7.91704 14.877 7.82762 14.9141 7.73438 14.9141H1.40625H1.05469V15.2656V16.6719V17.0234H1.40625H7.73438C7.82762 17.0234 7.91704 17.0605 7.98297 17.1264C8.0489 17.1923 8.08594 17.2818 8.08594 17.375C8.08594 17.4682 8.0489 17.5577 7.98297 17.6236C7.91704 17.6895 7.82762 17.7266 7.73438 17.7266H2.8125H2.46094V18.0781V39.1719C2.46094 39.2651 2.4239 39.3545 2.35797 39.4205C2.29204 39.4864 2.20262 39.5234 2.10938 39.5234C2.01613 39.5234 1.92671 39.4864 1.86078 39.4205C1.79485 39.3545 1.75781 39.2651 1.75781 39.1719V18.0781Z" fill="white" stroke="white" stroke-width="0.703125"/>
<path d="M43.9453 15.2656V14.9141H43.5938H37.2656C37.1724 14.9141 37.083 14.877 37.017 14.8111C36.9511 14.7452 36.9141 14.6557 36.9141 14.5625C36.9141 14.4693 36.9511 14.3798 37.017 14.3139C37.083 14.248 37.1724 14.2109 37.2656 14.2109H44.2969C44.3901 14.2109 44.4795 14.248 44.5455 14.3139C44.6114 14.3798 44.6484 14.4693 44.6484 14.5625V17.375C44.6484 17.4682 44.6114 17.5577 44.5455 17.6236C44.4795 17.6895 44.3901 17.7266 44.2969 17.7266H43.5938H43.2422V18.0781V39.1719C43.2422 39.2651 43.2051 39.3545 43.1392 39.4205C43.0733 39.4864 42.9839 39.5234 42.8906 39.5234C42.7974 39.5234 42.708 39.4864 42.642 39.4205C42.5761 39.3545 42.5391 39.2651 42.5391 39.1719V18.0781V17.7266H42.1875H37.2656C37.1724 17.7266 37.083 17.6895 37.017 17.6236C36.9511 17.5577 36.9141 17.4682 36.9141 17.375C36.9141 17.2818 36.9511 17.1923 37.017 17.1264C37.083 17.0605 37.1724 17.0234 37.2656 17.0234H43.5938H43.9453V16.6719V15.2656Z" fill="white" stroke="white" stroke-width="0.703125"/>
<path d="M14.0625 19.8359H13.7109V20.1875V24.4062V24.7578H14.0625H16.875H17.2266V24.4062V20.1875V19.8359H16.875H14.0625ZM13.1108 25.358C13.0449 25.292 13.0078 25.2026 13.0078 25.1094V19.4844C13.0078 19.3911 13.0449 19.3017 13.1108 19.2358C13.1767 19.1699 13.2661 19.1328 13.3594 19.1328H17.5781C17.6714 19.1328 17.7608 19.1699 17.8267 19.2358C17.8926 19.3017 17.9297 19.3911 17.9297 19.4844V25.1094C17.9297 25.2026 17.8926 25.292 17.8267 25.358C17.7608 25.4239 17.6714 25.4609 17.5781 25.4609H13.3594C13.2661 25.4609 13.1767 25.4239 13.1108 25.358Z" fill="white" stroke="white" stroke-width="0.703125"/>
<path d="M21.0938 19.8359H20.7422V20.1875V24.4062V24.7578H21.0938H23.9062H24.2578V24.4062V20.1875V19.8359H23.9062H21.0938ZM20.142 25.358C20.0761 25.292 20.0391 25.2026 20.0391 25.1094V19.4844C20.0391 19.3911 20.0761 19.3017 20.142 19.2358C20.208 19.1699 20.2974 19.1328 20.3906 19.1328H24.6094C24.7026 19.1328 24.792 19.1699 24.858 19.2358C24.9239 19.3017 24.9609 19.3911 24.9609 19.4844V25.1094C24.9609 25.2026 24.9239 25.292 24.858 25.358C24.792 25.4239 24.7026 25.4609 24.6094 25.4609H20.3906C20.2974 25.4609 20.208 25.4239 20.142 25.358Z" fill="white" stroke="white" stroke-width="0.703125"/>
<path d="M30.9375 24.7578H31.2891V24.4062V20.1875V19.8359H30.9375H28.125H27.7734V20.1875V24.4062V24.7578H28.125H30.9375ZM31.9922 19.4844V25.1094C31.9922 25.2026 31.9551 25.292 31.8892 25.358C31.8233 25.4239 31.7339 25.4609 31.6406 25.4609H27.4219C27.3286 25.4609 27.2392 25.4239 27.1733 25.358C27.1074 25.292 27.0703 25.2026 27.0703 25.1094V19.4844C27.0703 19.3911 27.1074 19.3017 27.1733 19.2358C27.2392 19.1699 27.3286 19.1328 27.4219 19.1328H31.6406C31.7339 19.1328 31.8233 19.1699 31.8892 19.2358C31.9551 19.3017 31.9922 19.3911 31.9922 19.4844Z" fill="white" stroke="white" stroke-width="0.703125"/>
</svg>
