<svg width="10" height="14" viewBox="0 0 10 14" fill="none" xmlns="http://www.w3.org/2000/svg">
<path d="M9.28127 7.42364C9.35627 7.76431 9.15787 8.10572 8.82471 8.20919L7.33418 8.67917L6.7232 8.87388L5.99136 9.54529L5.1051 10.3644C4.97861 10.4752 4.81666 10.5371 4.64854 10.539C4.47982 10.5402 4.3168 10.4779 4.19198 10.3644L3.30572 9.54529L2.57388 8.87388L1.9629 8.67917L0.472368 8.20919C0.139215 8.10572 -0.0591939 7.76431 0.0158092 7.42364L0.49251 5.27513L0.0158092 3.12661C-0.0591939 2.78591 0.139215 2.44454 0.472368 2.34107L2.57388 1.66966L4.19198 0.179125C4.44947 -0.0597085 4.84755 -0.0597085 5.1051 0.179125L6.7232 1.66966L8.82471 2.34107C9.15787 2.44454 9.35627 2.78591 9.28127 3.12661L8.80457 5.27513L9.28127 7.42364Z" fill="#FFD298"/>
<path d="M7.33417 9.38428V13.3322C7.3335 13.5796 7.19673 13.8067 6.97832 13.923C6.76461 14.0327 6.5086 14.02 6.30691 13.8894L4.64853 12.795L3.00358 13.8894C2.79786 14.0249 2.53449 14.0369 2.31734 13.9206C2.1002 13.8043 1.96416 13.5785 1.96289 13.3322V9.38428L2.23145 9.47156L3.74213 10.8681C4.25622 11.3416 5.04755 11.3416 5.56165 10.8681L7.06561 9.48499L7.33417 9.38428Z" fill="#FFD298"/>
</svg>
