<svg width="10" height="9" viewBox="0 0 10 9" fill="none" xmlns="http://www.w3.org/2000/svg">
<path d="M4.5484 6.67663C5.80442 6.67663 6.82263 5.6802 6.82263 4.45105C6.82263 3.22189 5.80442 2.22546 4.5484 2.22546C3.29238 2.22546 2.27417 3.22189 2.27417 4.45105C2.27417 5.6802 3.29238 6.67663 4.5484 6.67663Z" fill="#872927"/>
<path d="M4.54846 0C3.64886 0 2.76946 0.261056 2.02147 0.750156C1.27348 1.23926 0.690494 1.93443 0.346233 2.74778C0.00197077 3.56112 -0.0881038 4.4561 0.0873994 5.31954C0.262903 6.18298 0.696101 6.9761 1.33221 7.59861C1.96833 8.22112 2.77878 8.64505 3.6611 8.8168C4.54341 8.98855 5.45796 8.9004 6.28908 8.5635C7.1202 8.2266 7.83057 7.65609 8.33036 6.9241C8.83015 6.19211 9.09691 5.33152 9.09691 4.45116C9.09691 3.86663 8.97926 3.28782 8.75068 2.74778C8.5221 2.20774 8.18706 1.71704 7.7647 1.30372C7.34234 0.890387 6.84092 0.562517 6.28908 0.338825C5.73723 0.115133 5.14577 0 4.54846 0ZM4.54846 7.56698C3.91874 7.56698 3.30316 7.38424 2.77957 7.04187C2.25597 6.6995 1.84788 6.21287 1.6069 5.64353C1.36592 5.07419 1.30286 4.44771 1.42572 3.8433C1.54857 3.23889 1.85181 2.6837 2.29709 2.24795C2.74237 1.8122 3.30969 1.51544 3.92731 1.39522C4.54493 1.27499 5.18511 1.3367 5.76689 1.57253C6.34868 1.80835 6.84594 2.20772 7.19579 2.72011C7.54564 3.2325 7.73238 3.83491 7.73238 4.45116C7.73238 5.27753 7.39693 6.07005 6.79983 6.65438C6.20273 7.2387 5.39289 7.56698 4.54846 7.56698Z" fill="#872927"/>
</svg>
