<svg width="44" height="48" viewBox="0 0 44 48" fill="none" xmlns="http://www.w3.org/2000/svg">
<path d="M21.5644 18.5895C19.0732 18.5895 17.0464 20.6137 17.0464 23.102C17.0464 25.5903 19.0732 27.6146 21.5644 27.6146C24.0556 27.6146 26.0824 25.5903 26.0824 23.102C26.0824 20.6137 24.0556 18.5895 21.5644 18.5895ZM21.5644 26.2218C19.8419 26.2218 18.4407 24.822 18.4407 23.102C18.4407 21.3817 19.8419 19.982 21.5644 19.982C23.2869 19.982 24.6881 21.3817 24.6881 23.102C24.6881 24.822 23.2869 26.2218 21.5644 26.2218Z" fill="white"/>
<path d="M29.788 16.9047L27.7688 14.8881C27.5234 14.643 27.1345 14.6154 26.8571 14.8238L25.3361 15.9654C24.8927 15.7312 24.4287 15.5395 23.9494 15.3917L23.6822 13.5105C23.6335 13.167 23.339 12.9117 22.9919 12.9117H20.1365C19.789 12.9117 19.4949 13.167 19.4459 13.5105L19.1787 15.3917C18.6994 15.5395 18.2357 15.7312 17.7924 15.9654L16.2714 14.8238C15.9936 14.6154 15.6051 14.643 15.3593 14.8881L13.3404 16.9047C13.095 17.1502 13.0674 17.5383 13.2758 17.8154L14.4188 19.3349C14.1846 19.7775 13.9922 20.2409 13.8444 20.7194L11.9607 20.9867C11.6168 21.0353 11.3616 21.3294 11.3616 21.6762V24.5279C11.3616 24.8747 11.6168 25.1688 11.9607 25.2175L13.8444 25.4847C13.9922 25.9633 14.1843 26.4266 14.4188 26.8692L13.2758 28.3887C13.0674 28.6658 13.095 29.0539 13.3404 29.2994L15.3593 31.316C15.6051 31.5611 15.9936 31.5884 16.2714 31.3803L17.7924 30.2387C18.2357 30.4726 18.6994 30.6646 19.1787 30.8124L19.4459 32.6936C19.4949 33.0371 19.789 33.292 20.1365 33.292H22.9919C23.339 33.292 23.6332 33.0371 23.6822 32.6936L23.9494 30.8124C24.4287 30.6646 24.8927 30.4726 25.3361 30.2387L26.8571 31.3803C27.1345 31.5887 27.5234 31.5611 27.7688 31.316L29.788 29.2994C30.0335 29.0539 30.0607 28.6658 29.8523 28.3887L28.7092 26.8692C28.9438 26.4266 29.1359 25.9633 29.2837 25.4847L31.1674 25.2175C31.5113 25.1688 31.7669 24.8747 31.7669 24.5279V21.6762C31.7669 21.3294 31.5113 21.0353 31.1674 20.9867L29.2837 20.7194C29.1359 20.2409 28.9438 19.7775 28.7092 19.3349L29.8523 17.8154C30.0607 17.5383 30.0335 17.1502 29.788 16.9047ZM30.3726 22.2804V23.9234L28.6359 24.1699C28.3538 24.2099 28.1243 24.4172 28.0564 24.6939C27.8952 25.3533 27.6345 25.9818 27.2819 26.5616C27.1338 26.8049 27.149 27.1135 27.3204 27.3412L28.3741 28.742L27.2107 29.9036L25.8085 28.8513C25.5804 28.6803 25.2714 28.6647 25.0278 28.8128C24.4472 29.1647 23.818 29.425 23.1575 29.5866C22.8808 29.6541 22.6731 29.8833 22.6328 30.165L22.3866 31.8995H20.7415L20.4949 30.165C20.455 29.8833 20.2469 29.6541 19.9702 29.5866C19.3098 29.425 18.6809 29.1647 18.1003 28.8128C17.8566 28.6647 17.5477 28.6803 17.3196 28.8513L15.9173 29.9036L14.754 28.7417L15.8077 27.3412C15.9787 27.1135 15.994 26.8049 15.8462 26.5616C15.4936 25.9818 15.2329 25.3533 15.0713 24.6935C15.0038 24.4172 14.7743 24.2095 14.4922 24.1696L12.7555 23.9234V22.2804L14.4922 22.0342C14.7743 21.9942 15.0038 21.7866 15.0713 21.5102C15.2329 20.8505 15.4936 20.2223 15.8462 19.6425C15.994 19.3988 15.9787 19.0902 15.8077 18.8629L14.754 17.4621L15.9173 16.3002L17.3196 17.3528C17.5477 17.5234 17.8566 17.539 18.1003 17.3913C18.6809 17.0391 19.3098 16.7787 19.9702 16.6175C20.2469 16.5496 20.4546 16.3209 20.4949 16.0387L20.7415 14.3042H22.3866L22.6328 16.0387C22.6731 16.3205 22.8808 16.5496 23.1575 16.6175C23.818 16.7787 24.4472 17.0391 25.0278 17.3913C25.2714 17.539 25.5804 17.5234 25.8085 17.3528L27.2107 16.3002L28.3741 17.4621L27.3204 18.8629C27.149 19.0902 27.1338 19.3992 27.2819 19.6425C27.6345 20.2223 27.8948 20.8505 28.0564 21.5099C28.1239 21.7866 28.3534 21.9942 28.6355 22.0342L30.3726 22.2804Z" fill="white"/>
<path d="M21.5638 5.47623C21.9491 5.47623 22.261 5.16469 22.261 4.78017V0.69642C22.261 0.311537 21.9491 0 21.5638 0C21.179 0 20.8667 0.311537 20.8667 0.69642V4.78017C20.8667 5.16469 21.179 5.47623 21.5638 5.47623Z" fill="white"/>
<path d="M42.4308 20.8414H38.3419C37.9567 20.8414 37.6448 21.153 37.6448 21.5375C37.6448 21.9224 37.9567 22.2339 38.3419 22.2339H42.4308C42.8156 22.2339 43.1279 21.9224 43.1279 21.5375C43.1279 21.153 42.8156 20.8414 42.4308 20.8414Z" fill="white"/>
<path d="M4.78598 20.8414H0.697146C0.312263 20.8414 0 21.153 0 21.5375C0 21.9224 0.312263 22.2339 0.697146 22.2339H4.78598C5.17086 22.2339 5.48313 21.9224 5.48313 21.5375C5.48313 21.153 5.17122 20.8414 4.78598 20.8414Z" fill="white"/>
<path d="M9.20713 10.1805C9.47582 10.4488 9.92461 10.4488 10.1929 10.1805C10.4653 9.90854 10.4653 9.46774 10.1929 9.19578L7.30196 6.30807C7.02963 6.03647 6.58811 6.03647 6.31579 6.30807C6.04383 6.58003 6.04383 7.02083 6.31579 7.29315L9.20713 10.1805Z" fill="white"/>
<path d="M6.19624 14.7765L4.78343 14.2235C4.42469 14.0834 4.02056 14.2598 3.88004 14.6178C3.73952 14.9759 3.91635 15.38 4.27473 15.5201L5.6879 16.0731C6.04192 16.2115 6.45258 16.0321 6.59129 15.6788C6.7318 15.3204 6.55498 14.9167 6.19624 14.7765Z" fill="white"/>
<path d="M14.7945 6.18892C14.9332 6.54221 15.3438 6.72158 15.6979 6.58324C16.0562 6.44309 16.2331 6.03896 16.0929 5.68095L15.5228 4.22856C15.3827 3.87018 14.9782 3.69372 14.6195 3.83387C14.2611 3.97439 14.0843 4.37815 14.2248 4.73617L14.7945 6.18892Z" fill="white"/>
<path d="M27.4298 6.58334C27.7838 6.72168 28.1944 6.54231 28.3331 6.18902L28.9032 4.73663C29.0434 4.37825 28.8669 3.97449 28.5082 3.83397C28.1498 3.69418 27.7453 3.87028 27.6048 4.22829L27.0351 5.68105C26.8946 6.03906 27.0714 6.44282 27.4298 6.58334Z" fill="white"/>
<path d="M33.4278 10.3846C33.6061 10.3846 33.7847 10.3167 33.9209 10.1805L36.8119 7.29315C37.0842 7.02083 37.0842 6.58003 36.8119 6.30807C36.5395 6.03647 36.0984 6.03647 35.8261 6.30807L32.9347 9.19578C32.6624 9.46774 32.6624 9.90854 32.9347 10.1805C33.0709 10.3167 33.2495 10.3846 33.4278 10.3846Z" fill="white"/>
<path d="M39.2478 14.6179C39.1073 14.2595 38.7028 14.0834 38.3444 14.2236L36.9312 14.7766C36.5728 14.9167 36.396 15.3205 36.5365 15.6789C36.6752 16.0322 37.0859 16.2115 37.4399 16.0732L38.8531 15.5202C39.2115 15.38 39.3883 14.9759 39.2478 14.6179Z" fill="white"/>
<path d="M21.6913 7.17144C18.7869 7.14674 15.9526 7.97388 13.5002 9.56243C13.1771 9.77194 13.0852 10.2029 13.2947 10.5257C13.5039 10.8482 13.936 10.94 14.2588 10.7309C16.45 9.31189 18.9743 8.56355 21.5675 8.56355C21.6049 8.56355 21.6427 8.56355 21.6801 8.56391C25.2697 8.59405 28.6396 10.0127 31.1693 12.5594C33.7004 15.1073 35.0943 18.4873 35.0943 22.0769C35.0943 26.4668 32.9459 30.5992 29.3469 33.1314C28.1596 33.9665 27.3832 35.2461 27.1883 36.6451H24.8034C24.4182 36.6451 24.1063 36.957 24.1063 37.3415C24.1063 37.726 24.4182 38.0379 24.8034 38.0379H27.14V41.6086C27.14 42.491 26.421 43.2088 25.5376 43.2088H17.5909C16.7075 43.2088 15.9885 42.491 15.9885 41.6086V38.0379H22.0149C22.4001 38.0379 22.712 37.726 22.712 37.3415C22.712 36.957 22.4001 36.6451 22.0149 36.6451H15.9392C15.7467 35.2443 14.9817 33.9716 13.8085 33.1503C10.1928 30.6195 8.03418 26.4802 8.03418 22.0773C8.03418 18.4104 9.50545 14.9686 12.1775 12.3859C12.4542 12.1183 12.4614 11.6775 12.1935 11.4012C11.9259 11.1248 11.4847 11.1176 11.2077 11.3852C8.26221 14.2326 6.63989 18.0298 6.63989 22.0773C6.63989 26.9337 9.02072 31.4997 13.0082 34.2908C14.0013 34.9857 14.5943 36.1262 14.5943 37.3415V41.6086C14.5943 43.0559 15.6284 44.2665 16.9972 44.5421C17.7546 46.3837 19.536 47.5917 21.5643 47.5917C23.5925 47.5917 25.3739 46.3837 26.1309 44.5421C27.4998 44.2665 28.5339 43.0559 28.5339 41.6086V37.3433C28.5339 37.3426 28.5343 37.3422 28.5343 37.3415C28.5343 36.1299 29.1381 34.9817 30.15 34.2697C34.1187 31.4771 36.4883 26.9192 36.4883 22.0773C36.4883 18.1177 34.9509 14.3894 32.1591 11.5787C29.3687 8.76979 25.6513 7.20448 21.6913 7.17144ZM21.5643 46.1993C20.3381 46.1993 19.2375 45.5845 18.5959 44.6013H24.5326C23.891 45.5845 22.7904 46.1993 21.5643 46.1993Z" fill="white"/>
</svg>
