<svg width="44" height="46" viewBox="0 0 44 46" fill="none" xmlns="http://www.w3.org/2000/svg">
<path d="M29.7239 21.2479L28.7794 20.8822C28.6316 20.3778 28.4311 19.8914 28.1805 19.429L28.5916 18.4982C28.7149 18.219 28.6546 17.8921 28.4398 17.676L26.9452 16.173C26.7305 15.957 26.4056 15.8961 26.1279 16.0202L25.2019 16.4337C24.7422 16.1818 24.2588 15.9801 23.7576 15.8315L23.3939 14.8812C23.2848 14.5961 23.0123 14.4079 22.7085 14.4079H20.595C20.2912 14.4079 20.0188 14.5961 19.9096 14.8812L19.5459 15.8315C19.0446 15.9802 18.5612 16.1818 18.1015 16.4337L17.1756 16.0202C16.8978 15.8962 16.573 15.9569 16.3582 16.173L14.8637 17.676C14.6489 17.8921 14.5886 18.2189 14.7119 18.4982L15.1231 19.4292C14.8725 19.8915 14.6721 20.3778 14.5242 20.882L13.5796 21.2478C13.2961 21.3575 13.109 21.6316 13.109 21.9371V24.0627C13.109 24.3683 13.2961 24.6423 13.5796 24.7521L14.524 25.1177C14.672 25.6222 14.8725 26.1087 15.123 26.5709L14.7119 27.5018C14.5886 27.781 14.6489 28.1078 14.8637 28.3239L16.3583 29.8269C16.573 30.043 16.8979 30.1037 17.1756 29.9797L18.1016 29.5662C18.5612 29.8182 19.0446 30.0198 19.5459 30.1685L19.9096 31.1186C20.0187 31.4037 20.2912 31.5919 20.595 31.5919H22.7085C23.0124 31.5919 23.2848 31.4037 23.394 31.1186L23.7575 30.1687C24.259 30.02 24.7426 29.8183 25.2024 29.5664L26.1279 29.9797C26.4054 30.1037 26.7304 30.0431 26.9453 29.827L28.4398 28.324C28.6546 28.1079 28.7149 27.7812 28.5916 27.5019L28.1804 26.5706C28.431 26.1083 28.6314 25.6221 28.7792 25.118L29.724 24.7523C30.0075 24.6426 30.1946 24.3685 30.1946 24.0629V21.9373C30.1945 21.6316 30.0074 21.3575 29.7239 21.2479ZM28.7257 23.5557L27.9023 23.8744C27.6763 23.9618 27.5077 24.1557 27.4517 24.3926C27.3056 25.0097 27.0634 25.5972 26.7317 26.1391C26.6047 26.3465 26.5876 26.6036 26.6859 26.8261L27.0444 27.6379L26.263 28.4237L25.4562 28.0633C25.235 27.9644 24.9794 27.9816 24.773 28.1094C24.2344 28.443 23.6502 28.6866 23.0363 28.8335C22.8007 28.8899 22.6078 29.0595 22.5209 29.2868L22.2041 30.1145H21.099L20.7821 29.2864C20.6952 29.0592 20.5023 28.8896 20.2667 28.8332C19.6533 28.6864 19.0692 28.4427 18.5306 28.1092C18.3243 27.9814 18.0686 27.9643 17.8474 28.063L17.0401 28.4236L16.2588 27.6378L16.6171 26.8264C16.7153 26.6038 16.6982 26.3466 16.5712 26.1392C16.2397 25.5978 15.9974 25.0101 15.8512 24.3924C15.7952 24.1555 15.6265 23.9616 15.4006 23.8742L14.5775 23.5556V22.4443L15.4008 22.1255C15.6268 22.038 15.7953 21.8441 15.8513 21.6072C15.9974 20.9901 16.2396 20.4026 16.5713 19.8608C16.6983 19.6533 16.7154 19.3963 16.6172 19.1736L16.2588 18.362L17.0401 17.5761L17.8473 17.9366C18.0685 18.0354 18.3243 18.0182 18.5305 17.8904C19.0692 17.5569 19.6533 17.3133 20.2667 17.1665C20.5023 17.1101 20.6952 16.9405 20.7821 16.7132L21.0991 15.8851H22.204L22.521 16.7132C22.6079 16.9405 22.8008 17.1101 23.0364 17.1665C23.6498 17.3133 24.234 17.5569 24.7727 17.8904C24.979 18.0182 25.2346 18.0354 25.4558 17.9366L26.263 17.5761L27.0444 18.3619L26.686 19.1733C26.5878 19.3959 26.6049 19.653 26.7319 19.8604C27.0636 20.4021 27.3059 20.9898 27.4519 21.6071C27.508 21.844 27.6765 22.038 27.9025 22.1255L28.7257 22.4441V23.5557ZM21.6516 18.5543C19.2142 18.5543 17.2312 20.5487 17.2312 23.0001C17.2312 25.4515 19.2143 27.4457 21.6516 27.4457C24.0889 27.4457 26.072 25.4514 26.072 23.0001C26.072 20.5486 24.0889 18.5543 21.6516 18.5543ZM21.6516 25.9684C20.0241 25.9684 18.7001 24.6368 18.7001 23.0001C18.7001 21.3633 20.0242 20.0316 21.6516 20.0316C23.279 20.0316 24.6031 21.3633 24.6031 23.0001C24.6031 24.6368 23.279 25.9684 21.6516 25.9684ZM44 30.4385C44 29.0656 42.9302 27.9396 41.5849 27.8584C41.0291 26.2722 40.116 24.631 38.9053 22.9983C41.2819 19.7906 42.4225 16.6559 42.1622 14.0678C42.8498 13.6033 43.3032 12.8141 43.3032 11.9203C43.3032 10.4948 42.1501 9.33501 40.7327 9.33501C40.3255 9.33501 39.9405 9.43112 39.598 9.60129C37.4992 8.08024 34.2286 7.50649 30.2773 7.97322C30.1367 7.64508 29.9916 7.32322 29.841 7.00966C27.7008 2.55518 24.7924 0.102051 21.6516 0.102051C18.5108 0.102051 15.6024 2.55518 13.4622 7.00966C13.3116 7.32322 13.1665 7.64517 13.0258 7.97332C9.07418 7.50659 5.80394 8.08033 3.70512 9.60138C3.36269 9.43121 2.97757 9.3351 2.57042 9.3351C1.15315 9.3351 0 10.4949 0 11.9204C0 12.8141 0.45342 13.6034 1.14094 14.0678C0.880492 16.6564 2.02162 19.7918 4.39906 23C2.02171 26.2082 0.880492 29.3436 1.14094 31.9322C0.45342 32.3967 0 33.1858 0 34.0796C0 35.5051 1.15315 36.6648 2.57042 36.6648C2.97849 36.6648 3.36443 36.5683 3.7075 36.3973C5.33069 37.5735 7.65241 38.1848 10.45 38.1848C11.2698 38.1848 12.1305 38.1322 13.0258 38.0265C13.1664 38.3548 13.3116 38.6767 13.4622 38.9904C15.6024 43.4448 18.5107 45.898 21.6516 45.898C24.7925 45.898 27.7008 43.4448 29.8409 38.9904C29.9916 38.6766 30.1368 38.3546 30.2775 38.0262C30.6306 38.0678 30.9804 38.1024 31.326 38.128C31.8641 38.1678 32.3852 38.1875 32.8902 38.1875C36.9893 38.1875 39.9705 36.8846 41.3687 34.449C41.6337 33.9872 41.8369 33.4897 41.976 32.9644C43.1317 32.7117 44 31.6755 44 30.4385ZM41.8343 11.9203C41.8343 12.5312 41.3401 13.0282 40.7326 13.0282C40.1251 13.0282 39.631 12.5312 39.631 11.9203C39.631 11.3093 40.1251 10.8123 40.7326 10.8123C41.3401 10.8123 41.8343 11.3093 41.8343 11.9203ZM38.5029 10.6365C38.2866 11.0151 38.1621 11.4532 38.1621 11.9203C38.1621 13.3426 39.3101 14.5002 40.7231 14.5053C40.8321 16.5867 39.8708 19.1271 37.9595 21.7969C36.4826 20.0239 34.6691 18.28 32.5967 16.6475C32.2304 14.0409 31.638 11.59 30.8403 9.3977C34.0961 9.06734 36.7649 9.50037 38.5029 10.6365ZM26.6075 31.633C24.9791 32.5786 23.3108 33.4095 21.6455 34.1114C19.9933 33.4127 18.3321 32.5834 16.6956 31.6331C15.0672 30.6875 13.5176 29.65 12.0807 28.5505C11.8562 26.7621 11.7398 24.9005 11.7398 23C11.7398 21.0995 11.8563 19.2378 12.0807 17.4494C13.5176 16.3499 15.0672 15.3124 16.6957 14.3668C18.3221 13.4224 19.9883 12.5923 21.6515 11.8911C23.3147 12.5924 24.981 13.4225 26.6074 14.3668C28.2503 15.3208 29.797 16.3547 31.2213 17.4409C31.4465 19.232 31.5633 21.0965 31.5633 23.0001C31.5633 24.9006 31.4468 26.7621 31.2224 28.5506C29.7855 29.65 28.2359 30.6875 26.6075 31.633ZM30.9096 30.613C30.5382 32.6907 30.0134 34.6419 29.3468 36.4049C27.4953 36.104 25.5527 35.5856 23.578 34.8702C24.8445 34.2849 26.105 33.6307 27.342 32.9124C28.5789 32.1942 29.7725 31.4234 30.9096 30.613ZM12.3935 30.6131C13.5306 31.4235 14.7243 32.1943 15.9611 32.9125C17.2011 33.6326 18.4564 34.2855 19.7132 34.8683C17.742 35.581 15.7989 36.1015 13.9558 36.4034C13.2894 34.6408 12.7648 32.6902 12.3935 30.6131ZM10.4629 27.2458C8.86395 25.8858 7.44448 24.454 6.26314 23C7.44457 21.546 8.86404 20.1142 10.4629 18.7541C10.3364 20.1401 10.2709 21.5599 10.2709 23C10.2709 24.4402 10.3363 25.8599 10.4629 27.2458ZM13.9558 9.59658C15.8003 9.89868 17.7448 10.4197 19.7174 11.1332C18.4535 11.7176 17.1956 12.3706 15.9612 13.0874C14.7243 13.8056 13.5306 14.5764 12.3935 15.3868C12.7648 13.3098 13.2894 11.3593 13.9558 9.59658ZM30.909 15.3837C29.7791 14.5795 28.5867 13.8103 27.3418 13.0875C26.1073 12.3707 24.8494 11.7177 23.5855 11.1333C25.5581 10.4198 27.5027 9.89868 29.3473 9.59658C30.0134 11.3582 30.5378 13.3078 30.909 15.3837ZM32.8391 18.7415C34.4559 20.1125 35.875 21.5451 37.0485 22.9894C35.8654 24.447 34.443 25.8825 32.8403 27.2458C32.9668 25.8599 33.0323 24.4401 33.0323 23C33.0322 21.5555 32.9664 20.1315 32.8391 18.7415ZM21.6516 1.57934C24.1982 1.57934 26.6368 3.73609 28.5184 7.65238C28.6042 7.83104 28.6876 8.01311 28.7701 8.19685C26.4898 8.59969 24.0762 9.3134 21.6515 10.2945C19.2269 9.31349 16.8134 8.59987 14.533 8.19694C14.6155 8.0132 14.699 7.83104 14.7848 7.65238C16.6664 3.73609 19.105 1.57934 21.6516 1.57934ZM2.57042 10.8124C3.17789 10.8124 3.67207 11.3094 3.67207 11.9204C3.67207 12.5313 3.17789 13.0283 2.57042 13.0283C1.96304 13.0283 1.46886 12.5313 1.46886 11.9204C1.46886 11.3094 1.96304 10.8124 2.57042 10.8124ZM2.57978 14.5053C3.99283 14.5002 5.14084 13.3426 5.14084 11.9204C5.14084 11.4533 5.01645 11.0151 4.80016 10.6366C6.53819 9.50046 9.2073 9.06743 12.4628 9.39761C11.6646 11.591 11.0721 14.0431 10.7058 16.6512C8.6506 18.2716 6.83095 20.0157 5.34501 21.7991C3.43264 19.1285 2.47081 16.5874 2.57978 14.5053ZM1.46886 34.0796C1.46886 33.4686 1.96304 32.9716 2.57042 32.9716C3.17789 32.9716 3.67207 33.4686 3.67207 34.0796C3.67207 34.6905 3.17789 35.1875 2.57042 35.1875C1.96304 35.1875 1.46886 34.6905 1.46886 34.0796ZM4.80016 35.3633C5.01645 34.9848 5.14093 34.5467 5.14093 34.0796C5.14093 32.6572 3.99292 31.4997 2.57988 31.4946C2.4709 29.4126 3.43273 26.8715 5.3452 24.2009C6.83113 25.9843 8.65078 27.7284 10.706 29.3488C11.0723 31.9568 11.6647 34.409 12.4629 36.6024C9.20684 36.9327 6.5381 36.4996 4.80016 35.3633ZM28.5183 38.3476C26.6367 42.2639 24.1982 44.4207 21.6516 44.4207C19.1051 44.4207 16.6664 42.2639 14.7848 38.3476C14.699 38.169 14.6155 37.9868 14.533 37.8031C16.8114 37.4005 19.2228 36.6877 21.6455 35.708C24.0742 36.6929 26.4818 37.403 28.7694 37.8045C28.6873 37.9877 28.6039 38.1694 28.5183 38.3476ZM40.0967 33.7103C38.8234 35.9283 35.7466 36.9742 31.4339 36.6547C31.2376 36.6402 31.0396 36.6219 30.8405 36.6019C31.6387 34.4085 32.231 31.9565 32.5973 29.3487C34.6562 27.7255 36.4787 25.9779 37.966 24.1913C38.9319 25.5432 39.6717 26.8929 40.1467 28.1997C39.3779 28.647 38.859 29.4827 38.859 30.4386C38.859 31.527 39.5315 32.4598 40.4803 32.8404C40.3811 33.1458 40.2535 33.4371 40.0967 33.7103ZM41.4295 31.5465C40.822 31.5465 40.3278 31.0495 40.3278 30.4385C40.3278 29.8276 40.822 29.3306 41.4295 29.3306C42.037 29.3306 42.5311 29.8276 42.5311 30.4385C42.5311 31.0495 42.037 31.5465 41.4295 31.5465Z" fill="white"/>
</svg>
