<svg width="46" height="47" viewBox="0 0 46 47" fill="none" xmlns="http://www.w3.org/2000/svg">
<path d="M20.0192 29.8119L20.845 30.1542L21.3558 32.2843H24.5755L25.0862 30.1542L25.912 29.8119L27.786 30.9603L30.0622 28.684L28.9139 26.8101L29.2562 25.9842L31.3864 25.4734V22.2538L29.2562 21.743L28.9139 20.9172L30.0623 19.0432L27.786 16.767L25.9121 17.9153L25.0862 17.573L24.5755 15.4429H21.3558L20.845 17.573L20.0193 17.9153L18.1453 16.7669L15.8691 19.0432L17.0173 20.9171L16.6751 21.743L14.5449 22.2538V25.4734L16.6751 25.9842L17.0173 26.81L15.869 28.684L18.1453 30.9602L20.0192 29.8119ZM17.7908 24.6772L16.076 24.2661V23.4611L17.7908 23.05L18.7304 20.7825L17.8051 19.2723L18.3744 18.703L19.8845 19.6284L22.152 18.6888L22.5632 16.9739H23.3681L23.7793 18.6888L26.0468 19.6284L27.5569 18.7031L28.1263 19.2723L27.2009 20.7824L28.1405 23.0499L29.8553 23.4611V24.2661L28.1405 24.6772L27.2009 26.9447L28.1262 28.4548L27.5569 29.0242L26.0468 28.0988L23.7793 29.0384L23.3681 30.7533H22.5632L22.152 29.0384L19.8845 28.0988L18.3744 29.0241L17.805 28.4548L18.7304 26.9447L17.7908 24.6772Z" fill="white"/>
<path d="M22.9656 26.9257C23.5713 26.9257 24.1633 26.7461 24.6668 26.4096C25.1704 26.0732 25.5629 25.5949 25.7946 25.0354C26.0264 24.4759 26.087 23.8602 25.9689 23.2662C25.8507 22.6722 25.5591 22.1266 25.1309 21.6984C24.7026 21.2701 24.157 20.9785 23.563 20.8604C22.969 20.7422 22.3534 20.8028 21.7938 21.0346C21.2343 21.2664 20.7561 21.6588 20.4196 22.1624C20.0832 22.666 19.9036 23.258 19.9036 23.8636C19.9045 24.6754 20.2274 25.4537 20.8015 26.0278C21.3755 26.6018 22.1538 26.9247 22.9656 26.9257ZM22.9656 22.3326C23.2685 22.3326 23.5645 22.4223 23.8162 22.5906C24.068 22.7588 24.2643 22.9979 24.3801 23.2777C24.496 23.5575 24.5263 23.8653 24.4673 24.1623C24.4082 24.4593 24.2624 24.7321 24.0483 24.9462C23.8341 25.1603 23.5613 25.3061 23.2643 25.3652C22.9673 25.4243 22.6595 25.394 22.3797 25.2781C22.1 25.1622 21.8609 24.966 21.6926 24.7142C21.5244 24.4624 21.4346 24.1664 21.4346 23.8636C21.4351 23.4577 21.5965 23.0685 21.8835 22.7815C22.1706 22.4945 22.5597 22.333 22.9656 22.3326Z" fill="white"/>
<path d="M41.3382 32.6056L35.214 29.1061L29.0898 32.6056V41.4706H41.3382V32.6056ZM36.745 36.8774H33.683V35.3464H36.745V36.8774ZM33.683 38.4085H36.745V39.9395H33.683V38.4085ZM39.8071 39.9395H38.2761V33.8154H32.1519V39.9395H30.6209V33.4941L35.214 30.8694L39.8071 33.4941V39.9395Z" fill="white"/>
<path d="M10.7173 22.3325H13.0138V20.8015H10.7173C8.90042 20.8015 7.12435 20.2627 5.61368 19.2533C4.10301 18.2439 2.92559 16.8092 2.23031 15.1307C1.53502 13.4521 1.3531 11.605 1.70756 9.82309C2.06201 8.04113 2.93691 6.4043 4.22163 5.11958C5.50635 3.83486 7.14318 2.95996 8.92514 2.60551C10.7071 2.25105 12.5541 2.43297 14.2327 3.12826C15.9113 3.82354 17.346 5.00096 18.3554 6.51163C19.3648 8.0223 19.9035 9.79837 19.9035 11.6152V13.9118H21.4346V11.6152C21.4346 9.49556 20.806 7.42348 19.6284 5.66103C18.4508 3.89858 16.7769 2.52492 14.8186 1.71376C12.8603 0.902593 10.7054 0.690355 8.62645 1.10388C6.5475 1.51741 4.63786 2.53813 3.13902 4.03697C1.64018 5.53581 0.619463 7.44545 0.205934 9.5244C-0.207594 11.6033 0.00464362 13.7582 0.815809 15.7166C1.62697 17.6749 3.00064 19.3487 4.76308 20.5263C6.52553 21.704 8.59761 22.3325 10.7173 22.3325Z" fill="white"/>
<path d="M26.0276 11.6152C26.0276 9.79837 26.5664 8.0223 27.5758 6.51163C28.5852 5.00096 30.0199 3.82354 31.6984 3.12826C33.377 2.43297 35.2241 2.25105 37.006 2.60551C38.788 2.95996 40.4248 3.83486 41.7095 5.11958C42.9942 6.4043 43.8691 8.04113 44.2236 9.82309C44.578 11.605 44.3961 13.4521 43.7008 15.1307C43.0056 16.8092 41.8281 18.2439 40.3175 19.2533C38.8068 20.2627 37.0307 20.8015 35.2139 20.8015H32.9173V22.3325H35.2139C37.3335 22.3325 39.4056 21.704 41.1681 20.5263C42.9305 19.3487 44.3042 17.6749 45.1153 15.7166C45.9265 13.7582 46.1387 11.6033 45.7252 9.5244C45.3117 7.44545 44.291 5.53581 42.7921 4.03697C41.2933 2.53813 39.3837 1.51741 37.3047 1.10388C35.2258 0.690355 33.0709 0.902593 31.1125 1.71376C29.1542 2.52492 27.4804 3.89858 26.3028 5.66103C25.1251 7.42348 24.4966 9.49556 24.4966 11.6152V13.9118H26.0276V11.6152Z" fill="white"/>
<path d="M19.9035 36.1119C19.9035 37.9288 19.3648 39.7049 18.3554 41.2155C17.346 42.7262 15.9113 43.9036 14.2327 44.5989C12.5541 45.2942 10.7071 45.4761 8.92514 45.1217C7.14318 44.7672 5.50635 43.8923 4.22163 42.6076C2.93691 41.3229 2.06201 39.686 1.70756 37.9041C1.3531 36.1221 1.53502 34.2751 2.23031 32.5965C2.92559 30.9179 4.10301 29.4833 5.61368 28.4739C7.12435 27.4645 8.90042 26.9257 10.7173 26.9257H13.0138V25.3947H10.7173C8.59761 25.3947 6.52553 26.0232 4.76308 27.2008C3.00064 28.3785 1.62697 30.0523 0.815809 32.0106C0.00464362 33.9689 -0.207594 36.1238 0.205934 38.2028C0.619463 40.2817 1.64018 42.1914 3.13902 43.6902C4.63786 45.189 6.5475 46.2098 8.62645 46.6233C10.7054 47.0368 12.8603 46.8246 14.8186 46.0134C16.7769 45.2022 18.4508 43.8286 19.6284 42.0661C20.806 40.3037 21.4346 38.2316 21.4346 36.1119V33.8154H19.9035V36.1119Z" fill="white"/>
<path d="M35.2139 25.3947H32.9173V26.9257H35.2139C37.0307 26.9257 38.8068 27.4645 40.3175 28.4739C41.8281 29.4833 43.0056 30.9179 43.7008 32.5965C44.3961 34.2751 44.578 36.1221 44.2236 37.9041C43.8691 39.686 42.9942 41.3229 41.7095 42.6076C40.4248 43.8923 38.788 44.7672 37.006 45.1217C35.2241 45.4761 33.377 45.2942 31.6984 44.5989C30.0199 43.9036 28.5852 42.7262 27.5758 41.2155C26.5664 39.7049 26.0276 37.9288 26.0276 36.1119V33.8154H24.4966V36.1119C24.4966 38.2316 25.1251 40.3037 26.3028 42.0661C27.4804 43.8286 29.1542 45.2022 31.1125 46.0134C33.0709 46.8246 35.2258 47.0368 37.3047 46.6233C39.3837 46.2098 41.2933 45.189 42.7921 43.6902C44.291 42.1914 45.3117 40.2817 45.7252 38.2028C46.1387 36.1238 45.9265 33.9689 45.1153 32.0106C44.3042 30.0523 42.9305 28.3785 41.1681 27.2008C39.4056 26.0232 37.3335 25.3947 35.2139 25.3947Z" fill="white"/>
<path d="M5.35864 37.6429V40.705C5.35934 41.3139 5.60152 41.8976 6.03206 42.3281C6.4626 42.7587 7.04633 43.0009 7.6552 43.0015H13.7794C14.3882 43.0009 14.972 42.7587 15.4025 42.3281C15.833 41.8976 16.0752 41.3139 16.0759 40.705V37.6429C16.0751 37.2865 15.9917 36.9352 15.8323 36.6164C15.6729 36.2977 15.4418 36.0201 15.1572 35.8056L13.1491 34.2995L13.6223 32.8799C13.7264 32.5677 13.7794 32.2407 13.7794 31.9116V31.5187C13.7794 30.7066 13.4568 29.9278 12.8825 29.3535C12.3082 28.7793 11.5294 28.4567 10.7173 28.4567C9.90517 28.4567 9.12632 28.7793 8.55207 29.3535C7.97781 29.9278 7.6552 30.7066 7.6552 31.5187V31.9116C7.65514 32.2407 7.70818 32.5677 7.81229 32.88L8.2855 34.2995L6.27732 35.8056C5.9927 36.0201 5.76164 36.2976 5.60225 36.6164C5.44286 36.9352 5.35948 37.2865 5.35864 37.6429ZM6.88968 37.6429C6.88997 37.5241 6.91776 37.407 6.97089 37.3008C7.02402 37.1945 7.10104 37.102 7.19591 37.0305L10.087 34.8622L9.26483 32.3958C9.21274 32.2397 9.1862 32.0762 9.18624 31.9116V31.5187C9.18624 31.1127 9.34755 30.7233 9.63467 30.4361C9.9218 30.149 10.3112 29.9877 10.7173 29.9877C11.1233 29.9877 11.5128 30.149 11.7999 30.4361C12.087 30.7233 12.2483 31.1127 12.2483 31.5187V31.9116C12.2484 32.0762 12.2218 32.2397 12.1697 32.3957L11.3476 34.8622L14.2387 37.0305C14.3335 37.102 14.4105 37.1945 14.4637 37.3008C14.5168 37.407 14.5446 37.5241 14.5449 37.6429V40.705C14.5447 40.9079 14.4639 41.1025 14.3204 41.246C14.1769 41.3895 13.9823 41.4703 13.7794 41.4705H7.6552C7.45225 41.4703 7.25767 41.3895 7.11415 41.246C6.97064 41.1025 6.88992 40.9079 6.88968 40.705V37.6429Z" fill="white"/>
<path d="M41.3382 14.6773V8.55315C41.3375 7.94428 41.0953 7.36055 40.6647 6.93001C40.2342 6.49947 39.6505 6.25729 39.0416 6.25659H31.3864C30.7775 6.25729 30.1938 6.49947 29.7633 6.93001C29.3327 7.36055 29.0905 7.94428 29.0898 8.55315V14.6773C29.0905 15.2862 29.3327 15.8699 29.7633 16.3005C30.1938 16.731 30.7775 16.9732 31.3864 16.9739H39.0416C39.6505 16.9732 40.2342 16.731 40.6647 16.3005C41.0953 15.8699 41.3375 15.2862 41.3382 14.6773ZM33.683 7.78763H35.214V10.8497H33.683V7.78763ZM30.6209 14.6773V8.55315C30.6211 8.35019 30.7018 8.15562 30.8454 8.0121C30.9889 7.86859 31.1834 7.78786 31.3864 7.78763H32.1519V12.3808H36.745V7.78763H39.0416C39.2446 7.78786 39.4391 7.86859 39.5827 8.0121C39.7262 8.15562 39.8069 8.35019 39.8071 8.55315V14.6773C39.8069 14.8803 39.7262 15.0748 39.5827 15.2184C39.4391 15.3619 39.2446 15.4426 39.0416 15.4428H31.3864C31.1834 15.4426 30.9889 15.3619 30.8454 15.2184C30.7018 15.0748 30.6211 14.8803 30.6209 14.6773Z" fill="white"/>
<path d="M7.6551 4.72559V8.00145L5.35854 8.76699V14.6773H4.59302V16.2084H16.8413V14.6773H16.0758V6.72554L14.5448 7.23588V4.72559H13.0137V7.74622L11.4827 8.25656V6.72554L9.18614 7.49109V4.72559H7.6551ZM14.5448 8.84979V14.6773H11.4827V9.87051L14.5448 8.84979ZM9.95166 14.6773H6.88958V9.87042L9.95166 8.84979V14.6773Z" fill="white"/>
</svg>
