<svg width="35" height="34" viewBox="0 0 35 34" fill="none" xmlns="http://www.w3.org/2000/svg">
<path opacity="0.2" fill-rule="evenodd" clip-rule="evenodd" d="M1.2517 27.3312L17.7194 26.136L25.422 26.561L32.9652 30.7576C33.0449 30.8107 32.9121 30.8638 32.6731 30.8904L13.1775 33.9714C12.9384 33.998 12.6463 33.998 12.5666 33.9448L0.959528 27.464C0.853285 27.4109 0.986089 27.3578 1.2517 27.3312Z" fill="#393939"/>
<path fill-rule="evenodd" clip-rule="evenodd" d="M13.2041 0L28.5562 3.18729L34.2668 8.87129V30.3589C34.2668 30.598 34.0808 30.7573 33.8152 30.7839L13.2041 33.9977C12.965 34.0243 12.7526 33.8118 12.7526 33.5728V0.451533C12.7526 0.212486 12.9385 0 13.2041 0Z" fill="url(#paint0_linear_126_11861)"/>
<path opacity="0.2" fill-rule="evenodd" clip-rule="evenodd" d="M13.39 0.0266113L13.6556 0.0797328L13.7353 0.106294V33.9181L13.39 33.9712V0.0266113ZM14.2931 0.212537L14.4524 0.265658V33.8119L14.1072 33.865V0.185976L14.2931 0.212537ZM15.143 33.6791L14.7977 33.7322V0.318779L15.143 0.398462V33.6791Z" fill="black"/>
<path opacity="0.4" fill-rule="evenodd" clip-rule="evenodd" d="M12.7791 15.3257L12.7526 1.88599L25.5283 4.35613C26.1923 4.48894 26.7501 4.91391 26.7501 5.57793V10.8104C26.7501 11.4744 26.2189 11.9525 25.5548 12.1119L12.7791 15.3257Z" fill="black"/>
<path opacity="0.4" fill-rule="evenodd" clip-rule="evenodd" d="M28.2374 3.18726H28.5295L34.2401 8.87125V9.16342H29.1936C28.6623 9.16342 28.2108 8.73845 28.2108 8.18068V3.18726H28.2374Z" fill="black"/>
<path fill-rule="evenodd" clip-rule="evenodd" d="M8.9543 1.16848L25.8204 4.35577C26.325 4.46201 26.75 4.78074 26.75 5.28539V10.7835C26.75 11.2881 26.325 11.6334 25.8204 11.7131L8.9543 14.9535C8.44965 15.0597 8.02468 14.5285 8.02468 14.0239V2.0981C7.99811 1.59345 8.44965 1.06223 8.9543 1.16848Z" fill="url(#paint1_linear_126_11861)"/>
<path fill-rule="evenodd" clip-rule="evenodd" d="M34.2401 8.87125H29.1936C28.8217 8.87125 28.5295 8.57909 28.5295 8.20724V3.18726L34.2401 8.87125Z" fill="url(#paint2_linear_126_11861)"/>
<path d="M12.3275 10.9698V5.25928H13.6024C14.1868 5.25928 14.6117 5.41864 14.8773 5.73737C15.1695 6.0561 15.3023 6.53419 15.3023 7.17165C15.3023 7.78255 15.143 8.23408 14.8242 8.57937C14.5055 8.92466 14.0805 9.08402 13.5227 9.08402H13.4165V10.9433H12.3275V10.9698ZM13.4431 6.10922V8.20752H13.4962C13.7352 8.20752 13.9212 8.12784 14.0274 7.94191C14.1602 7.75599 14.2133 7.49038 14.2133 7.14509C14.2133 6.7998 14.1602 6.56075 14.0274 6.37483C13.8946 6.21546 13.7087 6.10922 13.4431 6.10922Z" fill="white"/>
<path d="M16.0194 10.9698V5.25928H17.135C17.9052 5.25928 18.4364 5.47176 18.7817 5.89674C19.127 6.32171 19.2864 7.01229 19.2864 7.96847C19.2864 9.00434 19.127 9.74804 18.7817 10.2261C18.463 10.7042 17.9318 10.9433 17.2146 10.9433H16.0194V10.9698ZM17.1084 10.0668H17.135C17.5068 10.0668 17.7459 9.93397 17.9052 9.6418C18.0646 9.34963 18.1177 8.84498 18.1177 8.12784C18.1177 7.38414 18.038 6.87948 17.9052 6.58731C17.7459 6.29515 17.5068 6.16234 17.135 6.16234H17.0818V10.0668H17.1084Z" fill="white"/>
<path d="M20.0302 10.9698V5.25928H22.4206V6.16234H21.1457V7.51694H22.4206V8.39344H21.1457V10.9433H20.0302V10.9698Z" fill="white"/>
<path fill-rule="evenodd" clip-rule="evenodd" d="M22.8988 21.6202L23.8815 22.7623C24.0409 22.9217 24.2268 23.081 24.4127 23.2404C24.7049 23.4794 24.9971 23.7185 25.2892 23.9575C25.5814 24.1966 25.9001 24.4091 26.2189 24.6215C26.3251 24.6747 26.6438 24.8872 26.7501 24.8872C27.1751 24.8872 27.6 24.8606 28.025 24.834C28.6359 24.8075 29.2468 24.7809 29.8577 24.7809C30.5748 24.7809 31.3717 24.8075 32.0888 24.9668C32.62 25.0731 33.3372 25.3121 33.5762 25.8699C33.6028 25.9496 33.6293 26.0558 33.6559 26.1621C33.6824 26.4542 33.6293 26.7198 33.47 26.9589C33.2043 27.3307 32.7528 27.5432 32.3278 27.6229C31.7169 27.7291 30.9467 27.6229 30.3358 27.5167C29.7249 27.4104 29.0874 27.2511 28.4765 27.0386C28.1047 26.9323 27.7594 26.773 27.4141 26.6136C27.1485 26.5074 26.9094 26.4011 26.6438 26.2949C26.5376 26.2417 26.3517 26.1621 26.2189 26.1355C25.5017 26.1355 24.7315 26.2417 24.0143 26.3746C23.2441 26.5339 22.4738 26.7198 21.7301 26.9323C21.3848 27.0386 20.6146 27.1979 20.4286 27.4901C19.8443 28.3135 19.1537 29.4025 18.1975 29.8274C17.4804 30.1462 16.657 29.9071 16.2586 29.2166C16.1523 29.0306 16.0992 28.8181 16.1258 28.6057C16.2586 27.6495 17.8257 27.0917 18.6225 26.7464C18.8615 26.6402 19.1006 26.5605 19.3396 26.4808C19.4459 26.4542 19.5521 26.4011 19.6584 26.348C19.738 26.2949 19.7912 26.1886 19.8443 26.1089C20.1099 25.6574 20.3489 25.2059 20.5614 24.7278C20.6411 24.5153 20.7208 24.2763 20.7739 24.0638C20.8802 23.745 20.9598 23.3998 21.0395 23.0545C21.1192 22.7092 21.3051 21.7795 21.2255 21.4343C21.1723 21.3546 21.1192 21.2749 21.0661 21.1952C20.9598 21.0093 20.827 20.8234 20.7208 20.664C20.4021 20.1593 20.1099 19.6281 19.8443 19.0969C19.5256 18.486 19.1537 17.6892 19.074 16.9986C18.9678 16.1221 19.26 15.5909 20.1099 15.2987C20.4552 15.1925 20.8005 15.1659 21.1458 15.3253C22.0223 15.7503 22.2879 17.158 22.3941 18.061C22.4738 18.7516 22.4738 19.4688 22.4738 20.1593V20.8234C22.4738 20.903 22.4738 21.0093 22.5004 21.0624C22.5269 21.1155 22.5535 21.1952 22.6066 21.2483C22.7129 21.3811 22.8191 21.4874 22.8988 21.6202ZM21.2255 19.0172C21.1723 18.1407 21.0661 17.1845 20.8005 16.6799C20.7474 16.5736 20.5614 16.4408 20.4286 16.4674C20.3489 16.494 20.3489 16.7064 20.3489 16.7596C20.3489 17.2377 20.6411 17.8751 20.8536 18.2735C20.9864 18.5126 21.1192 18.7782 21.2255 19.0172ZM29.5124 26.0293C30.1764 26.2152 30.867 26.3746 31.5045 26.3746C31.7435 26.3746 31.9826 26.3746 32.195 26.3214C32.2216 26.3214 32.2482 26.2949 32.3013 26.2949C32.195 26.2417 32.0622 26.2152 32.0091 26.1886C31.7169 26.1089 31.3717 26.0824 31.0795 26.0558C30.6811 26.0293 30.2827 26.0027 29.8843 26.0027C29.778 26.0293 29.6452 26.0293 29.5124 26.0293ZM21.4645 25.7637C21.7567 25.684 22.0223 25.6043 22.3144 25.5246C22.9519 25.3387 23.6159 25.2059 24.2799 25.0996C24.4393 25.0731 24.5721 25.0731 24.7315 25.0465L24.4924 24.8606C24.094 24.595 23.669 24.1966 23.3237 23.8513C23.005 23.5326 22.6863 23.2138 22.3941 22.8685C22.2082 23.9044 21.8895 24.834 21.4645 25.7637ZM18.2772 28.3135C18.2506 28.34 18.1975 28.34 18.171 28.3666C18.0382 28.4197 17.6929 28.6057 17.5335 28.7385H17.5866C17.7991 28.765 18.0913 28.4994 18.2772 28.3135Z" fill="url(#paint3_linear_126_11861)"/>
<path fill-rule="evenodd" clip-rule="evenodd" d="M19.3662 27.4903C19.1006 27.8621 17.9851 29.6152 17.2148 28.9511C16.8164 28.6058 17.7991 28.1543 18.0382 28.0481C18.4366 27.8621 18.9413 27.6231 19.3662 27.4903ZM20.8005 26.3216C21.4114 25.0733 21.9957 23.7718 22.102 22.0719L22.527 22.5234C23.0316 23.0547 24.0409 24.1702 24.6784 24.5686L25.608 25.2592C25.369 25.3389 24.6253 25.392 24.3065 25.4186C22.8457 25.6576 22.102 25.9498 20.8005 26.3216ZM32.1154 25.8701C33.6559 26.2154 32.6732 27.4637 28.7687 26.1623C28.5828 26.1091 28.4234 26.0295 28.211 25.9763C27.9985 25.8966 27.8125 25.8701 27.6797 25.7373C28.7422 25.6576 31.0264 25.631 32.1154 25.8701ZM21.6239 20.2923C21.3848 20.0533 20.7739 18.8846 20.5349 18.4596C19.2069 15.8301 20.6943 15.8301 21.0927 16.5207C21.5973 17.3441 21.6239 19.3096 21.6239 20.2923ZM20.2693 15.6442C19.685 15.8567 19.3928 16.1754 19.4725 16.9722C19.6584 18.4862 21.5442 21.1688 21.5973 21.3282C21.8098 21.9922 21.1724 24.2764 20.9333 24.8873C20.7208 25.4451 20.4552 25.8701 20.1896 26.3216C19.8974 26.8263 19.7381 26.7466 18.8084 27.1184C18.1179 27.4106 16.0727 28.1278 16.6039 29.0839C16.843 29.5355 17.4539 29.8276 18.0913 29.5355C18.9413 29.1371 19.6318 28.0746 20.163 27.3044C20.4552 26.906 21.1724 26.7732 21.6504 26.6138C22.8457 26.2419 24.944 25.7638 26.272 25.7904C26.4845 25.7904 27.9719 26.481 28.6094 26.6935C29.539 26.9856 31.2389 27.4372 32.2747 27.2512C32.8325 27.1716 33.3903 26.7997 33.3372 26.1623C33.1778 24.6749 28.1047 25.2061 26.7767 25.2326C26.1923 25.2326 24.0409 23.4265 23.6159 23.0015L22.6332 21.8329C22.102 21.0892 22.1551 21.2751 22.1551 20.1595C22.1551 19.4955 22.1285 18.7518 22.0754 18.0878C21.9426 17.0254 21.5442 15.1927 20.2693 15.6442Z" fill="white"/>
<defs>
<linearGradient id="paint0_linear_126_11861" x1="23.498" y1="-21.7687" x2="23.498" y2="55.7664" gradientUnits="userSpaceOnUse">
<stop stop-color="#D74A4B"/>
<stop offset="1" stop-color="#891719"/>
</linearGradient>
<linearGradient id="paint1_linear_126_11861" x1="17.3738" y1="-14.5334" x2="17.3738" y2="28.7329" gradientUnits="userSpaceOnUse">
<stop stop-color="#E15355"/>
<stop offset="1" stop-color="#CD1F26"/>
</linearGradient>
<linearGradient id="paint2_linear_126_11861" x1="31.3981" y1="18.2105" x2="31.3981" y2="-6.14433" gradientUnits="userSpaceOnUse">
<stop stop-color="#E15355"/>
<stop offset="1" stop-color="#CD1F26"/>
</linearGradient>
<linearGradient id="paint3_linear_126_11861" x1="24.928" y1="-19.732" x2="24.928" y2="64.9503" gradientUnits="userSpaceOnUse">
<stop stop-color="#D74A4B"/>
<stop offset="1" stop-color="#891719"/>
</linearGradient>
</defs>
</svg>
