<svg width="51" height="47" viewBox="0 0 51 47" fill="none" xmlns="http://www.w3.org/2000/svg">
<path d="M50.4179 20.0411C50.1595 19.418 49.5566 19.0153 48.8821 19.0153H47.9801C47.9116 19.0153 47.8543 18.9659 47.841 18.8951C45.8017 8.06484 36.3104 0.204102 25.2728 0.204102C19.1742 0.204102 13.431 2.56917 9.10115 6.86364C4.84666 11.0834 2.44487 16.6822 2.31465 22.6586L0.486938 24.4858C0.0101918 24.9634 -0.130788 25.6748 0.127675 26.2982C0.386139 26.9213 0.988958 27.324 1.66355 27.324H2.56551C2.63402 27.324 2.69128 27.3734 2.70461 27.4442C4.74389 38.2746 14.2353 46.1353 25.2728 46.1353C31.3714 46.1353 37.1146 43.7702 41.4445 39.4758C45.6989 35.2561 48.1007 29.6572 48.231 23.6809L50.0587 21.8536C50.5355 21.3759 50.6765 20.6645 50.4179 20.0411ZM35.0486 20.2279L32.4439 17.6232L39.7754 10.2906C40.4931 9.57297 41.6617 9.57297 42.3802 10.2906C42.7279 10.6383 42.9194 11.1008 42.9194 11.593C42.9194 12.0851 42.7279 12.5476 42.3802 12.8954L35.0486 20.2279ZM25.2728 39.9748C23.2424 39.9748 21.2784 39.6094 19.4525 38.9343V36.6035H31.093V38.941C29.2563 39.6173 27.2916 39.9748 25.2728 39.9748ZM19.4526 30.9764C20.1236 31.8595 20.971 32.3226 21.942 32.3226H25.2724H28.6027C29.5742 32.3226 30.422 31.8591 31.0931 30.9752V35.1226H19.4526V30.9764ZM25.2724 25.5883C26.4532 26.4407 26.8206 27.4083 26.4217 28.6154C26.129 28.841 25.8837 29.0837 25.6815 29.3194C25.5265 29.5 25.3909 29.6835 25.2724 29.8628C25.1539 29.6835 25.0183 29.5 24.8633 29.3194C24.6612 29.0837 24.416 28.8411 24.1234 28.6155C23.7247 27.4083 24.0916 26.4408 25.2724 25.5883ZM26.8389 30.2452C27.6382 29.3384 28.739 28.9717 30.1106 29.1548C30.2049 29.1673 30.2541 29.2264 30.2788 29.2736C30.3003 29.3148 30.3289 29.3987 30.2788 29.4957C29.8177 30.3889 29.2539 30.8417 28.6027 30.8417H26.4052C26.5209 30.6488 26.6639 30.4438 26.8389 30.2452ZM23.7059 30.2452C23.8808 30.4437 24.024 30.6487 24.1396 30.8417H21.9421C21.291 30.8417 20.7271 30.3889 20.266 29.4957C20.216 29.3987 20.2446 29.3148 20.266 29.2736C20.2907 29.2263 20.3399 29.1673 20.4343 29.1548C20.6631 29.1242 20.8843 29.109 21.098 29.109C22.1647 29.109 23.04 29.4898 23.7059 30.2452ZM32.0105 23.2652C31.4189 23.8567 31.0931 24.6431 31.0931 25.4797V28.0067C30.8648 27.8378 30.5953 27.7256 30.3066 27.687C29.4337 27.5704 28.6875 27.6342 28.0528 27.8065C28.0764 26.4755 27.4031 25.2779 26.0731 24.3405C25.5942 24.003 24.9507 24.0029 24.4717 24.3405C23.1423 25.2777 22.4689 26.4754 22.4922 27.8063C21.8575 27.634 21.1112 27.5702 20.2382 27.687C19.9498 27.7255 19.6807 27.8375 19.4526 28.006V25.4795C19.4526 24.6431 19.1269 23.8568 18.5355 23.2654L16.5452 21.2751L19.1499 18.6703L19.8466 19.367C21.2961 20.8165 23.2233 21.6147 25.2731 21.6147C27.3224 21.6147 29.2493 20.8168 30.6987 19.3679L31.3967 18.6702L34.0014 21.275L32.0105 23.2652ZM8.16513 10.2909C8.52459 9.93184 8.9964 9.75235 9.46821 9.75235C9.93982 9.75235 10.4114 9.93174 10.7702 10.2906L18.1029 17.6233L15.4981 20.228L8.16542 12.8955C7.81771 12.5478 7.62618 12.0852 7.62618 11.5931C7.62618 11.1008 7.81771 10.6383 8.16513 10.2909ZM29.6518 18.3207C28.4821 19.49 26.927 20.1338 25.2732 20.1338C23.6189 20.1338 22.0637 19.4897 20.8939 18.3199L13.6283 11.0542C16.7721 8.02495 20.8789 6.36448 25.2729 6.36458C29.6671 6.36458 33.7741 8.02515 36.9176 11.0544L29.6518 18.3207ZM25.2728 1.68499C31.2975 1.68499 36.829 4.18887 40.7714 8.28647C40.0252 8.35479 39.298 8.67368 38.7282 9.24352L37.9647 10.0073C34.5414 6.69818 30.0642 4.8838 25.2728 4.8838C25.2725 4.8838 25.2729 4.8838 25.2727 4.8838C20.4819 4.8838 16.0044 6.69827 12.581 10.0072L11.8174 9.24352C11.2487 8.67486 10.5233 8.35617 9.7786 8.28697C9.89885 8.16188 10.0204 8.03778 10.144 7.91517C14.1946 3.89753 19.5675 1.68499 25.2728 1.68499ZM3.88754 21.086C4.16555 18.1818 5.02397 15.4013 6.40307 12.8801C6.56775 13.2723 6.80854 13.6327 7.11834 13.9425L17.4884 24.3125C17.8001 24.6242 17.9717 25.0386 17.9717 25.4795V38.3042C13.6635 36.2235 10.3211 32.3454 9.03263 27.5042C9.01752 27.4472 9.03776 27.4047 9.05751 27.3791C9.07676 27.354 9.11181 27.3241 9.16897 27.3241H9.9881C10.6629 27.3241 11.2658 26.9215 11.5242 26.2986C11.7827 25.6752 11.6416 24.9637 11.1642 24.4855L8.52024 21.8415C8.59587 20.8768 8.75383 19.9178 8.99245 18.9864C9.09394 18.5902 8.85512 18.1868 8.45894 18.0854C8.06285 17.9837 7.65936 18.2227 7.55797 18.6189C7.39951 19.2372 7.27344 19.8667 7.18054 20.5018L7.14016 20.4615C6.78929 20.1105 6.32261 19.9173 5.82622 19.9173C5.32983 19.9173 4.86325 20.1106 4.51248 20.4614L3.88754 21.086ZM46.6582 25.2535C46.1811 30.2362 43.9984 34.857 40.4016 38.4244C36.351 42.4419 30.9782 44.6544 25.2728 44.6544C14.9468 44.6544 6.0675 37.3013 4.15993 27.1702C4.0151 26.4012 3.34455 25.8433 2.56551 25.8433H1.66355C1.58299 25.8433 1.52652 25.8054 1.49562 25.731C1.46462 25.6563 1.47785 25.5893 1.53461 25.5326L5.55976 21.5085C5.65582 21.4124 5.76807 21.398 5.82642 21.398C5.88476 21.398 5.99711 21.4124 6.09317 21.5085L10.1167 25.5321C10.1741 25.5894 10.1874 25.6565 10.1564 25.7312C10.1256 25.8054 10.0691 25.8432 9.9882 25.8432H9.16907C8.66142 25.8432 8.19287 26.074 7.88346 26.4766C7.57346 26.8799 7.47069 27.3932 7.6017 27.8851C9.72322 35.8989 17.0857 41.476 25.273 41.4557C30.8546 41.4557 36.0592 38.9543 39.5526 34.5928C39.8082 34.2736 39.7566 33.8076 39.4375 33.552C39.1183 33.2964 38.6523 33.348 38.3967 33.6672C36.7961 35.6656 34.8045 37.2389 32.5742 38.3145V25.4797C32.5742 25.0388 32.7459 24.6243 33.0577 24.3125L40.7515 16.6189C41.0567 17.3394 41.3127 18.081 41.5133 18.8351C41.5284 18.8921 41.5081 18.9346 41.4884 18.9602C41.4691 18.9853 41.4341 19.0152 41.3769 19.0152H40.5578C39.883 19.0152 39.2801 19.4178 39.0217 20.0407C38.7632 20.6641 38.9043 21.3756 39.3817 21.8538L42.0254 24.4975C41.8478 26.7779 41.2204 28.9575 40.1565 30.9805C39.9661 31.3425 40.1051 31.7902 40.4671 31.9805C40.8291 32.1709 41.2767 32.0318 41.4671 31.6699C42.4334 29.8327 43.0697 27.8773 43.3663 25.8386L43.4057 25.878C43.7566 26.229 44.2233 26.4222 44.7197 26.4222C45.2161 26.4222 45.6827 26.2289 46.0334 25.8781L46.6582 25.2535ZM49.0111 20.8069L44.9859 24.8309C44.8899 24.927 44.7776 24.9414 44.7193 24.9414C44.6609 24.9414 44.5486 24.927 44.4525 24.8309L40.429 20.8074C40.3716 20.75 40.3583 20.683 40.3893 20.6082C40.4201 20.534 40.4767 20.4963 40.5575 20.4963H41.3766C41.8843 20.4963 42.3528 20.2654 42.6622 19.8628C42.9722 19.4596 43.075 18.9462 42.944 18.4543C42.6745 17.4417 42.3148 16.4492 41.8738 15.4961L43.4273 13.9424C43.7371 13.6326 43.9778 13.2722 44.1425 12.88C45.1936 14.806 45.9619 16.9187 46.3857 19.169C46.5305 19.938 47.2011 20.496 47.9801 20.496H48.8821C48.9626 20.496 49.0191 20.5338 49.05 20.6082C49.0811 20.6832 49.0678 20.7501 49.0111 20.8069Z" fill="white"/>
<path d="M26.0399 8.36963C26.0399 8.36963 24.3164 8.37289 24.2332 8.3795C22.1417 8.51979 20.5044 10.2716 20.5044 12.37V14.07C20.5044 16.0404 21.6881 17.781 23.519 18.504C24.0771 18.7253 24.6672 18.8375 25.2728 18.8375C27.9016 18.8375 30.0403 16.6988 30.0403 14.07V12.37C30.0403 10.1642 28.2458 8.36963 26.0399 8.36963ZM28.5594 14.07C28.5594 15.8823 27.0851 17.3566 25.2728 17.3566C24.8549 17.3566 24.4485 17.2795 24.0638 17.127C22.8011 16.6284 21.9853 15.4285 21.9853 14.07V12.37C21.9853 11.0473 23.0179 9.94332 24.336 9.85683C24.3402 9.85654 24.3442 9.85624 24.3483 9.85594C24.3932 9.85229 26.0399 9.85051 26.0399 9.85051C27.4292 9.85051 28.5594 10.9807 28.5594 12.37V14.07Z" fill="white"/>
</svg>
