<svg width="22" height="16" viewBox="0 0 22 16" fill="none" xmlns="http://www.w3.org/2000/svg">
<path d="M19.8659 1.37925C21.0708 2.65906 21.7177 4.09447 21.7177 6.42129C21.7177 10.5158 18.8446 14.1856 14.6636 16L13.6189 14.388C17.5203 12.2775 18.2831 9.53893 18.5884 7.81224C17.9602 8.13746 17.1378 8.25093 16.3306 8.17606C14.2202 7.9807 12.5567 6.24815 12.5567 4.09447C12.5567 3.00855 12.9881 1.9671 13.7559 1.19924C14.5238 0.43138 15.5652 0 16.6511 0C17.9064 0 19.1078 0.573225 19.8659 1.37925ZM8.16741 1.37925C9.37235 2.65906 10.0193 4.09447 10.0193 6.42129C10.0193 10.5158 7.14613 14.1856 2.9651 16L1.92043 14.388C5.82186 12.2775 6.58461 9.53893 6.88877 7.81224C6.26056 8.13746 5.43815 8.25093 4.63213 8.17606C2.52173 7.98187 0.859375 6.24932 0.859375 4.09447C0.859375 3.00855 1.29075 1.9671 2.05862 1.19924C2.82648 0.43138 3.86792 0 4.95384 0C6.20908 0 7.41052 0.573225 8.16858 1.37925" fill="#161616"/>
</svg>
