<svg width="10" height="7" viewBox="0 0 10 7" fill="none" xmlns="http://www.w3.org/2000/svg">
<path d="M0.810192 6.39658C0.28303 5.83666 0 5.20867 0 4.19069C0 2.39936 1.25751 0.793814 3.0862 0L3.54325 0.705272C1.83637 1.62857 1.50267 2.82672 1.3696 3.58214C1.64444 3.43986 2.00424 3.39022 2.35688 3.42297C3.28018 3.50844 4.00797 4.26643 4.00797 5.20867C4.00797 5.68376 3.81924 6.13939 3.4833 6.47533C3.14736 6.81127 2.69173 7 2.21664 7C1.9539 6.99773 1.69424 6.94321 1.45278 6.83962C1.21132 6.73602 0.992883 6.58542 0.810192 6.39658ZM5.92827 6.39658C5.40111 5.83666 5.11808 5.20867 5.11808 4.19069C5.11808 2.39936 6.37559 0.793814 8.20428 0L8.66133 0.705272C6.95445 1.62857 6.62075 2.82672 6.48768 3.58214C6.76252 3.43986 7.12232 3.39022 7.47496 3.42297C8.39826 3.50844 9.12605 4.26643 9.12605 5.20867C9.12605 5.68376 8.93732 6.13939 8.60138 6.47533C8.26544 6.81127 7.80981 7 7.33472 7C7.07198 6.99773 6.81232 6.94321 6.57086 6.83962C6.3294 6.73602 6.11096 6.58542 5.92827 6.39658Z" fill="#161616"/>
</svg>
