<svg width="10" height="7" viewBox="0 0 10 7" fill="none" xmlns="http://www.w3.org/2000/svg">
<path d="M8.31534 0.603422C8.8425 1.16334 9.12553 1.79133 9.12553 2.80932C9.12553 4.60064 7.86853 6.20619 6.03933 7L5.58229 6.29473C7.28917 5.37143 7.62287 4.17328 7.75645 3.41786C7.48161 3.56014 7.12181 3.60978 6.76866 3.57703C5.84536 3.49156 5.11757 2.73357 5.11757 1.79133C5.11757 1.31624 5.3063 0.860607 5.64223 0.524668C5.97817 0.188729 6.4338 0 6.90889 0C7.45806 0 7.98369 0.250786 8.31534 0.603422ZM3.19726 0.603422C3.72443 1.16334 4.00746 1.79133 4.00746 2.80932C4.00746 4.60064 2.75046 6.20619 0.921254 7L0.46421 6.29473C2.17109 5.37143 2.50479 4.17328 2.63786 3.41786C2.36302 3.56014 2.00322 3.60978 1.65058 3.57703C0.727279 3.49207 0 2.73408 0 1.79133C0 1.31624 0.188728 0.860607 0.524668 0.524668C0.860607 0.188729 1.31624 0 1.79133 0C2.3405 0 2.86612 0.250786 3.19778 0.603422" fill="#161616"/>
</svg>
