<svg width="66" height="306" viewBox="0 0 66 306" fill="none" xmlns="http://www.w3.org/2000/svg">
<path d="M0.999999 151.52H30.08C30.6323 151.52 31.08 151.072 31.08 150.52V117.776C31.08 116.997 30.2279 116.517 29.5615 116.921L0.481477 134.555C0.182558 134.737 0 135.061 0 135.41V150.52C0 151.072 0.447714 151.52 0.999999 151.52Z" fill="#16ACCD"/>
<path d="M0.999999 154.48H30.08C30.6323 154.48 31.08 154.928 31.08 155.48V188.224C31.08 189.003 30.2279 189.483 29.5615 189.079L0.481477 171.445C0.182558 171.263 0 170.939 0 170.59V155.48C0 154.928 0.447714 154.48 0.999999 154.48Z" fill="#F15654"/>
<path d="M64.12 151.52H35.04C34.4878 151.52 34.04 151.072 34.04 150.52V117.776C34.04 116.997 34.8921 116.517 35.5586 116.921L64.6386 134.555C64.9375 134.737 65.12 135.061 65.12 135.41V150.52C65.12 151.072 64.6723 151.52 64.12 151.52Z" fill="#F36F2F"/>
<path d="M64.12 154.48H35.04C34.4878 154.48 34.04 154.928 34.04 155.48V188.224C34.04 189.003 34.8921 189.483 35.5586 189.079L64.6386 171.445C64.9375 171.263 65.12 170.939 65.12 170.59V155.48C65.12 154.928 64.6723 154.48 64.12 154.48Z" fill="#E5AF0E"/>
<line x1="32.5" y1="114" x2="32.5" y2="2.18557e-08" stroke="url(#paint0_linear_154_15291)"/>
<line x1="32.5" y1="306" x2="32.5" y2="192" stroke="url(#paint1_linear_154_15291)"/>
<defs>
<linearGradient id="paint0_linear_154_15291" x1="33.5" y1="-2.18557e-08" x2="33.5" y2="114" gradientUnits="userSpaceOnUse">
<stop stop-color="white"/>
<stop offset="1" stop-color="#AFAFAF"/>
</linearGradient>
<linearGradient id="paint1_linear_154_15291" x1="33.5" y1="192" x2="33.5" y2="306" gradientUnits="userSpaceOnUse">
<stop stop-color="#AFAFAF"/>
<stop offset="1" stop-color="white"/>
</linearGradient>
</defs>
</svg>
