<svg width="15" height="14" viewBox="0 0 15 14" fill="none" xmlns="http://www.w3.org/2000/svg">
<path d="M14.4231 7.20371L5.98646 13.3912C5.88499 13.4607 5.76368 13.4954 5.64079 13.4901C5.5179 13.4847 5.40008 13.4395 5.30508 13.3614C5.21008 13.2832 5.14304 13.1763 5.11405 13.0568C5.08506 12.9373 5.09569 12.8115 5.14434 12.6985L7.93895 6.75L5.14434 0.80145C5.09506 0.688419 5.08399 0.562404 5.11279 0.44251C5.14158 0.322615 5.20869 0.215379 5.30393 0.13706C5.39916 0.0587408 5.51734 0.0136089 5.64054 0.00850689C5.76374 0.00340489 5.88524 0.0386109 5.98663 0.108787L14.4233 6.29629C14.4935 6.34925 14.5505 6.4178 14.5898 6.49654C14.629 6.57529 14.6494 6.66206 14.6494 6.75004C14.6494 6.83802 14.6289 6.92479 14.5897 7.00352C14.5504 7.08225 14.4934 7.15078 14.4231 7.20371ZM6.701 6.58024L3.99459 0.338906C3.95098 0.238244 3.8789 0.15253 3.7872 0.0923149C3.6955 0.0320996 3.5882 1.12088e-05 3.4785 0H0.55974C0.467118 0.00131799 0.376224 0.0252798 0.294989 0.0697951C0.213754 0.11431 0.144646 0.178027 0.0936922 0.255387C0.0427388 0.332746 0.0114883 0.421398 0.00266705 0.513609C-0.00615424 0.60582 0.00772166 0.698789 0.0430842 0.784406L2.65235 6.85327L0.0458404 12.7089C0.00912758 12.7946 -0.00590027 12.8881 0.00208514 12.981C0.0100706 13.0739 0.0408233 13.1634 0.0916251 13.2416C0.142427 13.3198 0.211713 13.3843 0.293358 13.4294C0.375003 13.4744 0.466493 13.4987 0.55974 13.5H3.47855C3.58765 13.5 3.69439 13.4683 3.78578 13.4087C3.87716 13.3491 3.94924 13.2642 3.99324 13.1644L6.69943 7.03069C6.73071 6.95977 6.747 6.88314 6.74727 6.80563C6.74755 6.72811 6.73179 6.65138 6.701 6.58024Z" fill="#444444"/>
</svg>
