<svg width="39" height="44" viewBox="0 0 39 44" fill="none" xmlns="http://www.w3.org/2000/svg">
<path fill-rule="evenodd" clip-rule="evenodd" d="M21.392 0.533505L37.0042 9.59193C38.2286 10.3033 38.9331 11.5232 38.9331 12.9459V31.0593C38.9331 32.4785 38.2286 33.7019 37.0042 34.4132L21.392 43.4682C20.1676 44.1796 18.7655 44.1796 17.5377 43.4682L1.92887 34.4132C0.701097 33.7019 0 32.4785 0 31.0593V12.9459C0 11.5232 0.701097 10.3033 1.92887 9.59193L17.5377 0.533505C18.7655 -0.177835 20.1676 -0.177835 21.392 0.533505Z" fill="#FFC955"/>
<mask id="mask0_0_169" style="mask-type:luminance" maskUnits="userSpaceOnUse" x="0" y="0" width="39" height="45">
<path d="M21.392 0.533505L37.0042 9.59193C38.2286 10.3033 38.9331 11.5232 38.9331 12.9459V31.0593C38.9331 32.4785 38.2286 33.7019 37.0042 34.4132L21.392 43.4682C20.1676 44.1796 18.7655 44.1796 17.5377 43.4682L1.92887 34.4132C0.701097 33.7019 0 32.4785 0 31.0593V12.9459C0 11.5232 0.701097 10.3033 1.92887 9.59193L17.5377 0.533505C18.7655 -0.177835 20.1676 -0.177835 21.392 0.533505Z" fill="white"/>
</mask>
<g mask="url(#mask0_0_169)">
<path d="M16.7207 18.8531C16.6968 19.0421 16.5258 19.1761 16.3411 19.1521C16.153 19.1315 16.0196 18.9596 16.0402 18.7706L16.3445 16.2071C16.3582 16.073 16.454 15.9631 16.5771 15.9218C21.0744 14.0593 25.5819 13.1074 30.0963 13.0834C34.6209 13.0593 39.1456 13.9631 43.6736 15.8153C43.7968 15.8634 43.8754 15.9768 43.8857 16.1005L44.2721 18.8669C44.2961 19.0524 44.1661 19.2277 43.9814 19.2517C43.7933 19.2792 43.6223 19.1486 43.595 18.9596L43.2359 16.3754C38.848 14.6091 34.4705 13.7431 30.0997 13.7672C25.729 13.7913 21.3617 14.7053 16.9978 16.4889L16.7207 18.8531Z" fill="#101940"/>
<path fill-rule="evenodd" clip-rule="evenodd" d="M5.34277 14.0662L30.2745 3.34106L55.2061 14.0662L43.9339 18.9115L43.544 16.1314C34.57 12.4613 25.6164 12.5472 16.6834 16.2483L16.3791 18.8119L5.34277 14.0662Z" fill="#213257"/>
<path d="M5.20921 13.7466L30.1409 3.02835C30.2298 2.99055 30.329 2.99055 30.4111 3.02835L55.3393 13.75C55.5137 13.8222 55.5924 14.0249 55.5206 14.2002C55.483 14.2861 55.418 14.3479 55.3359 14.3823L44.0671 19.2277C43.8926 19.3033 43.6943 19.2208 43.619 19.0455C43.6054 19.018 43.5985 18.9871 43.5951 18.9562L43.236 16.3754C38.8482 14.6091 34.4706 13.7431 30.0998 13.7672C25.7291 13.7912 21.3618 14.7053 16.9979 16.4888L16.7209 18.8531C16.6969 19.0421 16.5259 19.1761 16.3413 19.1521C16.3002 19.1486 16.2592 19.1383 16.225 19.1177L5.20921 14.3789C5.03479 14.3067 4.95271 14.104 5.02795 13.9321C5.06215 13.8462 5.13055 13.7809 5.20921 13.7466ZM30.2743 3.71564L6.20784 14.0662L16.095 18.317L16.3447 16.207C16.3584 16.0902 16.4336 15.9802 16.5533 15.9321C21.0608 14.0627 25.5752 13.1074 30.0964 13.0833C34.6211 13.0593 39.1457 13.9631 43.6738 15.8153C43.7832 15.86 43.8653 15.9596 43.8824 16.0868L44.2107 18.4201L54.3373 14.0662L30.2743 3.71564Z" fill="#101940"/>
<path fill-rule="evenodd" clip-rule="evenodd" d="M16.6831 16.2448C25.6161 12.5438 34.5696 12.4578 43.5437 16.1314L45.4725 29.9218C44.8433 27.8565 38.2803 26.231 30.2741 26.231C22.203 26.231 15.599 27.884 15.0586 29.9699L16.6831 16.2448ZM45.5238 30.2723V30.2792H45.5204L45.5238 30.2723Z" fill="#213257"/>
<path fill-rule="evenodd" clip-rule="evenodd" d="M38.6123 14.4889C38.6089 14.4958 40.1547 24.2243 40.7156 27.3205C43.3934 27.9837 45.1616 28.8978 45.4728 29.9219L43.5439 16.1315C42.0562 15.5164 40.8319 14.9391 38.6123 14.4889Z" fill="#0E1C39"/>
<path d="M9.8877 11.8909C9.8877 11.7019 10.0416 11.5472 10.2297 11.5472C10.4178 11.5472 10.5717 11.7019 10.5717 11.8909V22.8222C10.5717 23.0112 10.4178 23.1658 10.2297 23.1658C10.0416 23.1658 9.8877 23.0112 9.8877 22.8222V11.8909Z" fill="#101940"/>
<path fill-rule="evenodd" clip-rule="evenodd" d="M7.81201 29.3754H10.2299H12.6479L10.2299 24.8153L7.81201 29.3754Z" fill="white"/>
<path d="M8.37953 29.0318H10.2297H12.08L10.2297 25.5439L8.37953 29.0318ZM10.2297 29.7191H7.81181C7.75709 29.7191 7.70237 29.7054 7.65107 29.6779C7.48349 29.5885 7.42193 29.3824 7.51085 29.214L9.92878 24.6538C9.95956 24.5954 10.0074 24.5473 10.069 24.5129C10.2366 24.4236 10.4418 24.4889 10.5307 24.6538L12.9349 29.1865C12.9691 29.2415 12.9897 29.3067 12.9897 29.3755C12.9897 29.5679 12.8358 29.7191 12.6477 29.7191H10.2297Z" fill="#101940"/>
<path d="M10.2671 24.8153C11.238 24.8153 12.025 24.0153 12.025 23.0284C12.025 22.0415 11.238 21.2415 10.2671 21.2415C9.2963 21.2415 8.50928 22.0415 8.50928 23.0284C8.50928 24.0153 9.2963 24.8153 10.2671 24.8153Z" fill="#C1CDD1"/>
<path d="M9.71995 23.7019C10.3886 23.7019 10.9306 23.1511 10.9306 22.4717C10.9306 21.7923 10.3886 21.2415 9.71995 21.2415C9.05131 21.2415 8.50928 21.7923 8.50928 22.4717C8.50928 23.1511 9.05131 23.7019 9.71995 23.7019Z" fill="white"/>
<path d="M10.2674 20.8977C10.8453 20.8977 11.372 21.1383 11.7516 21.5231C12.1312 21.9115 12.3672 22.4407 12.3672 23.0283C12.3672 23.6159 12.1312 24.1486 11.7516 24.5334C11.372 24.9218 10.8453 25.1589 10.2674 25.1589C9.68596 25.1589 9.15928 24.9218 8.77966 24.5334C8.40004 24.1486 8.16406 23.6159 8.16406 23.0283C8.16406 22.4407 8.40004 21.908 8.77966 21.5231C9.15928 21.1383 9.68596 20.8977 10.2674 20.8977ZM11.266 22.0042C11.0095 21.7465 10.6572 21.585 10.2674 21.585C9.87405 21.585 9.5218 21.7465 9.2653 22.0042C9.0088 22.2654 8.84806 22.6297 8.84806 23.0283C8.84806 23.4304 9.0088 23.7912 9.2653 24.0523C9.5218 24.3135 9.87405 24.4716 10.2674 24.4716C10.6572 24.4716 11.0095 24.3135 11.266 24.0523C11.5225 23.7912 11.6832 23.4304 11.6832 23.0283C11.6832 22.6297 11.5225 22.2654 11.266 22.0042Z" fill="#101940"/>
<path d="M30.2912 34.262C38.7039 34.262 45.5238 32.465 45.5238 30.2482C45.5238 28.0315 38.7039 26.2345 30.2912 26.2345C21.8785 26.2345 15.0586 28.0315 15.0586 30.2482C15.0586 32.465 21.8785 34.262 30.2912 34.262Z" fill="#0E1C39"/>
<path d="M32.008 34.1967C39.4725 34.1967 45.5237 32.4289 45.5237 30.2483C45.5237 28.0676 39.4725 26.2998 32.008 26.2998C24.5434 26.2998 18.4922 28.0676 18.4922 30.2483C18.4922 32.4289 24.5434 34.1967 32.008 34.1967Z" fill="#021844"/>
<path d="M30.2914 25.8875C34.5253 25.8875 38.3626 26.3411 41.1464 27.0765C44.0637 27.8462 45.866 28.9631 45.866 30.2483C45.866 31.5301 44.0637 32.6503 41.1464 33.4167C38.3626 34.1521 34.5253 34.6057 30.2914 34.6057C26.0609 34.6057 22.2202 34.1521 19.4364 33.4167C16.5225 32.6503 14.7168 31.5301 14.7168 30.2483C14.7168 28.9631 16.5225 27.8462 19.4364 27.0765C22.2202 26.3411 26.0609 25.8875 30.2914 25.8875ZM40.9754 27.7397C38.2497 27.0215 34.4706 26.5747 30.2914 26.5747C26.1122 26.5747 22.3365 27.0215 19.6074 27.7397C17.0082 28.4235 15.4008 29.3136 15.4008 30.2483C15.4008 31.1795 17.0082 32.0696 19.6074 32.7534C22.3365 33.4716 26.1122 33.9184 30.2914 33.9184C34.4706 33.9184 38.2497 33.4716 40.9754 32.7534C43.5746 32.0696 45.182 31.1795 45.182 30.2483C45.182 29.3136 43.5746 28.4235 40.9754 27.7397Z" fill="#101940"/>
<path d="M15.4009 30.0146C15.394 30.0696 15.3735 30.1177 15.3462 30.1624C15.3564 30.1933 15.3633 30.2242 15.3667 30.2586V30.2655C15.3735 30.4373 15.2572 30.5816 15.0999 30.616C14.9494 30.6504 14.7921 30.5782 14.7203 30.4339C14.6895 30.372 14.6793 30.3033 14.6861 30.238V30.2311C14.6929 30.1796 14.71 30.1315 14.7374 30.0902C14.7203 30.0421 14.7135 29.9871 14.7203 29.9322L16.3448 16.2071C16.3585 16.073 16.4542 15.9631 16.5774 15.9218C21.0746 14.0593 25.5822 13.1074 30.0966 13.0834C34.6212 13.0593 39.1458 13.9631 43.6739 15.8153C43.797 15.8634 43.8757 15.9768 43.8859 16.1005L45.8114 29.8772C45.8216 29.939 45.8114 30.0009 45.7874 30.0593C45.8251 30.104 45.8524 30.1624 45.8593 30.2277L45.8627 30.2346C45.8866 30.4236 45.7567 30.5954 45.572 30.6229C45.466 30.6366 45.3634 30.6023 45.2915 30.5335L45.2813 30.5232L45.2608 30.4992H45.2573C45.206 30.4339 45.1787 30.348 45.1821 30.2655V30.2552C45.1855 30.2139 45.1924 30.1761 45.2095 30.1383C45.1718 30.0937 45.1445 30.0352 45.1342 29.97L43.2361 16.3789C38.8483 14.6091 34.4707 13.7431 30.1 13.7672C25.7292 13.7913 21.3619 14.7053 16.998 16.4889L15.4009 30.0146Z" fill="#101940"/>
</g>
</svg>
