<svg width="15" height="19" viewBox="0 0 15 19" fill="none" xmlns="http://www.w3.org/2000/svg">
<path fill-rule="evenodd" clip-rule="evenodd" d="M2.86477 0L11.3491 1.76145L14.505 4.90269V16.7778C14.505 16.9099 14.4022 16.998 14.2555 17.0126L2.86477 18.7888C2.73266 18.8034 2.61523 18.686 2.61523 18.5539V0.249538C2.61523 0.11743 2.71799 0 2.86477 0Z" fill="url(#paint0_linear_1_2112)"/>
<path opacity="0.2" fill-rule="evenodd" clip-rule="evenodd" d="M2.9668 0.0146484L3.11358 0.0440059L3.15762 0.0586846V18.7447L2.9668 18.774V0.0146484ZM3.46587 0.117399L3.55395 0.146757V18.686L3.36312 18.7153V0.102721L3.46587 0.117399ZM3.93559 18.6126L3.74477 18.6419V0.176114L3.93559 0.22015V18.6126Z" fill="black"/>
<path opacity="0.4" fill-rule="evenodd" clip-rule="evenodd" d="M2.62991 8.46966L2.61523 1.04224L9.6757 2.40736C10.0427 2.48075 10.3509 2.71561 10.3509 3.08258V5.97428C10.3509 6.34125 10.0573 6.60547 9.69038 6.69354L2.62991 8.46966Z" fill="black"/>
<path opacity="0.4" fill-rule="evenodd" clip-rule="evenodd" d="M11.1709 1.76147H11.3324L14.4883 4.90272V5.06419H11.6994C11.4058 5.06419 11.1562 4.82933 11.1562 4.52107V1.76147H11.1709Z" fill="black"/>
<path fill-rule="evenodd" clip-rule="evenodd" d="M0.514372 0.64575L9.83536 2.4072C10.1143 2.46591 10.3491 2.64206 10.3491 2.92095V5.95945C10.3491 6.23834 10.1143 6.42916 9.83536 6.4732L0.514372 8.264C0.235476 8.32272 0.000616743 8.02914 0.000616743 7.75025V1.15951C-0.014062 0.88061 0.235476 0.587036 0.514372 0.64575Z" fill="url(#paint1_linear_1_2112)"/>
<path fill-rule="evenodd" clip-rule="evenodd" d="M14.4899 4.9026H11.701C11.4955 4.9026 11.334 4.74113 11.334 4.53563V1.76135L14.4899 4.9026Z" fill="url(#paint2_linear_1_2112)"/>
<path d="M2.37695 6.06229V2.90637H3.08153C3.40446 2.90637 3.63932 2.99444 3.78611 3.17059C3.94758 3.34673 4.02097 3.61095 4.02097 3.96324C4.02097 4.30085 3.9329 4.55039 3.75675 4.74121C3.58061 4.93203 3.34575 5.02011 3.0375 5.02011H2.97878V6.04762H2.37695V6.06229ZM2.99346 3.37609V4.53571H3.02282C3.15492 4.53571 3.25768 4.49167 3.31639 4.38892C3.38978 4.28617 3.41914 4.13938 3.41914 3.94856C3.41914 3.75774 3.38978 3.62563 3.31639 3.52288C3.243 3.43481 3.14025 3.37609 2.99346 3.37609Z" fill="white"/>
<path d="M4.41797 6.06229V2.90637H5.03447C5.46016 2.90637 5.75373 3.0238 5.94456 3.25866C6.13538 3.49352 6.22345 3.87517 6.22345 4.4036C6.22345 4.97607 6.13538 5.38707 5.94456 5.65129C5.76841 5.91551 5.47484 6.04762 5.07851 6.04762H4.41797V6.06229ZM5.0198 5.56322H5.03447C5.23998 5.56322 5.37209 5.48983 5.46016 5.32836C5.54823 5.16689 5.57759 4.888 5.57759 4.49167C5.57759 4.08067 5.53355 3.80177 5.46016 3.64031C5.37209 3.47884 5.23998 3.40545 5.03447 3.40545H5.00512V5.56322H5.0198Z" fill="white"/>
<path d="M6.63281 6.06229V2.90637H7.9539V3.40545H7.24932V4.15406H7.9539V4.63846H7.24932V6.04762H6.63281V6.06229Z" fill="white"/>
<path fill-rule="evenodd" clip-rule="evenodd" d="M8.22338 11.9485L8.76649 12.5797C8.85456 12.6677 8.95731 12.7558 9.06006 12.8439C9.22153 12.976 9.383 13.1081 9.54446 13.2402C9.70593 13.3723 9.88207 13.4897 10.0582 13.6072C10.1169 13.6365 10.2931 13.7539 10.3518 13.7539C10.5867 13.7539 10.8215 13.7393 11.0564 13.7246C11.394 13.7099 11.7316 13.6952 12.0692 13.6952C12.4655 13.6952 12.9059 13.7099 13.3022 13.798C13.5958 13.8567 13.9921 13.9888 14.1242 14.2971C14.1389 14.3411 14.1536 14.3998 14.1683 14.4585C14.1829 14.62 14.1536 14.7668 14.0655 14.8989C13.9187 15.1044 13.6692 15.2218 13.4343 15.2659C13.0967 15.3246 12.671 15.2659 12.3334 15.2071C11.9958 15.1484 11.6435 15.0604 11.3059 14.9429C11.1004 14.8842 10.9096 14.7961 10.7188 14.7081C10.572 14.6494 10.4399 14.5906 10.2931 14.5319C10.2344 14.5026 10.1316 14.4585 10.0582 14.4438C9.66189 14.4438 9.23621 14.5026 8.83988 14.576C8.4142 14.664 7.98852 14.7668 7.57751 14.8842C7.38669 14.9429 6.96101 15.031 6.85826 15.1925C6.53532 15.6475 6.15368 16.2493 5.62524 16.4842C5.22892 16.6603 4.77388 16.5282 4.5537 16.1466C4.49498 16.0438 4.46562 15.9264 4.4803 15.809C4.5537 15.2805 5.41974 14.9723 5.8601 14.7815C5.99221 14.7227 6.12432 14.6787 6.25643 14.6347C6.31514 14.62 6.37386 14.5906 6.43257 14.5613C6.47661 14.5319 6.50597 14.4732 6.53532 14.4292C6.68211 14.1796 6.81422 13.9301 6.93165 13.6659C6.97569 13.5484 7.01972 13.4163 7.04908 13.2989C7.10779 13.1228 7.15183 12.9319 7.19587 12.7411C7.2399 12.5503 7.34265 12.0365 7.29862 11.8457C7.26926 11.8017 7.2399 11.7576 7.21055 11.7136C7.15183 11.6109 7.07844 11.5081 7.01972 11.42C6.84358 11.1411 6.68211 10.8476 6.53532 10.554C6.35918 10.2164 6.15368 9.77602 6.10964 9.39437C6.05093 8.90997 6.21239 8.6164 6.68211 8.45493C6.87293 8.39622 7.06376 8.38154 7.25458 8.46961C7.73898 8.70447 7.88577 9.48244 7.94448 9.98152C7.98852 10.3632 7.98852 10.7595 7.98852 11.1411V11.5081C7.98852 11.5521 7.98852 11.6109 8.0032 11.6402C8.01787 11.6696 8.03255 11.7136 8.06191 11.743C8.12063 11.8164 8.17934 11.8751 8.22338 11.9485ZM7.29862 10.51C7.26926 10.0256 7.21055 9.49712 7.06376 9.21823C7.0344 9.15951 6.93165 9.08612 6.85826 9.1008C6.81422 9.11547 6.81422 9.2329 6.81422 9.26226C6.81422 9.52648 6.97569 9.87877 7.09312 10.0989C7.16651 10.2311 7.2399 10.3778 7.29862 10.51ZM11.8784 14.3851C12.2453 14.4879 12.627 14.576 12.9793 14.576C13.1114 14.576 13.2435 14.576 13.3609 14.5466C13.3756 14.5466 13.3903 14.5319 13.4196 14.5319C13.3609 14.5026 13.2875 14.4879 13.2582 14.4732C13.0967 14.4292 12.9059 14.4145 12.7444 14.3998C12.5242 14.3851 12.3041 14.3705 12.0839 14.3705C12.0252 14.3851 11.9518 14.3851 11.8784 14.3851ZM7.43073 14.2383C7.59219 14.1943 7.73898 14.1503 7.90045 14.1062C8.25274 14.0035 8.6197 13.9301 8.98667 13.8714C9.07474 13.8567 9.14814 13.8567 9.23621 13.842L9.1041 13.7393C8.88392 13.5925 8.64906 13.3723 8.45824 13.1815C8.28209 13.0053 8.10595 12.8292 7.94448 12.6384C7.84173 13.2108 7.66559 13.7246 7.43073 14.2383ZM5.66928 15.6475C5.6546 15.6622 5.62524 15.6622 5.61056 15.6769C5.53717 15.7062 5.34635 15.809 5.25828 15.8824H5.28763C5.40506 15.897 5.56653 15.7503 5.66928 15.6475Z" fill="url(#paint3_linear_1_2112)"/>
<path fill-rule="evenodd" clip-rule="evenodd" d="M6.27001 15.1927C6.12323 15.3982 5.50672 16.367 5.08104 16C4.86086 15.8092 5.40397 15.5597 5.53608 15.501C5.75626 15.3982 6.03515 15.2661 6.27001 15.1927ZM7.06266 14.5468C7.40027 13.8569 7.72321 13.1377 7.78192 12.1982L8.01678 12.4478C8.29568 12.7414 8.85347 13.3579 9.20576 13.578L9.71951 13.9597C9.5874 14.0037 9.1764 14.0331 9.00026 14.0478C8.19293 14.1799 7.78192 14.3413 7.06266 14.5468ZM13.3158 14.2973C14.1672 14.4881 13.6241 15.178 11.4663 14.4588C11.3635 14.4294 11.2755 14.3854 11.158 14.356C11.0406 14.312 10.9378 14.2973 10.8645 14.2239C11.4516 14.1799 12.714 14.1652 13.3158 14.2973ZM7.5177 11.2148C7.3856 11.0827 7.04798 10.4368 6.91588 10.2019C6.18194 8.74874 7.00395 8.74874 7.22413 9.13039C7.50302 9.58543 7.5177 10.6717 7.5177 11.2148ZM6.76909 8.64599C6.44616 8.76342 6.28469 8.93956 6.32873 9.37993C6.43148 10.2166 7.47367 11.6992 7.50303 11.7872C7.62045 12.1542 7.26817 13.4166 7.13606 13.7542C7.01863 14.0624 6.87184 14.2973 6.72505 14.5468C6.56359 14.8257 6.47551 14.7817 5.96176 14.9872C5.58011 15.1487 4.44985 15.545 4.74343 16.0734C4.87553 16.323 5.21315 16.4844 5.56543 16.323C6.03515 16.1028 6.4168 15.5156 6.71037 15.0899C6.87184 14.8698 7.26817 14.7964 7.53238 14.7083C8.19293 14.5028 9.35254 14.2386 10.0865 14.2533C10.2039 14.2533 11.0259 14.6349 11.3782 14.7523C11.892 14.9138 12.8314 15.1633 13.4039 15.0606C13.7121 15.0166 14.0204 14.8111 13.991 14.4588C13.9029 13.6368 11.0993 13.9303 10.3654 13.945C10.0424 13.945 8.85347 12.9469 8.61861 12.712L8.0755 12.0661C7.78192 11.6551 7.81128 11.7579 7.81128 11.1414C7.81128 10.7744 7.7966 10.3634 7.76724 9.99643C7.69385 9.40928 7.47367 8.39645 6.76909 8.64599Z" fill="white"/>
<defs>
<linearGradient id="paint0_linear_1_2112" x1="8.55366" y1="-12.0304" x2="8.55366" y2="30.8191" gradientUnits="userSpaceOnUse">
<stop stop-color="#D74A4B"/>
<stop offset="1" stop-color="#891719"/>
</linearGradient>
<linearGradient id="paint1_linear_1_2112" x1="5.16738" y1="-8.03187" x2="5.16738" y2="15.8792" gradientUnits="userSpaceOnUse">
<stop stop-color="#E15355"/>
<stop offset="1" stop-color="#CD1F26"/>
</linearGradient>
<linearGradient id="paint2_linear_1_2112" x1="12.9193" y1="10.0639" x2="12.9193" y2="-3.39572" gradientUnits="userSpaceOnUse">
<stop stop-color="#E15355"/>
<stop offset="1" stop-color="#CD1F26"/>
</linearGradient>
<linearGradient id="paint3_linear_1_2112" x1="9.34483" y1="-10.9047" x2="9.34483" y2="35.8947" gradientUnits="userSpaceOnUse">
<stop stop-color="#D74A4B"/>
<stop offset="1" stop-color="#891719"/>
</linearGradient>
</defs>
</svg>
